SplineFontDB: 3.0
FontName: NovaFlatSlim-BookOblique
FullName: Nova Flat Slim Book Oblique
FamilyName: Nova Flat Slim
Weight: Book
Copyright: Copyright (c) 2020-2024 by Wojciech Kalinowski "wmk69" with Reserved Font Name "NovaFlatSlim-BookOblique".\nThis Font Software is licensed under the SIL Open Font License, Version 1.1.
Version: 3.1.0; 2021-05-23
ItalicAngle: -12
UnderlinePosition: -80
UnderlineWidth: 200
Ascent: 1638
Descent: 410
InvalidEm: 0
LayerCount: 2
Layer: 0 1 "Warstwa t+AUIA-a" 1
Layer: 1 1 "Plan pierwszy" 0
XUID: [1021 783 23647091 8360855]
StyleMap: 0x0001
FSType: 0
OS2Version: 3
OS2_WeightWidthSlopeOnly: 0
OS2_UseTypoMetrics: 1
CreationTime: 1260698820
ModificationTime: 1621761774
PfmFamily: 33
TTFWeight: 400
TTFWidth: 5
LineGap: 200
VLineGap: 0
Panose: 2 12 5 4 4 5 3 13 2 4
OS2TypoAscent: 2000
OS2TypoAOffset: 0
OS2TypoDescent: -500
OS2TypoDOffset: 0
OS2TypoLinegap: 200
OS2WinAscent: 2000
OS2WinAOffset: 0
OS2WinDescent: 500
OS2WinDOffset: 0
HheadAscent: 2000
HheadAOffset: 0
HheadDescent: -500
HheadDOffset: 0
OS2SubXSize: 1434
OS2SubYSize: 1331
OS2SubXOff: 0
OS2SubYOff: 287
OS2SupXSize: 1434
OS2SupYSize: 1331
OS2SupXOff: 0
OS2SupYOff: 977
OS2StrikeYSize: 102
OS2StrikeYPos: 512
OS2CapHeight: 1530
OS2XHeight: 1120
OS2Vendor: '    '
OS2CodePages: 20000093.00000000
OS2UnicodeRanges: 8000002f.4000204b.00000000.00000000
Lookup: 258 0 0 "'kern' Horizontal Kerning lookup 0" { "'kern' Horizontal Kerning lookup 0-1 subtable" [307,0,4] } ['kern' ('DFLT' <'dflt' > 'grek' <'dflt' > 'latn' <'dflt' > ) ]
MarkAttachClasses: 1
DEI: 91125
KernClass2: 65 55 "'kern' Horizontal Kerning lookup 0-1 subtable"
 134 A M N Agrave Aacute Acircumflex Atilde Adieresis Aring Ntilde Amacron Abreve Aogonek Nacute Ncommaaccent Ncaron Eng Aringacute uni1E40
 28 B germandbls uni1E02 uni1E9E
 47 C Ccedilla Cacute Ccircumflex Cdotaccent Ccaron
 122 D O Q Eth Ograve Oacute Ocircumflex Otilde Odieresis Oslash Dcaron Dcroat Omacron Obreve Ohungarumlaut Oslashacute uni1E0A

StartChar: .notdef
Encoding: 65536 -1 0
Width: 994
Flags: W
HStem: 0 68<274 748> 1442 68<567 1041>
VStem: 150 694<0 694> 471 694<816 1510>
DStem2: 150 0 259.546 0 0.207912 0.978148<92.2951 1497.19> 733.546 0 844 0 0.207912 0.978148<69.5192 1474.41>
LayerCount: 2
Fore
SplineSet
150 0 m 1,0,-1
 471 1510 l 1,1,-1
 1165 1510 l 1,2,-1
 844 0 l 1,3,-1
 150 0 l 1,0,-1
274 68 m 1,4,-1
 748 68 l 1,5,-1
 1041 1442 l 1,6,-1
 567 1442 l 1,7,-1
 274 68 l 1,4,-1
EndSplineSet
Validated: 1
EndChar

StartChar: exclam
Encoding: 33 33 4
Width: 600
GlyphClass: 2
Flags: W
HStem: -20 245<246.711 397.42> 1510 20G<668.556 725>
VStem: 199 246<27.5918 176.764>
DStem2: 195.726 -20 395.596 -20 0.207912 0.978148<562.949 1492.61>
LayerCount: 2
Fore
SplineSet
296 -20 m 128,-1,1
 246 -20 246 -20 218 16 c 0,2,3
 199 41 199 41 199 75 c 0,4,5
 199 88 199 88 202 102 c 0,6,7
 213 152 213 152 255.5 188.5 c 128,-1,8
 298 225 298 225 348 225 c 0,9,10
 400 225 400 225 426 189 c 0,11,12
 445 163 445 163 445 130 c 0,13,14
 445 116 445 116 442 102 c 0,15,16
 431 52 431 52 388.5 16 c 128,-1,0
 346 -20 346 -20 296 -20 c 128,-1,1
715 1530 m 1,17,-1
 725 1530 l 1,18,-1
 504 490 l 1,19,-1
 295 400 l 1,20,-1
 285 400 l 1,21,-1
 506 1440 l 1,22,-1
 715 1530 l 1,17,-1
EndSplineSet
Validated: 1
EndChar

StartChar: quotedbl
Encoding: 34 34 5
Width: 453
GlyphClass: 2
Flags: W
HStem: 1140 440
VStem: 292 447
DStem2: 292 1140 411.947 1140 0.207912 0.978148<78.1001 396.778> 525 1140 644.947 1140 0.207912 0.978148<78.1001 396.778>
LayerCount: 2
Fore
SplineSet
729 1580 m 1,0,-1
 739 1580 l 1,1,-1
 656 1192 l 1,2,-1
 535 1140 l 1,3,-1
 525 1140 l 1,4,-1
 608 1528 l 1,5,-1
 729 1580 l 1,0,-1
496 1580 m 1,6,-1
 506 1580 l 1,7,-1
 423 1192 l 1,8,-1
 302 1140 l 1,9,-1
 292 1140 l 1,10,-1
 375 1528 l 1,11,-1
 496 1580 l 1,6,-1
EndSplineSet
Validated: 1
EndChar

StartChar: numbersign
Encoding: 35 35 6
Width: 1368
GlyphClass: 2
Flags: W
HStem: 520 120<338 559 704 911 1056 1277> 872 120<413 633 779 985 1131 1351>
DStem2: 495 222 614.947 222 0.207912 0.978148<78.1001 304.794 452.319 664.488 812.221 1038.71> 847 222 966.947 222 0.207912 0.978148<78.1001 304.794 452.319 664.488 812.221 1038.71>
LayerCount: 2
Fore
SplineSet
832 1290 m 1,0,-1
 842 1290 l 1,1,-1
 779 992 l 1,2,-1
 1011 992 l 1,3,-1
 1063 1238 l 1,4,-1
 1184 1290 l 1,5,-1
 1194 1290 l 1,6,-1
 1131 992 l 1,7,-1
 1429 992 l 1,8,-1
 1427 982 l 1,9,-1
 1351 872 l 1,10,-1
 1105 872 l 1,11,-1
 1056 640 l 1,12,-1
 1354 640 l 1,13,-1
 1352 630 l 1,14,-1
 1277 520 l 1,15,-1
 1031 520 l 1,16,-1
 978 274 l 1,17,-1
 857 222 l 1,18,-1
 847 222 l 1,19,-1
 911 520 l 1,20,-1
 679 520 l 1,21,-1
 626 274 l 1,22,-1
 505 222 l 1,23,-1
 495 222 l 1,24,-1
 559 520 l 1,25,-1
 261 520 l 1,26,-1
 263 530 l 1,27,-1
 338 640 l 1,28,-1
 584 640 l 1,29,-1
 633 872 l 1,30,-1
 335 872 l 1,31,-1
 337 882 l 1,32,-1
 413 992 l 1,33,-1
 659 992 l 1,34,-1
 711 1238 l 1,35,-1
 832 1290 l 1,0,-1
985 872 m 1,36,-1
 753 872 l 1,37,-1
 704 640 l 1,38,-1
 936 640 l 1,39,-1
 985 872 l 1,36,-1
EndSplineSet
Validated: 1
EndChar

StartChar: dollar
Encoding: 36 36 7
Width: 1130
GlyphClass: 2
Flags: W
HStem: -18 89<389.448 512 631 771.507> 798 111<616.161 686 808 909.488> 1437 89<940 1012.9>
VStem: 141 188<125.849 368.961> 380 198<948.944 1146.03> 965 204<513.391 745.699> 1046 184<1217 1402.39>
DStem2: 122.454 -120 327.232 -120 0.207912 0.978148<1226.19 1556.75> 490 -120 590.073 -120 0.207912 0.978148<63.7446 104.345 219.076 938.69 1067.74 1592 1703.59 1746.36> 809.002 -120 1024.74 -120 0.207912 0.978148<322.551 773.929>
LayerCount: 2
Fore
SplineSet
599 -78 m 1,0,-1
 500 -120 l 1,1,-1
 490 -120 l 1,2,-1
 512 -18 l 1,3,4
 344 -6 344 -6 233 76 c 0,5,6
 141 144 141 144 141 295 c 0,7,8
 141 327 141 327 147 362 c 1,9,-1
 362 455 l 1,10,-1
 372 455 l 1,11,-1
 337 294 l 2,12,13
 329 257 329 257 329 229 c 0,14,15
 329 154 329 154 382 118 c 0,16,17
 441 78 441 78 531 71 c 1,18,-1
 686 798 l 1,19,20
 546 808 546 808 456 878 c 0,21,22
 380 938 380 938 380 1050 c 0,23,24
 380 1091 380 1091 389 1134 c 2,25,-1
 409 1230 l 2,26,27
 440 1378 440 1378 557 1448 c 0,28,29
 684 1524 684 1524 842 1530 c 1,30,-1
 854 1588 l 1,31,-1
 952 1630 l 1,32,-1
 962 1630 l 1,33,-1
 940 1526 l 1,34,35
 1069 1512 1069 1512 1154 1448 c 0,36,37
 1230 1390 1230 1390 1230 1265 c 0,38,39
 1230 1246 1230 1246 1228 1226 c 1,40,-1
 1025 1138 l 1,41,-1
 1015 1138 l 1,42,-1
 1040 1258 l 2,43,44
 1046 1287 1046 1287 1046 1313 c 0,45,46
 1046 1370 1046 1370 1014 1398 c 0,47,48
 979 1428 979 1428 921 1437 c 1,49,-1
 808 904 l 1,50,51
 972 893 972 893 1079 810 c 0,52,53
 1169 740 1169 740 1169 607 c 0,54,55
 1169 558 1169 558 1157 502 c 2,56,-1
 1124 347 l 2,57,58
 1084 159 1084 159 939 76 c 0,59,60
 788 -10 788 -10 612 -19 c 1,61,-1
 599 -78 l 1,0,-1
709 909 m 1,62,-1
 822 1437 l 1,63,64
 760 1428 760 1428 710 1398 c 0,65,66
 640 1356 640 1356 620 1258 c 2,67,-1
 584 1088 l 2,68,69
 578 1060 578 1060 578 1036 c 0,70,71
 578 978 578 978 615 948 c 0,72,73
 652 917 652 917 709 909 c 1,62,-1
784 793 m 1,74,-1
 631 74 l 1,75,76
 711 83 711 83 778 118 c 0,77,78
 869 166 869 166 897 294 c 2,79,-1
 957 572 l 2,80,81
 965 609 965 609 965 639 c 0,82,83
 965 715 965 715 918 748 c 0,84,85
 867 785 867 785 784 793 c 1,74,-1
EndSplineSet
Validated: 1
EndChar

StartChar: percent
Encoding: 37 37 8
Width: 1547
GlyphClass: 2
Flags: W
HStem: -20 64<994.093 1224.48> 535 59<1089.54 1315.03> 916 64<551.338 780.478> 1471 59<645.403 871.026>
VStem: 390 135<1003.05 1295.07> 834 135<67.6133 359.111> 900 133<1154.99 1446.75> 1344 134<218.963 510.579>
DStem2: 145.333 -20 289.661 -20 0.207912 0.978148<1151.16 1502.73> 358 47 491 -20 0.566694 0.823928<20.1671 1799.35> 606.073 -20 749.251 -20 0.207912 0.978148<1069.22 1421.12> 788.286 -20 932.614 -20 0.207912 0.978148<196.179 543.831> 1249.03 -20 1393.2 -20 0.207912 0.978148<113.862 463.44>
LayerCount: 2
Fore
SplineSet
1104 44 m 0,0,1
 1173 44 1173 44 1223.5 72.5 c 128,-1,2
 1274 101 1274 101 1289 170 c 2,3,-1
 1340 408 l 2,4,5
 1344 427 1344 427 1344 444 c 0,6,7
 1344 486 1344 486 1316 506 c 0,8,9
 1278 535 1278 535 1209 535 c 128,-1,10
 1140 535 1140 535 1089 506 c 128,-1,11
 1038 477 1038 477 1024 408 c 2,12,-1
 973 170 l 2,13,14
 969 151 969 151 969 134 c 0,15,16
 969 91 969 91 996 72 c 0,17,18
 1034 44 1034 44 1104 44 c 0,0,1
765 1471 m 128,-1,20
 696 1471 696 1471 645 1442 c 128,-1,21
 594 1413 594 1413 580 1344 c 2,22,-1
 529 1106 l 2,23,24
 525 1087 525 1087 525 1070 c 0,25,26
 525 1027 525 1027 552 1008 c 0,27,28
 590 980 590 980 659.5 980 c 128,-1,29
 729 980 729 980 779.5 1008.5 c 128,-1,30
 830 1037 830 1037 845 1106 c 2,31,-1
 896 1344 l 2,32,33
 900 1363 900 1363 900 1380 c 0,34,35
 900 1422 900 1422 872 1442 c 0,36,19
 834 1471 834 1471 765 1471 c 128,-1,20
481 -20 m 1,37,-1
 358 47 l 1,38,-1
 1377 1530 l 1,39,-1
 1387 1530 l 1,40,-1
 1511 1463 l 1,41,-1
 491 -20 l 1,42,-1
 481 -20 l 1,37,-1
1101 -20 m 0,43,44
 971 -20 971 -20 895 40 c 0,45,46
 834 88 834 88 834 170 c 0,47,48
 834 197 834 197 841 228 c 2,49,-1
 867 346 l 2,50,51
 897 482 897 482 985 534 c 0,52,53
 1086 594 1086 594 1211 594 c 128,-1,54
 1336 594 1336 594 1417 534 c 0,55,56
 1478 489 1478 489 1478 406 c 0,57,58
 1478 378 1478 378 1471 346 c 2,59,-1
 1445 228 l 2,60,61
 1415 92 1415 92 1327 40 c 0,62,63
 1226 -20 1226 -20 1101 -20 c 0,43,44
767 1530 m 128,-1,65
 892 1530 892 1530 973 1470 c 0,66,67
 1033 1426 1033 1426 1033 1343 c 0,68,69
 1033 1315 1033 1315 1026 1282 c 2,70,-1
 1001 1164 l 2,71,72
 972 1029 972 1029 883 976 c 0,73,74
 782 916 782 916 657 916 c 128,-1,75
 532 916 532 916 451 976 c 0,76,77
 390 1021 390 1021 390 1104 c 0,78,79
 390 1132 390 1132 397 1164 c 2,80,-1
 422 1282 l 2,81,82
 450 1417 450 1417 540 1470 c 0,83,64
 642 1530 642 1530 767 1530 c 128,-1,65
EndSplineSet
Validated: 1
EndChar

StartChar: ampersand
Encoding: 38 38 9
Width: 1624
GlyphClass: 2
Flags: W
HStem: -20 90<472.346 926.585> 790 91<691.975 794> 1440 90<786.057 1105.71>
VStem: 222 183<136.281 468.492> 462 188<922.822 1122.48> 1138 185<1217.95 1402.43>
DStem2: 146.127 -20 345.257 -20 0.207912 0.978148<321.356 762.422> 235.338 -20 425.801 -20 0.207912 0.978148<1096.34 1449.5> 971 881 794 790 0.517384 -0.855753<0 556.345 731.301 935.562>
LayerCount: 2
Fore
SplineSet
794 790 m 1,0,1
 688 787 688 787 598 743 c 0,2,3
 498 694 498 694 471 567 c 2,4,-1
 412 294 l 2,5,6
 405 262 405 262 405 234 c 0,7,8
 405 153 405 153 465 118 c 0,9,10
 546 70 546 70 672 70 c 0,11,12
 833 70 833 70 953 126 c 0,13,14
 1047 170 1047 170 1127 244 c 1,15,-1
 794 790 l 1,0,1
668 -20 m 0,16,17
 448 -20 448 -20 324 76 c 0,18,19
 222 155 222 155 222 291 c 0,20,21
 222 336 222 336 232 384 c 2,22,-1
 261 522 l 2,23,24
 315 779 315 779 554 851 c 1,25,26
 462 902 462 902 462 1013 c 0,27,28
 462 1046 462 1046 470 1084 c 2,29,-1
 493 1192 l 2,30,31
 533 1380 533 1380 649 1448 c 0,32,33
 788 1530 788 1530 960 1530 c 24,34,35
 1138 1530 1138 1530 1246 1448 c 0,36,37
 1323 1390 1323 1390 1323 1266 c 0,38,39
 1323 1247 1323 1247 1320 1226 c 1,40,-1
 1117 1138 l 1,41,-1
 1107 1138 l 1,42,-1
 1132 1258 l 2,43,44
 1138 1287 1138 1287 1138 1313 c 0,45,46
 1138 1370 1138 1370 1106 1398 c 0,47,48
 1058 1440 1058 1440 960 1440 c 152,-1,49
 862 1440 862 1440 790 1398 c 128,-1,50
 718 1356 718 1356 697 1258 c 2,51,-1
 656 1063 l 2,52,53
 650 1034 650 1034 650 1012 c 0,54,55
 650 948 650 948 690 922 c 0,56,57
 753 881 753 881 842 881 c 2,58,-1
 971 881 l 1,59,-1
 1259 405 l 1,60,61
 1363 556 1363 556 1423 827 c 1,62,-1
 1637 919 l 1,63,-1
 1647 919 l 1,64,65
 1573 570 1573 570 1324 296 c 1,66,-1
 1471 54 l 1,67,-1
 1299 -20 l 1,68,-1
 1289 -20 l 1,69,-1
 1182 154 l 1,70,71
 1140 111 1140 111 1088 81 c 0,72,73
 911 -20 911 -20 668 -20 c 0,16,17
EndSplineSet
Validated: 1
EndChar

StartChar: quotesingle
Encoding: 39 39 10
Width: 220
GlyphClass: 2
Flags: W
HStem: 1140 440
VStem: 292 214
DStem2: 292 1140 411.947 1140 0.207912 0.978148<78.1001 396.778>
LayerCount: 2
Fore
SplineSet
496 1580 m 1,0,-1
 506 1580 l 1,1,-1
 423 1192 l 1,2,-1
 302 1140 l 1,3,-1
 292 1140 l 1,4,-1
 375 1528 l 1,5,-1
 496 1580 l 1,0,-1
EndSplineSet
Validated: 1
EndChar

StartChar: parenleft
Encoding: 40 40 11
Width: 756
GlyphClass: 2
Flags: W
HStem: -240 90<476.86 655> 1660 90<844.98 1059>
VStem: 223 186<-90.1824 139.965>
DStem2: 149.127 -240 349.257 -240 0.207912 0.978148<311.221 1852.8>
LayerCount: 2
Fore
SplineSet
655 -240 m 1,0,1
 446 -240 446 -240 318 -144 c 0,2,3
 223 -72 223 -72 223 61 c 0,4,5
 223 108 223 108 235 164 c 2,6,-1
 486 1346 l 2,7,8
 534 1571 534 1571 680 1654 c 0,9,10
 848 1750 848 1750 1078 1750 c 1,11,-1
 1059 1660 l 1,12,13
 933 1660 933 1660 832.5 1611.5 c 128,-1,14
 732 1563 732 1563 705 1436 c 2,15,-1
 416 74 l 2,16,17
 409 41 409 41 409 14 c 0,18,19
 409 -66 409 -66 468 -102 c 0,20,21
 548 -150 548 -150 674 -150 c 1,22,-1
 655 -240 l 1,0,1
EndSplineSet
Validated: 1
EndChar

StartChar: parenright
Encoding: 41 41 12
Width: 756
GlyphClass: 2
Flags: W
HStem: -240 90<18 232.815> 1660 90<422 600.401>
VStem: 668 186<1268.94 1600.8>
DStem2: 305.257 -240 505.127 -240 0.207912 0.978148<223.338 1764.74>
LayerCount: 2
Fore
SplineSet
-1 -240 m 1,0,1
 18 -150 l 1,2,3
 144 -150 144 -150 244 -102 c 0,4,5
 345 -52 345 -52 372 74 c 2,6,-1
 661 1436 l 2,7,8
 668 1468 668 1468 668 1495 c 0,9,10
 668 1576 668 1576 608 1612 c 0,11,12
 528 1660 528 1660 403 1660 c 1,13,-1
 422 1750 l 1,14,15
 632 1750 632 1750 760 1654 c 0,16,17
 854 1583 854 1583 854 1449 c 0,18,19
 854 1402 854 1402 842 1346 c 2,20,-1
 591 164 l 2,21,22
 544 -61 544 -61 398 -144 c 0,23,24
 230 -240 230 -240 -1 -240 c 1,0,1
EndSplineSet
Validated: 1
EndChar

StartChar: asterisk
Encoding: 42 42 13
Width: 748
GlyphClass: 2
Flags: W
HStem: 900 680
DStem2: 288 1122 377 1044 0.889118 0.457677<43.4327 243.802 485.703 686.073> 460 1436 339 1358 0.834738 -0.550647<0 156.342 356.679 512.186> 505 900 624.947 900 0.207912 0.978148<78.1001 241.238 478.999 642.137>
LayerCount: 2
Fore
SplineSet
760 1580 m 1,0,-1
 770 1580 l 1,1,-1
 720 1344 l 1,2,-1
 898 1436 l 1,3,-1
 984 1367 l 1,4,-1
 987 1358 l 1,5,-1
 758 1240 l 1,6,-1
 936 1122 l 1,7,-1
 930 1113 l 1,8,-1
 815 1044 l 1,9,-1
 675 1136 l 1,10,-1
 636 952 l 1,11,-1
 515 900 l 1,12,-1
 505 900 l 1,13,-1
 555 1136 l 1,14,-1
 377 1044 l 1,15,-1
 292 1113 l 1,16,-1
 288 1122 l 1,17,-1
 518 1240 l 1,18,-1
 339 1358 l 1,19,-1
 346 1367 l 1,20,-1
 460 1436 l 1,21,-1
 600 1344 l 1,22,-1
 639 1528 l 1,23,-1
 760 1580 l 1,0,-1
EndSplineSet
Validated: 1
EndChar

StartChar: plus
Encoding: 43 43 14
Width: 1200
GlyphClass: 2
Flags: W
HStem: 680 150<392 670 851 1129>
DStem2: 590 305 739.971 305 0.207912 0.978148<98.6553 383.438 567.792 852.575>
LayerCount: 2
Fore
SplineSet
767 1139 m 1,0,-1
 921 1205 l 1,1,-1
 931 1205 l 1,2,-1
 851 830 l 1,3,-1
 1226 830 l 1,4,-1
 1224 820 l 1,5,-1
 1129 680 l 1,6,-1
 820 680 l 1,7,-1
 754 371 l 1,8,-1
 600 305 l 1,9,-1
 590 305 l 1,10,-1
 670 680 l 1,11,-1
 295 680 l 1,12,-1
 297 690 l 1,13,-1
 392 830 l 1,14,-1
 701 830 l 1,15,-1
 767 1139 l 1,0,-1
EndSplineSet
Validated: 1
EndChar

StartChar: comma
Encoding: 44 44 15
Width: 389
GlyphClass: 2
Flags: W
HStem: -276 554
VStem: 187 166<-64.7295 154.218>
LayerCount: 2
Fore
SplineSet
279 278 m 1,0,-1
 289 278 l 1,1,2
 353 198 353 198 353 101 c 0,3,4
 353 68 353 68 346 34 c 0,5,6
 304 -163 304 -163 55 -276 c 1,7,-1
 50 -269 l 1,8,9
 155 -139 155 -139 182 -10 c 0,10,11
 187 14 187 14 187 37 c 0,12,13
 187 134 187 134 92 198 c 1,14,-1
 279 278 l 1,0,-1
EndSplineSet
Validated: 1
EndChar

StartChar: hyphen
Encoding: 45 45 16
Width: 1200
GlyphClass: 2
Flags: W
HStem: 680 150<392 1129>
LayerCount: 2
Fore
SplineSet
392 830 m 5,0,-1
 1226 830 l 5,1,-1
 1224 820 l 5,2,-1
 1129 680 l 5,3,-1
 295 680 l 5,4,-1
 297 690 l 5,5,-1
 392 830 l 5,0,-1
EndSplineSet
Validated: 1
EndChar

StartChar: period
Encoding: 46 46 17
Width: 340
GlyphClass: 2
Flags: W
HStem: -20 245<116.901 267.42>
VStem: 69 246<27.5918 176.764>
LayerCount: 2
Fore
SplineSet
166 -20 m 0,0,1
 114 -20 114 -20 88 16 c 0,2,3
 69 42 69 42 69 75 c 0,4,5
 69 88 69 88 72 102 c 0,6,7
 83 152 83 152 125.5 188.5 c 128,-1,8
 168 225 168 225 218 225 c 128,-1,9
 268 225 268 225 296 189 c 0,10,11
 315 165 315 165 315 130 c 0,12,13
 315 116 315 116 312 102 c 0,14,15
 301 52 301 52 258.5 16 c 128,-1,16
 216 -20 216 -20 166 -20 c 0,0,1
EndSplineSet
Validated: 1
EndChar

StartChar: slash
Encoding: 47 47 18
Width: 1039
GlyphClass: 2
Flags: W
DStem2: -18 -133 114 -200 0.565598 0.824681<19.4053 2233.67>
LayerCount: 2
Fore
SplineSet
104 -200 m 1,0,-1
 -18 -133 l 1,1,-1
 1244 1710 l 1,2,-1
 1254 1710 l 1,3,-1
 1378 1643 l 1,4,-1
 114 -200 l 1,5,-1
 104 -200 l 1,0,-1
EndSplineSet
Validated: 1
EndChar

StartChar: zero
Encoding: 48 48 19
Width: 1330
GlyphClass: 2
Flags: W
HStem: -20 90<488.214 892.639> 1440 90<758.852 1165.93>
VStem: 231 194<133.138 466.016> 1225 195<1043.98 1378.15>
DStem2: 156.127 -20 365.257 -20 0.207912 0.978148<316.258 1402.8> 955.257 -20 1166.13 -20 0.207912 0.978148<225.895 1312.06>
LayerCount: 2
Fore
SplineSet
680.5 70 m 128,-1,1
 807 70 807 70 901 118.5 c 128,-1,2
 995 167 995 167 1022 294 c 2,3,-1
 1218 1216 l 2,4,5
 1225 1250 1225 1250 1225 1279 c 0,6,7
 1225 1357 1225 1357 1172 1392 c 0,8,9
 1098 1440 1098 1440 971.5 1440 c 128,-1,10
 845 1440 845 1440 750 1391.5 c 128,-1,11
 655 1343 655 1343 628 1216 c 2,12,-1
 432 294 l 2,13,14
 425 260 425 260 425 232 c 0,15,16
 425 154 425 154 480 118 c 0,17,0
 554 70 554 70 680.5 70 c 128,-1,1
681.5 -20 m 128,-1,19
 471 -20 471 -20 334 76 c 0,20,21
 231 148 231 148 231 286 c 0,22,23
 231 331 231 331 242 384 c 2,24,-1
 399 1126 l 2,25,26
 447 1351 447 1351 592 1434 c 0,27,28
 760 1530 760 1530 970 1530 c 0,29,30
 1179 1530 1179 1530 1318 1434 c 0,31,32
 1420 1364 1420 1364 1420 1224 c 0,33,34
 1420 1179 1420 1179 1409 1126 c 2,35,-1
 1252 384 l 2,36,37
 1204 159 1204 159 1060 76 c 0,38,18
 892 -20 892 -20 681.5 -20 c 128,-1,19
EndSplineSet
Validated: 1
EndChar

StartChar: one
Encoding: 49 49 20
Width: 714
GlyphClass: 2
Flags: W
HStem: -20 21G<260 316.444> 1510 20G<732.816 789>
VStem: 260 529
DStem2: 260 -20 459.87 -20 0.207912 0.978148<133.566 1392.32> 301 1323 281 1228 0.917649 0.397392<0 235.127>
LayerCount: 2
Fore
SplineSet
260 -20 m 1,0,-1
 549 1342 l 1,1,-1
 281 1228 l 1,2,-1
 301 1323 l 1,3,-1
 779 1530 l 1,4,-1
 789 1530 l 1,5,-1
 479 70 l 1,6,-1
 270 -20 l 1,7,-1
 260 -20 l 1,0,-1
EndSplineSet
Validated: 1
EndChar

StartChar: two
Encoding: 50 50 21
Width: 1233
GlyphClass: 2
Flags: W
HStem: 0 180<370 1023> 1440 90<682.204 1091.79>
VStem: 1154 195<1038.01 1377.01>
DStem2: 198 180 370 180 0.8301 0.557614<142.777 981.013> 889.154 0 1098.58 0 0.207912 0.978148<885.577 1291.45>
LayerCount: 2
Fore
SplineSet
80 0 m 1,0,-1
 82 10 l 1,1,-1
 198 180 l 1,2,-1
 789 577 l 2,3,4
 1050 752 1050 752 1110 1039 c 2,5,-1
 1147 1216 l 2,6,7
 1154 1249 1154 1249 1154 1278 c 0,8,9
 1154 1357 1154 1357 1100 1392 c 0,10,11
 1026 1440 1026 1440 900 1440 c 128,-1,12
 774 1440 774 1440 674 1392 c 128,-1,13
 574 1344 574 1344 547 1216 c 2,14,-1
 528 1126 l 1,15,-1
 319 1036 l 1,16,-1
 309 1036 l 1,17,-1
 328 1126 l 2,18,19
 376 1352 376 1352 520 1434 c 0,20,21
 688 1530 688 1530 898.5 1530 c 128,-1,22
 1109 1530 1109 1530 1246 1434 c 0,23,24
 1349 1362 1349 1362 1349 1224 c 0,25,26
 1349 1178 1349 1178 1338 1126 c 2,27,-1
 1319 1037 l 2,28,29
 1257 747 1257 747 880 506 c 2,30,-1
 370 180 l 1,31,-1
 1141 180 l 1,32,-1
 1139 170 l 1,33,-1
 1023 0 l 1,34,-1
 80 0 l 1,0,-1
EndSplineSet
Validated: 1
EndChar

StartChar: three
Encoding: 51 51 22
Width: 1210
GlyphClass: 2
Flags: W
HStem: -20 90<428.44 812.445> 1420 90<572 1048>
VStem: 180 189<125.715 368.461> 1022 196<460.273 804.681>
DStem2: 646 877 904 944 0.607606 0.794238<209.976 675.529> 875.257 -20 1086.13 -20 0.207912 0.978148<226.097 725.24>
LayerCount: 2
Fore
SplineSet
610 -20 m 0,0,1
 404 -20 404 -20 273 76 c 0,2,3
 180 144 180 144 180 294 c 0,4,5
 180 326 180 326 186 361 c 1,6,-1
 402 455 l 1,7,-1
 412 455 l 1,8,-1
 377 294 l 2,9,10
 369 257 369 257 369 229 c 0,11,12
 369 153 369 153 422 118 c 0,13,14
 494 70 494 70 610 70 c 128,-1,15
 726 70 726 70 820 118 c 0,16,17
 915 167 915 167 942 294 c 2,18,-1
 1015 637 l 2,19,20
 1022 670 1022 670 1022 699 c 0,21,22
 1022 776 1022 776 968 812 c 0,23,24
 894 860 894 860 775 861 c 0,25,26
 714 861 714 861 662 850 c 1,27,-1
 646 877 l 1,28,-1
 1048 1420 l 1,29,-1
 515 1420 l 1,30,-1
 517 1430 l 1,31,-1
 572 1510 l 1,32,-1
 1337 1510 l 1,33,-1
 904 944 l 1,34,35
 1030 926 1030 926 1124 855 c 128,-1,36
 1218 784 1218 784 1218 650 c 0,37,38
 1218 605 1218 605 1206 547 c 2,39,-1
 1172 384 l 2,40,41
 1125 160 1125 160 979 76 c 0,42,43
 810 -20 810 -20 610 -20 c 0,0,1
EndSplineSet
Validated: 1
EndChar

StartChar: four
Encoding: 52 52 23
Width: 1232
GlyphClass: 2
Flags: W
HStem: -20 21G<778 834.444> 340 90<277 854 1073 1166> 1510 20G<1250.56 1307>
DStem2: 84 350 277 430 0.677495 0.735527<189.599 1333.24> 778 -20 977.87 -20 0.207912 0.978148<133.566 367.934 501.5 1319.76>
LayerCount: 2
Fore
SplineSet
277 430 m 1,0,-1
 873 430 l 1,1,-1
 1052 1271 l 1,2,-1
 277 430 l 1,0,-1
778 -20 m 1,3,-1
 854 340 l 1,4,-1
 82 340 l 1,5,-1
 84 350 l 1,6,-1
 1088 1440 l 1,7,-1
 1297 1530 l 1,8,-1
 1307 1530 l 1,9,-1
 1073 430 l 1,10,-1
 1223 430 l 1,11,-1
 1221 420 l 1,12,-1
 1166 340 l 1,13,-1
 1054 340 l 1,14,-1
 997 70 l 1,15,-1
 788 -20 l 1,16,-1
 778 -20 l 1,3,-1
EndSplineSet
Validated: 1
EndChar

StartChar: five
Encoding: 53 53 24
Width: 1210
GlyphClass: 2
Flags: W
HStem: -20 90<427.941 812.445> 860 91<588.569 962.665> 1420 90<818 1286>
VStem: 180 189<126.445 368.461> 1022 195<460.273 797.095>
DStem2: 370 889 586 925 0.411036 0.911619<121.602 668.214> 875.257 -20 1086.13 -20 0.207912 0.978148<226.097 719.195>
LayerCount: 2
Fore
SplineSet
610 -20 m 0,0,1
 402 -20 402 -20 273 76 c 0,2,3
 180 145 180 145 180 294 c 0,4,5
 180 326 180 326 186 361 c 1,6,-1
 402 455 l 1,7,-1
 412 455 l 1,8,-1
 377 294 l 2,9,10
 369 257 369 257 369 229 c 0,11,12
 369 152 369 152 422 118 c 0,13,14
 494 70 494 70 610 70 c 128,-1,15
 726 70 726 70 820 118 c 0,16,17
 915 167 915 167 942 294 c 2,18,-1
 1015 637 l 2,19,20
 1022 670 1022 670 1022 699 c 0,21,22
 1022 776 1022 776 968 812 c 0,23,24
 894 860 894 860 774.5 860 c 128,-1,25
 655 860 655 860 530 802 c 1,26,-1
 370 889 l 1,27,-1
 650 1510 l 1,28,-1
 1343 1510 l 1,29,-1
 1341 1500 l 1,30,-1
 1286 1420 l 1,31,-1
 818 1420 l 1,32,-1
 586 925 l 1,33,34
 677 951 677 951 776 951 c 0,35,36
 979 951 979 951 1114 855 c 0,37,38
 1217 782 1217 782 1217 644 c 0,39,40
 1217 600 1217 600 1206 547 c 2,41,-1
 1172 384 l 2,42,43
 1125 160 1125 160 979 76 c 0,44,45
 810 -20 810 -20 610 -20 c 0,0,1
EndSplineSet
Validated: 1
EndChar

StartChar: six
Encoding: 54 54 25
Width: 1280
GlyphClass: 2
Flags: W
HStem: -20 90<481.199 870.277> 878 90<634.48 1024.72> 1440 90<755.035 1143.2>
VStem: 231 185<133.299 356.18> 1086 195<591.82 810.818> 1202 193<1162.32 1386>
DStem2: 156.127 -20 356.257 -20 0.207912 0.978148<316.288 885.321 963.764 1403.19> 936.257 -20 1146.13 -20 0.207912 0.978148<225.86 733.573 1235.57 1326.01>
LayerCount: 2
Fore
SplineSet
670 -20 m 128,-1,1
 469 -20 469 -20 333 76 c 0,2,3
 231 148 231 148 231 286 c 0,4,5
 231 332 231 332 242 384 c 2,6,-1
 399 1126 l 2,7,8
 447 1352 447 1352 591 1434 c 0,9,10
 759 1530 759 1530 960 1530 c 0,11,12
 1159 1530 1159 1530 1299 1447 c 0,13,14
 1395 1390 1395 1390 1395 1244 c 0,15,16
 1395 1200 1395 1200 1384 1148 c 1,17,-1
 1169 1055 l 1,18,-1
 1159 1055 l 1,19,-1
 1194 1216 l 2,20,21
 1202 1253 1202 1253 1202 1280 c 0,22,23
 1202 1356 1202 1356 1149 1392 c 0,24,25
 1077 1440 1077 1440 960.5 1440 c 128,-1,26
 844 1440 844 1440 745 1392 c 128,-1,27
 646 1344 646 1344 619 1216 c 2,28,-1
 548 882 l 1,29,30
 682 968 682 968 840 968 c 0,31,32
 1051 968 1051 968 1177 872 c 0,33,34
 1281 793 1281 793 1281 658 c 0,35,36
 1281 616 1281 616 1270 564 c 2,37,-1
 1232 384 l 2,38,39
 1184 159 1184 159 1039 76 c 0,40,0
 871 -20 871 -20 670 -20 c 128,-1,1
841.5 878 m 128,-1,42
 725 878 725 878 625.5 829.5 c 128,-1,43
 526 781 526 781 499 654 c 2,44,-1
 423 294 l 2,45,46
 416 261 416 261 416 234 c 0,47,48
 416 155 416 155 475 118 c 0,49,50
 553 70 553 70 669.5 70 c 128,-1,51
 786 70 786 70 881 118.5 c 128,-1,52
 976 167 976 167 1003 294 c 2,53,-1
 1079 654 l 2,54,55
 1086 688 1086 688 1086 716 c 0,56,57
 1086 794 1086 794 1032 830 c 0,58,41
 958 878 958 878 841.5 878 c 128,-1,42
EndSplineSet
Validated: 1
EndChar

StartChar: seven
Encoding: 55 55 26
Width: 967
GlyphClass: 2
Flags: W
HStem: -20 21G<158 214.333> 1420 90<369 1022>
DStem2: 158 -20 446 100 0.514496 0.857493<251.074 1679.31>
LayerCount: 2
Fore
SplineSet
158 -20 m 1,0,-1
 1022 1420 l 1,1,-1
 312 1420 l 1,2,-1
 314 1430 l 1,3,-1
 369 1510 l 1,4,-1
 1278 1510 l 1,5,-1
 1276 1500 l 1,6,-1
 446 100 l 1,7,-1
 168 -20 l 1,8,-1
 158 -20 l 1,0,-1
EndSplineSet
Validated: 1
EndChar

StartChar: eight
Encoding: 56 56 27
Width: 1210
GlyphClass: 2
Flags: W
HStem: -20 90<433.427 825.816> 791 90<641.698 960.591> 1440 90<736.057 1062.14>
VStem: 172 193<136.281 468.492> 412 188<922.945 1122.48> 1028 204<391.977 731.997> 1103 179<1198.52 1397.06>
DStem2: 95.7943 -20 306.229 -20 0.207912 0.978148<321.365 762.843> 185.338 -20 375.801 -20 0.207912 0.978148<1096.37 1452.45> 825.801 -20 1015.34 -20 0.207912 0.978148<995.918 1355.91> 895.257 -20 1105.93 -20 0.207912 0.978148<220.046 658.655>
LayerCount: 2
Fore
SplineSet
768 791 m 152,-1,1
 646 791 646 791 548 743 c 0,2,3
 459 699 459 699 431 567 c 2,4,-1
 372 294 l 2,5,6
 365 262 365 262 365 234 c 0,7,8
 365 153 365 153 425 118 c 0,9,10
 506 70 506 70 620 70 c 152,-1,11
 734 70 734 70 835 118 c 0,12,13
 935 166 935 166 962 294 c 2,14,-1
 1021 567 l 2,15,16
 1028 599 1028 599 1028 626 c 0,17,18
 1028 706 1028 706 968 743 c 0,19,0
 890 791 890 791 768 791 c 152,-1,1
621 -20 m 24,20,21
 399 -20 399 -20 274 76 c 0,22,23
 172 155 172 155 172 291 c 0,24,25
 172 334 172 334 182 384 c 2,26,-1
 211 522 l 2,27,28
 265 779 265 779 504 851 c 1,29,30
 412 904 412 904 412 1014 c 0,31,32
 412 1047 412 1047 420 1084 c 2,33,-1
 448 1215 l 2,34,35
 483 1380 483 1380 599 1448 c 0,36,37
 738 1530 738 1530 910 1530 c 152,-1,38
 1082 1530 1082 1530 1196 1448 c 0,39,40
 1282 1386 1282 1386 1282 1272 c 0,41,42
 1282 1235 1282 1235 1273 1192 c 2,43,-1
 1250 1084 l 2,44,45
 1214 917 1214 917 1068 851 c 1,46,47
 1232 791 1232 791 1232 619 c 0,48,49
 1232 574 1232 574 1221 522 c 2,50,-1
 1185 352 l 2,51,52
 1144 159 1144 159 998 76 c 0,53,54
 831 -20 831 -20 621 -20 c 24,20,21
792 881 m 128,-1,56
 890 881 890 881 962.5 922.5 c 128,-1,57
 1035 964 1035 964 1056 1063 c 2,58,-1
 1097 1258 l 2,59,60
 1103 1285 1103 1285 1103 1308 c 0,61,62
 1103 1368 1103 1368 1063 1398 c 0,63,64
 1008 1440 1008 1440 910 1440 c 152,-1,65
 812 1440 812 1440 740 1398.5 c 128,-1,66
 668 1357 668 1357 647 1258 c 2,67,-1
 606 1063 l 2,68,69
 600 1035 600 1035 600 1012 c 0,70,71
 600 952 600 952 640 922 c 0,72,55
 694 881 694 881 792 881 c 128,-1,56
EndSplineSet
Validated: 1
EndChar

StartChar: nine
Encoding: 57 57 28
Width: 1280
GlyphClass: 2
Flags: W
HStem: -20 90<457.924 846.075> 542 90<576.284 966.52> 1440 90<730.606 1119.68>
VStem: 206 193<124.001 347.677> 320 195<699.182 918.18> 1185 185<1040.42 1377.37>
DStem2: 125.67 -20 335.8 -20 0.207912 0.978148<302.193 392.641 894.635 1402.35> 915.257 -20 1116.13 -20 0.207912 0.978148<223.047 662.478 740.921 1309.95>
LayerCount: 2
Fore
SplineSet
642 -20 m 128,-1,1
 442 -20 442 -20 302 63 c 0,2,3
 206 120 206 120 206 266 c 0,4,5
 206 310 206 310 217 362 c 1,6,-1
 432 455 l 1,7,-1
 442 455 l 1,8,-1
 407 294 l 2,9,10
 399 257 399 257 399 230 c 0,11,12
 399 154 399 154 452 118 c 0,13,14
 524 70 524 70 640.5 70 c 128,-1,15
 757 70 757 70 856 118 c 128,-1,16
 955 166 955 166 982 294 c 2,17,-1
 1053 628 l 1,18,19
 919 542 919 542 761 542 c 0,20,21
 550 542 550 542 424 638 c 0,22,23
 320 717 320 717 320 852 c 0,24,25
 320 894 320 894 331 946 c 2,26,-1
 369 1126 l 2,27,28
 417 1351 417 1351 562 1434 c 0,29,30
 730 1530 730 1530 930 1530 c 0,31,32
 1132 1530 1132 1530 1268 1434 c 0,33,34
 1370 1362 1370 1362 1370 1224 c 0,35,36
 1370 1178 1370 1178 1359 1126 c 2,37,-1
 1202 384 l 2,38,39
 1154 158 1154 158 1010 76 c 0,40,0
 842 -20 842 -20 642 -20 c 128,-1,1
759.5 632 m 128,-1,42
 876 632 876 632 975.5 680.5 c 128,-1,43
 1075 729 1075 729 1102 856 c 2,44,-1
 1178 1216 l 2,45,46
 1185 1249 1185 1249 1185 1276 c 0,47,48
 1185 1355 1185 1355 1126 1392 c 0,49,50
 1048 1440 1048 1440 931.5 1440 c 128,-1,51
 815 1440 815 1440 720 1391.5 c 128,-1,52
 625 1343 625 1343 598 1216 c 2,53,-1
 522 856 l 2,54,55
 515 822 515 822 515 794 c 0,56,57
 515 716 515 716 569 680 c 0,58,41
 643 632 643 632 759.5 632 c 128,-1,42
EndSplineSet
Validated: 1
EndChar

StartChar: colon
Encoding: 58 58 29
Width: 340
GlyphClass: 2
Flags: W
HStem: -20 245<116.711 267.42> 632 245<254.711 405.42>
VStem: 69 246<27.5918 176.764> 207 246<679.592 828.764>
LayerCount: 2
Fore
SplineSet
356 877 m 0,0,1
 408 877 408 877 434 841 c 0,2,3
 453 816 453 816 453 782 c 0,4,5
 453 768 453 768 450 754 c 0,6,7
 439 704 439 704 396.5 668 c 128,-1,8
 354 632 354 632 304 632 c 128,-1,9
 254 632 254 632 226 668 c 0,10,11
 207 693 207 693 207 727 c 0,12,13
 207 740 207 740 210 754 c 0,14,15
 221 804 221 804 263.5 840.5 c 128,-1,16
 306 877 306 877 356 877 c 0,0,1
166 -20 m 128,-1,18
 116 -20 116 -20 88 16 c 0,19,20
 69 41 69 41 69 75 c 0,21,22
 69 88 69 88 72 102 c 0,23,24
 83 152 83 152 125.5 188.5 c 128,-1,25
 168 225 168 225 218 225 c 0,26,27
 270 225 270 225 296 189 c 0,28,29
 315 163 315 163 315 130 c 0,30,31
 315 116 315 116 312 102 c 0,32,33
 301 52 301 52 258.5 16 c 128,-1,17
 216 -20 216 -20 166 -20 c 128,-1,18
EndSplineSet
Validated: 1
EndChar

StartChar: semicolon
Encoding: 59 59 30
Width: 389
GlyphClass: 2
Flags: W
HStem: 632 245<274.711 425.42>
VStem: 187 166<-64.7295 154.218> 227 246<679.592 828.764>
LayerCount: 2
Fore
SplineSet
376 877 m 0,0,1
 428 877 428 877 454 841 c 0,2,3
 473 816 473 816 473 782 c 0,4,5
 473 768 473 768 470 754 c 0,6,7
 459 704 459 704 416.5 668 c 128,-1,8
 374 632 374 632 324 632 c 128,-1,9
 274 632 274 632 246 668 c 0,10,11
 227 693 227 693 227 727 c 0,12,13
 227 740 227 740 230 754 c 0,14,15
 241 804 241 804 283.5 840.5 c 128,-1,16
 326 877 326 877 376 877 c 0,0,1
279 278 m 1,17,-1
 289 278 l 1,18,19
 353 198 353 198 353 101 c 0,20,21
 353 68 353 68 346 34 c 0,22,23
 304 -163 304 -163 55 -276 c 1,24,-1
 50 -269 l 1,25,26
 155 -139 155 -139 182 -10 c 0,27,28
 187 14 187 14 187 37 c 0,29,30
 187 134 187 134 92 198 c 1,31,-1
 279 278 l 1,17,-1
EndSplineSet
Validated: 1
EndChar

StartChar: less
Encoding: 60 60 31
Width: 1315
GlyphClass: 2
Flags: W
DStem2: 484 774 295 680 0.933865 -0.357626<0 749.109> 392 830 484 774 0.945706 0.325023<68.8037 977.047>
LayerCount: 2
Fore
SplineSet
392 830 m 1,0,-1
 1326 1151 l 1,1,-1
 1345 1079 l 1,2,-1
 1343 1069 l 1,3,-1
 484 774 l 1,4,-1
 1222 505 l 1,5,-1
 1220 495 l 1,6,-1
 1128 361 l 1,7,-1
 295 680 l 1,8,-1
 297 690 l 1,9,-1
 392 830 l 1,0,-1
EndSplineSet
Validated: 1
EndChar

StartChar: equal
Encoding: 61 61 32
Width: 1200
GlyphClass: 2
Flags: W
HStem: 480 150<350 1086> 880 150<435 1171>
LayerCount: 2
Fore
SplineSet
435 1030 m 1,0,-1
 1269 1030 l 1,1,-1
 1267 1020 l 1,2,-1
 1171 880 l 1,3,-1
 337 880 l 1,4,-1
 339 890 l 1,5,-1
 435 1030 l 1,0,-1
350 630 m 1,6,-1
 1184 630 l 1,7,-1
 1182 620 l 1,8,-1
 1086 480 l 1,9,-1
 252 480 l 1,10,-1
 254 490 l 1,11,-1
 350 630 l 1,6,-1
EndSplineSet
Validated: 1
EndChar

StartChar: greater
Encoding: 62 62 33
Width: 1315
GlyphClass: 2
Flags: W
DStem2: 293 441 310 359 0.945706 0.325023<0 908.243> 508 1149 414 1005 0.933865 -0.357626<0 749.109>
LayerCount: 2
Fore
SplineSet
1244 680 m 1,0,-1
 310 359 l 1,1,-1
 291 431 l 1,2,-1
 293 441 l 1,3,-1
 1152 736 l 1,4,-1
 414 1005 l 1,5,-1
 416 1015 l 1,6,-1
 508 1149 l 1,7,-1
 1341 830 l 1,8,-1
 1339 820 l 1,9,-1
 1244 680 l 1,0,-1
EndSplineSet
Validated: 1
EndChar

StartChar: question
Encoding: 63 63 34
Width: 1310
GlyphClass: 2
Flags: W
HStem: -20 245<581.901 732.42> 1440 90<743.153 1152.85>
VStem: 534 246<27.5918 176.764> 1215 195<1041.75 1376.86>
DStem2: 945.888 -20 1155.31 -20 0.207912 0.978148<964.155 1311.93>
LayerCount: 2
Fore
SplineSet
960 1530 m 128,-1,1
 1170 1530 1170 1530 1307 1434 c 0,2,3
 1410 1362 1410 1362 1410 1224 c 0,4,5
 1410 1179 1410 1179 1399 1126 c 2,6,-1
 1387 1070 l 2,7,8
 1329 799 1329 799 966 636 c 0,9,10
 866 591 866 591 838 454 c 1,11,-1
 625 361 l 1,12,-1
 615 361 l 1,13,14
 664 593 664 593 896 698 c 0,15,16
 1121 800 1121 800 1178 1072 c 2,17,-1
 1208 1216 l 2,18,19
 1215 1250 1215 1250 1215 1278 c 0,20,21
 1215 1356 1215 1356 1161 1392 c 0,22,23
 1087 1440 1087 1440 960.5 1440 c 128,-1,24
 834 1440 834 1440 734 1392 c 0,25,26
 634 1343 634 1343 608 1216 c 2,27,-1
 589 1126 l 1,28,-1
 380 1036 l 1,29,-1
 370 1036 l 1,30,-1
 389 1126 l 2,31,32
 436 1351 436 1351 582 1434 c 0,33,0
 750 1530 750 1530 960 1530 c 128,-1,1
631 -20 m 0,34,35
 579 -20 579 -20 553 16 c 0,36,37
 534 42 534 42 534 75 c 0,38,39
 534 88 534 88 537 102 c 0,40,41
 548 152 548 152 590.5 188.5 c 128,-1,42
 633 225 633 225 683 225 c 128,-1,43
 733 225 733 225 761 189 c 0,44,45
 780 165 780 165 780 130 c 0,46,47
 780 116 780 116 777 102 c 0,48,49
 766 52 766 52 723.5 16 c 128,-1,50
 681 -20 681 -20 631 -20 c 0,34,35
EndSplineSet
Validated: 1
EndChar

StartChar: at
Encoding: 64 64 35
Width: 1380
GlyphClass: 2
Flags: W
HStem: -430 80<404.5 594> -20 80<809.098 1006> 602 80<906.75 1148> 1040 80<680.141 1121.58>
VStem: 161 165<-291.083 47.0938> 593 167<102.976 301.344> 1197 166<684.906 966.515>
DStem2: 88.1271 -430 268.383 -430 0.207912 0.978148<303.31 1403> 443.008 -430 622.162 -430 0.207912 0.978148<681.869 1004.79> 928.847 -430 1108.72 -430 0.207912 0.978148<548.568 1055.01 1136.18 1305.7>
LayerCount: 2
Fore
SplineSet
1006 -20 m 1,0,-1
 950 -20 l 2,1,2
 773 -20 773 -20 669 62 c 0,3,4
 593 122 593 122 593 234 c 0,5,6
 593 273 593 273 602 318 c 2,7,-1
 612 369 l 2,8,9
 643 529 643 529 764 600 c 0,10,11
 902 682 902 682 1059 682 c 2,12,-1
 1162 682 l 1,13,-1
 1190 816 l 2,14,15
 1197 849 1197 849 1197 876 c 0,16,17
 1197 955 1197 955 1138 992 c 0,18,19
 1060 1040 1060 1040 910 1040 c 128,-1,20
 760 1040 760 1040 660 991.5 c 128,-1,21
 560 943 560 943 533 816 c 2,22,-1
 333 -126 l 2,23,24
 326 -160 326 -160 326 -188 c 0,25,26
 326 -270 326 -270 386 -302 c 0,27,28
 477 -350 477 -350 611 -350 c 2,29,-1
 644 -350 l 1,30,-1
 641 -360 l 1,31,-1
 594 -430 l 1,32,33
 384 -430 384 -430 256 -340 c 0,34,35
 161 -273 161 -273 161 -137 c 0,36,37
 161 -86 161 -86 174 -26 c 2,38,-1
 332 716 l 2,39,40
 380 941 380 941 525 1024 c 0,41,42
 693 1120 693 1120 908.5 1120 c 128,-1,43
 1124 1120 1124 1120 1260 1024 c 0,44,45
 1363 952 1363 952 1363 814 c 0,46,47
 1363 769 1363 769 1352 716 c 2,48,-1
 1215 70 l 1,49,-1
 1006 -20 l 1,0,-1
1033 60 m 1,50,-1
 1148 602 l 1,51,-1
 1064 602 l 2,52,53
 978 602 978 602 901 560 c 0,54,55
 824 519 824 519 803 420 c 2,56,-1
 765 242 l 2,57,58
 760 216 760 216 760 195 c 0,59,60
 760 133 760 133 804 102 c 0,61,62
 863 60 863 60 949 60 c 2,63,-1
 1033 60 l 1,50,-1
EndSplineSet
Validated: 1
EndChar

StartChar: A
Encoding: 65 65 36
Width: 1370
GlyphClass: 2
Flags: W
HStem: -20 21G<176 232.444 986 1042.44> 710 90<550 1141> 1440 90<773.653 1188.5>
VStem: 1255 185<1153.22 1376.7>
DStem2: 176 -20 375.87 -20 0.207912 0.978148<133.566 787.856 879.84 1402.82> 986 -20 1185.87 -20 0.207912 0.978148<133.566 746.274 838.258 1309.83>
LayerCount: 2
Fore
SplineSet
186 -20 m 1,0,-1
 176 -20 l 1,1,-1
 419 1126 l 2,2,3
 467 1351 467 1351 612 1434 c 0,4,5
 780 1530 780 1530 990 1530 c 0,6,7
 1202 1530 1202 1530 1338 1434 c 0,8,9
 1440 1362 1440 1362 1440 1224 c 0,10,11
 1440 1179 1440 1179 1429 1126 c 2,12,-1
 1205 70 l 1,13,-1
 996 -20 l 1,14,-1
 986 -20 l 1,15,-1
 1141 710 l 1,16,-1
 531 710 l 1,17,-1
 395 70 l 1,18,-1
 186 -20 l 1,0,-1
550 800 m 1,19,-1
 1160 800 l 1,20,-1
 1248 1216 l 2,21,22
 1255 1249 1255 1249 1255 1276 c 0,23,24
 1255 1356 1255 1356 1196 1392 c 0,25,26
 1118 1440 1118 1440 991.5 1440 c 128,-1,27
 865 1440 865 1440 765 1391.5 c 128,-1,28
 665 1343 665 1343 638 1216 c 2,29,-1
 550 800 l 1,19,-1
EndSplineSet
Validated: 1
EndChar

StartChar: B
Encoding: 66 66 37
Width: 1250
GlyphClass: 2
Flags: W
HStem: 0 90<419 874.25> 791 90<587 1005.58> 1420 90<702 1098.12>
VStem: 1073 208<389.623 730.512> 1143 184<1052.21 1377.46>
DStem2: 200 0 399.87 0 0.207912 0.978148<133.566 850.226 942.21 1472.15> 875.052 0 1069.59 0 0.207912 0.978148<976.511 1305.92> 945.257 0 1160.13 0 0.207912 0.978148<228.308 638.053>
LayerCount: 2
Fore
SplineSet
419 90 m 1,0,-1
 659 90 l 2,1,2
 783 90 783 90 884 138 c 0,3,4
 984 186 984 186 1012 314 c 2,5,-1
 1066 567 l 2,6,7
 1073 599 1073 599 1073 626 c 0,8,9
 1073 706 1073 706 1013 743 c 0,10,11
 935 791 935 791 808 791 c 2,12,-1
 568 791 l 1,13,-1
 419 90 l 1,0,-1
587 881 m 1,14,-1
 827 881 l 2,15,16
 925 881 925 881 1002.5 922.5 c 128,-1,17
 1080 964 1080 964 1101 1063 c 2,18,-1
 1138 1238 l 2,19,20
 1143 1264 1143 1264 1143 1286 c 0,21,22
 1143 1349 1143 1349 1100 1378 c 0,23,24
 1040 1420 1040 1420 942 1420 c 2,25,-1
 702 1420 l 1,26,-1
 587 881 l 1,14,-1
200 0 m 1,27,-1
 506 1440 l 1,28,-1
 669 1510 l 1,29,-1
 956 1510 l 2,30,31
 1127 1510 1127 1510 1232 1428 c 0,32,33
 1327 1354 1327 1354 1327 1240 c 0,34,35
 1327 1209 1327 1209 1319 1172 c 2,36,-1
 1300 1084 l 2,37,38
 1264 917 1264 917 1118 851 c 1,39,40
 1281 793 1281 793 1281 609 c 0,41,42
 1281 569 1281 569 1271 522 c 2,43,-1
 1246 404 l 2,44,45
 1198 180 1198 180 1052 96 c 0,46,47
 885 0 885 0 675 0 c 2,48,-1
 200 0 l 1,27,-1
EndSplineSet
Validated: 1
EndChar

StartChar: C
Encoding: 67 67 38
Width: 1250
GlyphClass: 2
Flags: W
HStem: -20 90<488.213 888.289> 1440 90<758.852 1161.38>
VStem: 231 194<133.299 359.112> 1220 191<1141.54 1383.14>
DStem2: 156.127 -20 365.257 -20 0.207912 0.978148<316.288 1402.8>
LayerCount: 2
Fore
SplineSet
681.5 -20 m 128,-1,1
 471 -20 471 -20 334 76 c 0,2,3
 231 148 231 148 231 286 c 0,4,5
 231 332 231 332 242 384 c 2,6,-1
 399 1126 l 2,7,8
 447 1351 447 1351 592 1434 c 0,9,10
 760 1530 760 1530 970 1530 c 0,11,12
 1188 1530 1188 1530 1318 1434 c 0,13,14
 1411 1364 1411 1364 1411 1216 c 0,15,16
 1411 1184 1411 1184 1405 1149 c 1,17,-1
 1189 1055 l 1,18,-1
 1179 1055 l 1,19,-1
 1213 1216 l 2,20,21
 1220 1249 1220 1249 1220 1280 c 0,22,23
 1220 1356 1220 1356 1169 1392 c 0,24,25
 1098 1440 1098 1440 971.5 1440 c 128,-1,26
 845 1440 845 1440 750 1391.5 c 128,-1,27
 655 1343 655 1343 628 1216 c 2,28,-1
 432 294 l 2,29,30
 425 261 425 261 425 232 c 0,31,32
 426 153 426 153 480 118 c 0,33,34
 554 70 554 70 680 70 c 128,-1,35
 806 70 806 70 898 118 c 0,36,37
 989 165 989 165 1017 294 c 2,38,-1
 1035 377 l 1,39,-1
 1261 474 l 1,40,-1
 1271 474 l 1,41,-1
 1252 384 l 2,42,43
 1204 159 1204 159 1060 76 c 0,44,0
 892 -20 892 -20 681.5 -20 c 128,-1,1
EndSplineSet
Validated: 1
EndChar

StartChar: D
Encoding: 68 68 39
Width: 1350
GlyphClass: 2
Flags: W
HStem: 0 90<419 909.749> 1420 90<702 1174>
VStem: 1241 194<1017.55 1343.22>
DStem2: 200 0 399.87 0 0.207912 0.978148<133.566 1472.15> 980.257 0 1190.13 0 0.207912 0.978148<225.816 1258.3>
LayerCount: 2
Fore
SplineSet
419 90 m 1,0,-1
 694 90 l 2,1,2
 821 90 821 90 919 138 c 0,3,4
 1019 186 1019 186 1047 314 c 2,5,-1
 1234 1196 l 2,6,7
 1241 1229 1241 1229 1241 1256 c 0,8,9
 1241 1336 1241 1336 1182 1372 c 0,10,11
 1104 1420 1104 1420 977 1420 c 2,12,-1
 702 1420 l 1,13,-1
 419 90 l 1,0,-1
200 0 m 1,14,-1
 506 1440 l 1,15,-1
 669 1510 l 1,16,-1
 986 1510 l 2,17,18
 1194 1510 1194 1510 1322 1414 c 0,19,20
 1435 1329 1435 1329 1435 1191 c 0,21,22
 1435 1151 1435 1151 1425 1106 c 2,23,-1
 1276 404 l 2,24,25
 1229 180 1229 180 1082 96 c 0,26,27
 915 0 915 0 705 0 c 2,28,-1
 200 0 l 1,14,-1
EndSplineSet
Validated: 1
EndChar

StartChar: E
Encoding: 69 69 40
Width: 1060
GlyphClass: 2
Flags: W
HStem: 0 90<419 972> 710 90<570 1073> 1420 90<702 1224>
DStem2: 200 0 399.87 0 0.207912 0.978148<133.566 767.462 859.445 1472.15>
CounterMasks: 1 e0
LayerCount: 2
Fore
SplineSet
200 0 m 1,0,-1
 506 1440 l 1,1,-1
 669 1510 l 1,2,-1
 1281 1510 l 1,3,-1
 1279 1500 l 1,4,-1
 1224 1420 l 1,5,-1
 702 1420 l 1,6,-1
 570 800 l 1,7,-1
 1130 800 l 1,8,-1
 1128 790 l 1,9,-1
 1073 710 l 1,10,-1
 551 710 l 1,11,-1
 419 90 l 1,12,-1
 1029 90 l 1,13,-1
 1027 80 l 1,14,-1
 972 0 l 1,15,-1
 200 0 l 1,0,-1
EndSplineSet
Validated: 1
EndChar

StartChar: F
Encoding: 70 70 41
Width: 1010
GlyphClass: 2
Flags: W
HStem: -20 21G<196 252.444> 710 90<570 1073> 1420 90<702 1224>
DStem2: 196 -20 395.87 -20 0.207912 0.978148<133.566 787.856 879.84 1492.55>
LayerCount: 2
Fore
SplineSet
196 -20 m 1,0,-1
 506 1440 l 1,1,-1
 669 1510 l 1,2,-1
 1281 1510 l 1,3,-1
 1279 1500 l 1,4,-1
 1224 1420 l 1,5,-1
 702 1420 l 1,6,-1
 570 800 l 1,7,-1
 1130 800 l 1,8,-1
 1128 790 l 1,9,-1
 1073 710 l 1,10,-1
 551 710 l 1,11,-1
 415 70 l 1,12,-1
 206 -20 l 1,13,-1
 196 -20 l 1,0,-1
EndSplineSet
Validated: 1
EndChar

StartChar: G
Encoding: 71 71 42
Width: 1330
GlyphClass: 2
Flags: W
HStem: -20 90<488.214 897.841> 710 90<830 1121> 1440 90<757.753 1162.86>
VStem: 231 194<133.299 359.112> 1220 191<1141.54 1383.76>
DStem2: 156.127 -20 365.257 -20 0.207912 0.978148<316.288 1402.8> 965.257 -20 1166.13 -20 0.207912 0.978148<223.519 746.428>
CounterMasks: 1 e0
LayerCount: 2
Fore
SplineSet
681.5 -20 m 128,-1,1
 471 -20 471 -20 334 76 c 0,2,3
 231 148 231 148 231 286 c 0,4,5
 231 332 231 332 242 384 c 2,6,-1
 399 1126 l 2,7,8
 447 1351 447 1351 592 1434 c 0,9,10
 760 1530 760 1530 960 1530 c 0,11,12
 1188 1530 1188 1530 1318 1434 c 0,13,14
 1411 1366 1411 1366 1411 1216 c 0,15,16
 1411 1184 1411 1184 1405 1149 c 1,17,-1
 1189 1055 l 1,18,-1
 1179 1055 l 1,19,-1
 1213 1216 l 2,20,21
 1220 1249 1220 1249 1220 1280 c 0,22,23
 1220 1358 1220 1358 1169 1392 c 0,24,25
 1098 1440 1098 1440 971.5 1440 c 128,-1,26
 845 1440 845 1440 750 1392 c 0,27,28
 655 1343 655 1343 628 1216 c 2,29,-1
 432 294 l 2,30,31
 425 261 425 261 425 232 c 0,32,33
 425 154 425 154 480 118 c 0,34,35
 554 70 554 70 680.5 70 c 128,-1,36
 807 70 807 70 906 118 c 0,37,38
 1005 167 1005 167 1032 294 c 2,39,-1
 1121 710 l 1,40,-1
 773 710 l 1,41,-1
 775 720 l 1,42,-1
 830 800 l 1,43,-1
 1340 800 l 1,44,-1
 1252 384 l 2,45,46
 1204 159 1204 159 1060 76 c 0,47,0
 892 -20 892 -20 681.5 -20 c 128,-1,1
EndSplineSet
Validated: 1
EndChar

StartChar: H
Encoding: 72 72 43
Width: 1400
GlyphClass: 2
Flags: W
HStem: -20 21G<196 252.444 996 1052.44> 710 90<570 1151> 1510 20G<668.556 725 1468.56 1525>
DStem2: 196 -20 395.87 -20 0.207912 0.978148<133.566 787.856 879.84 1492.55> 996 -20 1195.87 -20 0.207912 0.978148<133.566 746.274 838.258 1492.55>
LayerCount: 2
Fore
SplineSet
196 -20 m 1,0,-1
 506 1440 l 1,1,-1
 715 1530 l 1,2,-1
 725 1530 l 1,3,-1
 570 800 l 1,4,-1
 1170 800 l 1,5,-1
 1306 1440 l 1,6,-1
 1515 1530 l 1,7,-1
 1525 1530 l 1,8,-1
 1215 70 l 1,9,-1
 1006 -20 l 1,10,-1
 996 -20 l 1,11,-1
 1151 710 l 1,12,-1
 551 710 l 1,13,-1
 415 70 l 1,14,-1
 206 -20 l 1,15,-1
 196 -20 l 1,0,-1
EndSplineSet
Validated: 1
EndChar

StartChar: I
Encoding: 73 73 44
Width: 600
GlyphClass: 2
Flags: W
HStem: -20 21G<196 252.444> 1510 20G<668.556 725>
VStem: 196 529
DStem2: 196 -20 395.87 -20 0.207912 0.978148<133.566 1492.55>
LayerCount: 2
Fore
SplineSet
196 -20 m 1,0,-1
 506 1440 l 1,1,-1
 715 1530 l 1,2,-1
 725 1530 l 1,3,-1
 415 70 l 1,4,-1
 206 -20 l 1,5,-1
 196 -20 l 1,0,-1
EndSplineSet
Validated: 1
EndChar

StartChar: J
Encoding: 74 74 45
Width: 1150
GlyphClass: 2
Flags: W
HStem: -20 90<336.173 716.054> 1420 90<484 1092>
VStem: 90 188<125.63 370.703>
DStem2: 785.257 -20 986.127 -20 0.207912 0.978148<223.373 1472.31>
LayerCount: 2
Fore
SplineSet
517 -20 m 0,0,1
 311 -20 311 -20 182 76 c 0,2,3
 90 144 90 144 90 294 c 0,4,5
 90 327 90 327 96 363 c 1,6,-1
 311 455 l 1,7,-1
 321 455 l 1,8,-1
 286 294 l 2,9,10
 278 257 278 257 278 229 c 0,11,12
 278 152 278 152 330 118 c 0,13,14
 402 70 402 70 516 70 c 0,15,16
 626 70 626 70 726 119 c 0,17,18
 825 167 825 167 852 294 c 2,19,-1
 1092 1420 l 17,20,-1
 427 1420 l 1,21,-1
 429 1430 l 1,22,-1
 484 1510 l 1,23,-1
 1311 1510 l 1,24,-1
 1072 384 l 2,25,26
 1024 159 1024 159 878 76 c 0,27,28
 711 -20 711 -20 517 -20 c 0,0,1
EndSplineSet
Validated: 1
EndChar

StartChar: K
Encoding: 75 75 46
Width: 1350
GlyphClass: 2
Flags: W
HStem: -20 21G<196 252.444 986 1042.44> 952 93<879.678 1084.29> 1510 20G<668.556 725 1353.84 1428.92>
VStem: 1152 184<664.315 884.813>
DStem2: 196 -20 395.87 -20 0.207912 0.978148<133.566 961.729 1040.27 1492.55> 603 957 877 1045 0.805186 0.593023<272.807 966.237> 986 -20 1185.87 -20 0.207912 0.978148<133.566 805.034>
LayerCount: 2
Fore
SplineSet
206 -20 m 1,0,-1
 196 -20 l 1,1,-1
 506 1440 l 1,2,-1
 715 1530 l 1,3,-1
 725 1530 l 1,4,-1
 603 957 l 1,5,-1
 1381 1530 l 1,6,-1
 1391 1530 l 1,7,-1
 1482 1482 l 1,8,-1
 877 1045 l 1,9,-1
 902 1045 l 2,10,11
 1111 1045 1111 1045 1234 947 c 0,12,13
 1336 866 1336 866 1336 730 c 0,14,15
 1336 686 1336 686 1326 639 c 2,16,-1
 1205 70 l 1,17,-1
 996 -20 l 1,18,-1
 986 -20 l 1,19,-1
 1145 729 l 2,20,21
 1152 762 1152 762 1152 789 c 0,22,23
 1152 868 1152 868 1094 904 c 0,24,25
 1016 952 1016 952 898 952 c 128,-1,26
 780 952 780 952 681 904 c 128,-1,27
 582 856 582 856 555 729 c 2,28,-1
 415 70 l 1,29,-1
 206 -20 l 1,0,-1
EndSplineSet
Validated: 1
EndChar

StartChar: L
Encoding: 76 76 47
Width: 1020
GlyphClass: 2
Flags: W
HStem: 0 90<419 972> 1510 20G<668.556 725>
DStem2: 200 0 399.87 0 0.207912 0.978148<133.566 1472.15>
LayerCount: 2
Fore
SplineSet
200 0 m 1,0,-1
 506 1440 l 1,1,-1
 715 1530 l 1,2,-1
 725 1530 l 1,3,-1
 419 90 l 1,4,-1
 1029 90 l 1,5,-1
 1027 80 l 1,6,-1
 972 0 l 1,7,-1
 200 0 l 1,0,-1
EndSplineSet
Validated: 1
EndChar

StartChar: M
Encoding: 77 77 48
Width: 2180
GlyphClass: 2
Flags: W
HStem: -20 21G<176 232.444 986 1042.44 1796 1852.44> 1440 90<773.653 1187.42 1584.15 1998.62>
VStem: 2065 185<1150.13 1377.15>
DStem2: 176 -20 375.87 -20 0.207912 0.978148<133.566 1402.82> 986 -20 1185.87 -20 0.207912 0.978148<133.566 1322.78> 1796 -20 1995.87 -20 0.207912 0.978148<133.566 1309.83>
LayerCount: 2
Fore
SplineSet
186 -20 m 1,0,-1
 176 -20 l 1,1,-1
 419 1126 l 2,2,3
 467 1351 467 1351 612 1434 c 0,4,5
 780 1530 780 1530 990 1530 c 0,6,7
 1203 1530 1203 1530 1328 1434 c 0,8,9
 1350 1417 1350 1417 1367 1397 c 1,10,11
 1393 1417 1393 1417 1423 1434 c 0,12,13
 1591 1530 1591 1530 1801 1530 c 0,14,15
 2012 1530 2012 1530 2148 1434 c 0,16,17
 2250 1363 2250 1363 2250 1224 c 0,18,19
 2250 1179 2250 1179 2239 1126 c 2,20,-1
 2015 70 l 1,21,-1
 1806 -20 l 1,22,-1
 1796 -20 l 1,23,-1
 2058 1216 l 2,24,25
 2065 1249 2065 1249 2065 1276 c 0,26,27
 2065 1356 2065 1356 2006 1392 c 0,28,29
 1928 1440 1928 1440 1801.5 1440 c 128,-1,30
 1675 1440 1675 1440 1575 1391.5 c 128,-1,31
 1475 1343 1475 1343 1448 1216 c 2,32,-1
 1205 70 l 1,33,-1
 996 -20 l 1,34,-1
 986 -20 l 1,35,-1
 1248 1216 l 2,36,37
 1255 1249 1255 1249 1255 1276 c 0,38,39
 1255 1356 1255 1356 1196 1392 c 0,40,41
 1118 1440 1118 1440 991.5 1440 c 128,-1,42
 865 1440 865 1440 765 1391.5 c 128,-1,43
 665 1343 665 1343 638 1216 c 2,44,-1
 395 70 l 1,45,-1
 186 -20 l 1,0,-1
EndSplineSet
Validated: 1
EndChar

StartChar: N
Encoding: 78 78 49
Width: 1370
GlyphClass: 2
Flags: W
HStem: -20 21G<176 232.444 986 1042.44> 1440 90<773.653 1188.5>
VStem: 1255 185<1150.13 1376.7>
DStem2: 176 -20 375.87 -20 0.207912 0.978148<133.566 1402.82> 986 -20 1185.87 -20 0.207912 0.978148<133.566 1309.83>
LayerCount: 2
Fore
SplineSet
186 -20 m 1,0,-1
 176 -20 l 9,1,-1
 419 1126 l 2,2,3
 467 1351 467 1351 612 1434 c 0,4,5
 780 1530 780 1530 990 1530 c 0,6,7
 1202 1530 1202 1530 1338 1434 c 0,8,9
 1440 1362 1440 1362 1440 1224 c 0,10,11
 1440 1179 1440 1179 1429 1126 c 2,12,-1
 1205 70 l 17,13,-1
 996 -20 l 1,14,-1
 986 -20 l 9,15,-1
 1248 1216 l 2,16,17
 1255 1249 1255 1249 1255 1276 c 0,18,19
 1255 1355 1255 1355 1196 1392 c 0,20,21
 1118 1440 1118 1440 991.5 1440 c 128,-1,22
 865 1440 865 1440 765 1391.5 c 128,-1,23
 665 1343 665 1343 638 1216 c 2,24,-1
 395 70 l 17,25,-1
 186 -20 l 1,0,-1
EndSplineSet
Validated: 1
EndChar

StartChar: O
Encoding: 79 79 50
Width: 1330
GlyphClass: 2
Flags: W
HStem: -20 90<488.214 892.639> 1440 90<758.852 1165.93>
VStem: 231 194<133.138 466.016> 1225 195<1043.98 1378.15>
DStem2: 156.127 -20 365.257 -20 0.207912 0.978148<316.258 1402.8> 955.257 -20 1166.13 -20 0.207912 0.978148<225.895 1312.06>
LayerCount: 2
Fore
SplineSet
680.5 70 m 128,-1,1
 807 70 807 70 901 118.5 c 128,-1,2
 995 167 995 167 1022 294 c 2,3,-1
 1218 1216 l 2,4,5
 1225 1250 1225 1250 1225 1279 c 0,6,7
 1225 1357 1225 1357 1172 1392 c 0,8,9
 1098 1440 1098 1440 971.5 1440 c 128,-1,10
 845 1440 845 1440 750 1391.5 c 128,-1,11
 655 1343 655 1343 628 1216 c 2,12,-1
 432 294 l 2,13,14
 425 260 425 260 425 232 c 0,15,16
 425 154 425 154 480 118 c 0,17,0
 554 70 554 70 680.5 70 c 128,-1,1
681.5 -20 m 128,-1,19
 471 -20 471 -20 334 76 c 0,20,21
 231 148 231 148 231 286 c 0,22,23
 231 331 231 331 242 384 c 2,24,-1
 399 1126 l 2,25,26
 447 1351 447 1351 592 1434 c 0,27,28
 760 1530 760 1530 970 1530 c 0,29,30
 1179 1530 1179 1530 1318 1434 c 0,31,32
 1420 1364 1420 1364 1420 1224 c 0,33,34
 1420 1179 1420 1179 1409 1126 c 2,35,-1
 1252 384 l 2,36,37
 1204 159 1204 159 1060 76 c 0,38,18
 892 -20 892 -20 681.5 -20 c 128,-1,19
EndSplineSet
Validated: 1
EndChar

StartChar: P
Encoding: 80 80 51
Width: 1210
GlyphClass: 2
Flags: W
HStem: -20 21G<196 252.444> 500 90<525 986.657> 1420 90<702 1144>
VStem: 1211 194<1017.28 1342.42>
DStem2: 196 -20 395.87 -20 0.207912 0.978148<133.566 573.089 665.073 1492.55> 945.728 -20 1155.6 -20 0.207912 0.978148<757.406 1278.8>
LayerCount: 2
Fore
SplineSet
525 590 m 1,0,-1
 770 590 l 2,1,2
 897 590 897 590 996 638 c 0,3,4
 1096 686 1096 686 1123 814 c 2,5,-1
 1204 1196 l 2,6,7
 1211 1229 1211 1229 1211 1256 c 0,8,9
 1211 1336 1211 1336 1152 1372 c 0,10,11
 1074 1420 1074 1420 947 1420 c 2,12,-1
 702 1420 l 1,13,-1
 525 590 l 1,0,-1
206 -20 m 1,14,-1
 196 -20 l 1,15,-1
 506 1440 l 1,16,-1
 669 1510 l 1,17,-1
 956 1510 l 2,18,19
 1164 1510 1164 1510 1292 1414 c 0,20,21
 1404 1329 1404 1329 1405 1191 c 0,22,23
 1405 1151 1405 1151 1395 1106 c 2,24,-1
 1352 904 l 2,25,26
 1304 680 1304 680 1159 596 c 0,27,28
 992 500 992 500 781 500 c 2,29,-1
 506 500 l 1,30,-1
 415 70 l 1,31,-1
 206 -20 l 1,14,-1
EndSplineSet
Validated: 1
EndChar

StartChar: Q
Encoding: 81 81 52
Width: 1330
GlyphClass: 2
Flags: W
HStem: -40 21G<892.612 958.747> -20 90<483.724 837.284> 1440 90<753.653 1168.5>
VStem: 231 184<133.402 466.016> 1235 185<1043.98 1377.37>
DStem2: 151.876 -40 351.006 -40 0.207912 0.978148<337.683 1423.24> 865 540 661 457 0.436318 -0.899793<0 341.248 478.748 538.023> 961.006 -40 1161.88 -40 0.207912 0.978148<278.987 1330.43>
LayerCount: 2
Fore
SplineSet
661 457 m 1,0,-1
 855 540 l 1,1,-1
 865 540 l 1,2,-1
 1014 233 l 1,3,4
 1026 261 1026 261 1032 294 c 2,5,-1
 1228 1216 l 2,6,7
 1235 1249 1235 1249 1235 1276 c 0,8,9
 1235 1355 1235 1355 1176 1392 c 0,10,11
 1098 1440 1098 1440 971.5 1440 c 128,-1,12
 845 1440 845 1440 745 1391.5 c 128,-1,13
 645 1343 645 1343 618 1216 c 2,14,-1
 422 294 l 2,15,16
 415 262 415 262 415 235 c 0,17,18
 415 155 415 155 475 118 c 0,19,20
 555 70 555 70 681 70 c 0,21,22
 766 70 766 70 839 92 c 1,23,-1
 661 457 l 1,0,-1
682 -20 m 0,24,25
 472 -20 472 -20 335 76 c 0,26,27
 231 148 231 148 231 287 c 0,28,29
 231 332 231 332 242 384 c 2,30,-1
 399 1126 l 2,31,32
 447 1351 447 1351 592 1434 c 0,33,34
 760 1530 760 1530 970 1530 c 0,35,36
 1182 1530 1182 1530 1318 1434 c 0,37,38
 1420 1362 1420 1362 1420 1224 c 0,39,40
 1420 1179 1420 1179 1409 1126 c 2,41,-1
 1252 384 l 2,42,43
 1213 199 1213 199 1078 101 c 1,44,-1
 1106 43 l 1,45,-1
 912 -40 l 1,46,-1
 902 -40 l 1,47,-1
 879 9 l 1,48,49
 777 -20 777 -20 682 -20 c 0,24,25
EndSplineSet
Validated: 1
EndChar

StartChar: R
Encoding: 82 82 53
Width: 1294
GlyphClass: 2
Flags: W
HStem: -20 21G<196 252.444 1021.38 1090.83> 500 90<525 756> 1420 90<702 1144>
VStem: 1211 194<1017.28 1342.98>
DStem2: 196 -20 395.87 -20 0.207912 0.978148<133.566 573.089 665.073 1492.55> 972 528 756 500 0.468824 -0.883292<0 512.173> 945.728 -20 1155.6 -20 0.207912 0.978148<763.389 1278.8>
LayerCount: 2
Fore
SplineSet
525 590 m 1,0,-1
 770 590 l 2,1,2
 897 590 897 590 996 638 c 0,3,4
 1096 686 1096 686 1123 814 c 2,5,-1
 1204 1196 l 2,6,7
 1211 1229 1211 1229 1211 1256 c 0,8,9
 1211 1336 1211 1336 1152 1372 c 0,10,11
 1074 1420 1074 1420 947 1420 c 2,12,-1
 702 1420 l 1,13,-1
 525 590 l 1,0,-1
206 -20 m 1,14,-1
 196 -20 l 1,15,-1
 506 1440 l 1,16,-1
 669 1510 l 1,17,-1
 956 1510 l 2,18,19
 1164 1510 1164 1510 1292 1414 c 0,20,21
 1405 1328 1405 1328 1405 1191 c 0,22,23
 1405 1151 1405 1151 1395 1106 c 2,24,-1
 1352 904 l 2,25,26
 1307 691 1307 691 1159 596 c 0,27,28
 1092 553 1092 553 972 528 c 1,29,-1
 1230 57 l 1,30,-1
 1042 -20 l 1,31,-1
 1032 -20 l 1,32,-1
 756 500 l 1,33,-1
 506 500 l 1,34,-1
 415 70 l 1,35,-1
 206 -20 l 1,14,-1
EndSplineSet
Validated: 1
EndChar

StartChar: T
Encoding: 84 84 54
Width: 1070
GlyphClass: 2
Flags: W
HStem: -20 21G<431 487.444> 1420 90<369 737 937 1324>
DStem2: 431 -20 630.87 -20 0.207912 0.978148<133.566 1472.15>
LayerCount: 2
Fore
SplineSet
431 -20 m 1,0,-1
 737 1420 l 1,1,-1
 312 1420 l 1,2,-1
 314 1430 l 1,3,-1
 369 1510 l 1,4,-1
 1381 1510 l 1,5,-1
 1379 1500 l 1,6,-1
 1324 1420 l 1,7,-1
 937 1420 l 1,8,-1
 650 70 l 1,9,-1
 441 -20 l 1,10,-1
 431 -20 l 1,0,-1
EndSplineSet
Validated: 1
EndChar

StartChar: U
Encoding: 85 85 55
Width: 1370
GlyphClass: 2
Flags: W
HStem: -20 90<502.37 917.068> 1510 20G<648.556 705 1458.56 1515>
VStem: 251 184<133.299 359.627>
DStem2: 176.127 -20 375.257 -20 0.207912 0.978148<316.258 1492.52> 985.257 -20 1186.13 -20 0.207912 0.978148<223.446 1492.7>
LayerCount: 2
Fore
SplineSet
700.5 -20 m 128,-1,1
 490 -20 490 -20 354 76 c 0,2,3
 251 148 251 148 251 286 c 0,4,5
 251 331 251 331 262 384 c 2,6,-1
 486 1440 l 17,7,-1
 695 1530 l 1,8,-1
 705 1530 l 9,9,-1
 442 294 l 2,10,11
 435 262 435 262 435 234 c 0,12,13
 435 154 435 154 494 118 c 0,14,15
 573 70 573 70 699.5 70 c 128,-1,16
 826 70 826 70 925.5 118.5 c 128,-1,17
 1025 167 1025 167 1052 294 c 2,18,-1
 1296 1440 l 17,19,-1
 1505 1530 l 1,20,-1
 1515 1530 l 9,21,-1
 1272 384 l 2,22,23
 1224 159 1224 159 1079 76 c 0,24,0
 911 -20 911 -20 700.5 -20 c 128,-1,1
EndSplineSet
Validated: 1
EndChar

StartChar: V
Encoding: 86 86 56
Width: 1241
GlyphClass: 2
Flags: W
HStem: -20 21G<521.153 580.4> 1510 20G<441.6 500.901 1440.34 1499.87>
DStem2: 498 1530 314 1455 0.140952 -0.990017<48.3162 1323.7> 688 220 708 55 0.508364 0.861143<0 1516.49>
LayerCount: 2
Fore
SplineSet
534 -20 m 1,0,-1
 524 -20 l 1,1,-1
 314 1455 l 1,2,-1
 488 1530 l 1,3,-1
 498 1530 l 1,4,-1
 688 220 l 1,5,-1
 1452 1530 l 1,6,-1
 1462 1530 l 1,7,-1
 1551 1483 l 1,8,-1
 708 55 l 1,9,-1
 534 -20 l 1,0,-1
EndSplineSet
Validated: 1
EndChar

StartChar: W
Encoding: 87 87 57
Width: 2180
GlyphClass: 2
Flags: W
HStem: -20 90<502.311 916.62 1312.76 1726.77> 1510 20G<648.556 705 1458.56 1515 2268.56 2325>
VStem: 251 184<133.299 359.627>
DStem2: 176.127 -20 375.257 -20 0.207912 0.978148<316.258 1492.52> 985.257 -20 1185.26 -20 0.207912 0.978148<303.31 1492.7> 1795.26 -20 1996.13 -20 0.207912 0.978148<223.446 1492.7>
LayerCount: 2
Fore
SplineSet
700 -20 m 128,-1,1
 490 -20 490 -20 354 76 c 0,2,3
 251 148 251 148 251 286 c 0,4,5
 251 331 251 331 262 384 c 2,6,-1
 486 1440 l 1,7,-1
 695 1530 l 1,8,-1
 705 1530 l 1,9,-1
 442 294 l 2,10,11
 435 262 435 262 435 234 c 0,12,13
 435 154 435 154 494 118 c 0,14,15
 573 70 573 70 699.5 70 c 128,-1,16
 826 70 826 70 925.5 118.5 c 128,-1,17
 1025 167 1025 167 1052 294 c 2,18,-1
 1296 1440 l 1,19,-1
 1505 1530 l 1,20,-1
 1515 1530 l 1,21,-1
 1252 294 l 2,22,23
 1245 262 1245 262 1245 234 c 0,24,25
 1245 154 1245 154 1304 118 c 0,26,27
 1383 70 1383 70 1509.5 70 c 128,-1,28
 1636 70 1636 70 1735.5 118.5 c 128,-1,29
 1835 167 1835 167 1862 294 c 2,30,-1
 2106 1440 l 1,31,-1
 2315 1530 l 1,32,-1
 2325 1530 l 1,33,-1
 2082 384 l 2,34,35
 2034 159 2034 159 1889 76 c 0,36,37
 1720 -20 1720 -20 1510 -20 c 0,38,39
 1297 -20 1297 -20 1173 76 c 0,40,41
 1151 93 1151 93 1134 113 c 1,42,43
 1108 93 1108 93 1078 76 c 0,44,0
 910 -20 910 -20 700 -20 c 128,-1,1
EndSplineSet
Validated: 1
EndChar

StartChar: X
Encoding: 88 88 58
Width: 1156
GlyphClass: 2
Flags: W
HStem: -20 21G<120.128 184.545 939.823 1004.4> 1510 20G<473.333 538.152 1295.44 1360.3>
DStem2: 69 27 168 -20 0.63761 0.77036<26.9165 845.846 1128.65 1950.4> 530 1530 345 1455 0.378413 -0.925637<0 683.559 911.206 1592.91>
LayerCount: 2
Fore
SplineSet
168 -20 m 1,0,-1
 158 -20 l 1,1,-1
 69 27 l 1,2,-1
 644 723 l 1,3,-1
 345 1455 l 1,4,-1
 520 1530 l 1,5,-1
 530 1530 l 1,6,-1
 788 897 l 1,7,-1
 1312 1530 l 1,8,-1
 1322 1530 l 1,9,-1
 1412 1483 l 1,10,-1
 834 785 l 1,11,-1
 1132 55 l 1,12,-1
 958 -20 l 1,13,-1
 948 -20 l 1,14,-1
 690 611 l 1,15,-1
 168 -20 l 1,0,-1
EndSplineSet
Validated: 1
EndChar

StartChar: Y
Encoding: 89 89 59
Width: 1230
GlyphClass: 2
Flags: W
HStem: -20 21G<511 567.444> 1510 20G<588.556 645 1378.56 1435>
VStem: 287 185<587.909 810.968>
DStem2: 116.052 -20 316.182 -20 0.207912 0.978148<781.23 1492.54> 511 -20 710.87 -20 0.207912 0.978148<133.566 468.159> 906.182 -20 1106.05 -20 0.207912 0.978148<686.307 1492.51>
LayerCount: 2
Fore
SplineSet
521 -20 m 1,0,-1
 511 -20 l 1,1,-1
 608 438 l 1,2,3
 488 454 488 454 389 528 c 0,4,5
 287 605 287 605 287 741 c 0,6,7
 287 784 287 784 298 836 c 2,8,-1
 426 1440 l 1,9,-1
 635 1530 l 1,10,-1
 645 1530 l 1,11,-1
 479 746 l 2,12,13
 472 713 472 713 472 686 c 0,14,15
 472 606 472 606 530 570 c 0,16,17
 608 522 608 522 725 522 c 128,-1,18
 842 522 842 522 942 571 c 0,19,20
 1042 619 1042 619 1069 746 c 2,21,-1
 1216 1440 l 1,22,-1
 1425 1530 l 1,23,-1
 1435 1530 l 1,24,-1
 1288 836 l 2,25,26
 1241 613 1241 613 1094 528 c 0,27,28
 964 453 964 453 808 438 c 1,29,-1
 730 70 l 1,30,-1
 521 -20 l 1,0,-1
EndSplineSet
Validated: 1
EndChar

StartChar: Z
Encoding: 90 90 60
Width: 1040
GlyphClass: 2
Flags: W
HStem: 0 90<320 962> 1420 90<429 1038>
DStem2: 42 10 320 90 0.578114 0.815956<225.992 1726.3>
LayerCount: 2
Fore
SplineSet
40 0 m 1,0,-1
 42 10 l 1,1,-1
 1038 1420 l 1,2,-1
 372 1420 l 1,3,-1
 374 1430 l 1,4,-1
 429 1510 l 1,5,-1
 1321 1510 l 1,6,-1
 1319 1500 l 1,7,-1
 320 90 l 1,8,-1
 1019 90 l 1,9,-1
 1017 80 l 1,10,-1
 962 0 l 1,11,-1
 40 0 l 1,0,-1
EndSplineSet
Validated: 19457
EndChar

StartChar: bracketleft
Encoding: 91 91 61
Width: 880
GlyphClass: 2
Flags: W
HStem: -240 90<368 741> 1660 90<762 1145>
DStem2: 149 -240 348.87 -240 0.207912 0.978148<133.566 1942.48>
LayerCount: 2
Fore
SplineSet
149 -240 m 1,0,-1
 553 1660 l 1,1,-1
 762 1750 l 1,2,-1
 1202 1750 l 1,3,-1
 1200 1740 l 1,4,-1
 1145 1660 l 1,5,-1
 753 1660 l 1,6,-1
 368 -150 l 1,7,-1
 798 -150 l 1,8,-1
 796 -160 l 1,9,-1
 741 -240 l 1,10,-1
 149 -240 l 1,0,-1
EndSplineSet
Validated: 1
EndChar

StartChar: backslash
Encoding: 92 92 62
Width: 1001
GlyphClass: 2
Flags: W
VStem: 361 600
DStem2: 502 1710 361 1652 0.240562 -0.970634<22.3775 1908.03>
LayerCount: 2
Fore
SplineSet
830 -200 m 1,0,-1
 820 -200 l 1,1,-1
 361 1652 l 1,2,-1
 492 1710 l 1,3,-1
 502 1710 l 1,4,-1
 961 -142 l 1,5,-1
 830 -200 l 1,0,-1
EndSplineSet
Validated: 1
EndChar

StartChar: bracketright
Encoding: 93 93 63
Width: 880
GlyphClass: 2
Flags: W
HStem: -240 90<56 439> 1660 90<460 833>
DStem2: 428.87 -240 628.87 -240 0.207912 0.978148<133.593 1942.5>
LayerCount: 2
Fore
SplineSet
439 -240 m 1,0,-1
 -1 -240 l 1,1,-1
 1 -230 l 1,2,-1
 56 -150 l 1,3,-1
 448 -150 l 1,4,-1
 833 1660 l 1,5,-1
 403 1660 l 1,6,-1
 405 1670 l 1,7,-1
 460 1750 l 1,8,-1
 1052 1750 l 1,9,-1
 648 -150 l 1,10,-1
 439 -240 l 1,0,-1
EndSplineSet
Validated: 1
EndChar

StartChar: asciicircum
Encoding: 94 94 64
Width: 905
GlyphClass: 2
Flags: W
HStem: 1164 406
DStem2: 856 1570 736 1441 0.611181 -0.791491<28.7606 378.185>
LayerCount: 2
Fore
SplineSet
846 1570 m 1,0,-1
 856 1570 l 1,1,-1
 1117 1232 l 1,2,-1
 959 1164 l 1,3,-1
 949 1164 l 1,4,-1
 736 1441 l 1,5,-1
 396 1160 l 1,6,-1
 386 1160 l 1,7,-1
 309 1201 l 1,8,-1
 655 1488 l 1,9,-1
 846 1570 l 1,0,-1
EndSplineSet
Validated: 1
EndChar

StartChar: underscore
Encoding: 95 95 65
Width: 1364
GlyphClass: 2
Flags: W
HStem: -410 120<140 1075>
LayerCount: 2
Fore
SplineSet
63 -410 m 1,0,-1
 65 -400 l 1,1,-1
 140 -290 l 1,2,-1
 1152 -290 l 1,3,-1
 1150 -300 l 1,4,-1
 1075 -410 l 1,5,-1
 63 -410 l 1,0,-1
EndSplineSet
Validated: 1
EndChar

StartChar: grave
Encoding: 96 96 66
Width: 377
GlyphClass: 2
Flags: W
HStem: 1160 367
VStem: 362 223
DStem2: 505 1527 362 1470 0.261536 -0.965194<17.6163 321.098>
LayerCount: 2
Fore
SplineSet
495 1527 m 1,0,-1
 505 1527 l 1,1,-1
 585 1216 l 1,2,-1
 456 1160 l 1,3,-1
 446 1160 l 1,4,-1
 362 1470 l 1,5,-1
 495 1527 l 1,0,-1
EndSplineSet
Validated: 1
EndChar

StartChar: a
Encoding: 97 97 67
Width: 1060
GlyphClass: 2
Flags: W
HStem: -20 80<358.364 653.315> 665 80<470.072 766.458> 1020 80<507 836.213>
VStem: 139 176<102.945 301.569> 883 168<682.422 978.049>
DStem2: 76.1559 -20 265.31 -20 0.207912 0.978148<266.561 648.373> 700.31 -20 875.783 -20 0.207912 0.978148<132.842 560.767 711.644 914.943>
LayerCount: 2
Fore
SplineSet
706 -20 m 1,0,-1
 696 -20 l 1,1,-1
 710 48 l 1,2,3
 612 -20 612 -20 496 -20 c 0,4,5
 339 -20 339 -20 225 62 c 0,6,7
 139 124 139 124 139 238 c 0,8,9
 139 275 139 275 148 318 c 2,10,-1
 167 407 l 2,11,12
 206 595 206 595 322 663 c 0,13,14
 460 745 460 745 618 745 c 0,15,16
 773 745 773 745 844 677 c 1,17,-1
 878 838 l 2,18,19
 883 864 883 864 883 886 c 0,20,21
 883 949 883 949 840 978 c 0,22,23
 780 1020 780 1020 682 1020 c 2,24,-1
 457 1020 l 1,25,-1
 459 1030 l 1,26,-1
 507 1100 l 1,27,-1
 679 1100 l 2,28,29
 851 1100 851 1100 965 1018 c 0,30,31
 1051 956 1051 956 1051 842 c 0,32,33
 1051 805 1051 805 1042 762 c 2,34,-1
 893 61 l 1,35,-1
 706 -20 l 1,0,-1
495.5 60 m 128,-1,37
 581 60 581 60 658 101.5 c 128,-1,38
 735 143 735 143 756 242 c 2,39,-1
 808 483 l 2,40,41
 813 509 813 509 813 530 c 0,42,43
 813 594 813 594 769 624 c 0,44,45
 709 665 709 665 623.5 665 c 128,-1,46
 538 665 538 665 466 623.5 c 128,-1,47
 394 582 394 582 373 483 c 2,48,-1
 321 242 l 2,49,50
 315 215 315 215 315 192 c 0,51,52
 315 132 315 132 355 102 c 0,53,36
 410 60 410 60 495.5 60 c 128,-1,37
EndSplineSet
Validated: 1
EndChar

StartChar: b
Encoding: 98 98 68
Width: 1170
GlyphClass: 2
Flags: W
HStem: -20 80<453.644 774.112> 1040 80<644.797 964.748> 1510 20G<628.827 685>
VStem: 239 167<103.201 424.453> 1008 176<677.812 996.623>
DStem2: 176.156 -20 355.31 -20 0.207912 0.978148<266.561 1069.96 1132.18 1501.73> 815.375 -20 1005.53 -20 0.207912 0.978148<173.221 933.405>
LayerCount: 2
Fore
SplineSet
608 60 m 128,-1,1
 706 60 706 60 778 101.5 c 128,-1,2
 850 143 850 143 871 242 c 2,3,-1
 1002 858 l 2,4,5
 1008 886 1008 886 1008 909 c 0,6,7
 1008 968 1008 968 968 998 c 0,8,9
 914 1040 914 1040 816 1040 c 128,-1,10
 718 1040 718 1040 640.5 998.5 c 128,-1,11
 563 957 563 957 542 858 c 2,12,-1
 411 242 l 2,13,14
 406 216 406 216 406 195 c 0,15,16
 406 134 406 134 450 102 c 0,17,0
 510 60 510 60 608 60 c 128,-1,1
611 -20 m 128,-1,19
 439 -20 439 -20 325 62 c 0,20,21
 239 124 239 124 239 238 c 0,22,23
 239 275 239 275 248 318 c 2,24,-1
 488 1449 l 1,25,-1
 675 1530 l 1,26,-1
 685 1530 l 1,27,-1
 583 1051 l 1,28,29
 679 1120 679 1120 823 1120 c 0,30,31
 995 1120 995 1120 1099 1038 c 0,32,33
 1184 970 1184 970 1184 857 c 0,34,35
 1184 822 1184 822 1176 782 c 2,36,-1
 1078 318 l 2,37,38
 1038 131 1038 131 922 62 c 0,39,18
 783 -20 783 -20 611 -20 c 128,-1,19
EndSplineSet
Validated: 1
EndChar

StartChar: c
Encoding: 99 99 69
Width: 1070
GlyphClass: 2
Flags: W
HStem: -20 80<438.231 750.74> 1040 80<632.321 941.818>
VStem: 219 176<102.945 306.46> 983 172<803.148 999.793>
DStem2: 156.156 -20 345.31 -20 0.207912 0.978148<266.561 1031.52>
LayerCount: 2
Fore
SplineSet
591 -20 m 128,-1,1
 419 -20 419 -20 305 62 c 0,2,3
 219 124 219 124 219 238 c 0,4,5
 219 275 219 275 228 318 c 2,6,-1
 326 782 l 2,7,8
 365 969 365 969 482 1038 c 0,9,10
 621 1120 621 1120 793 1120 c 0,11,12
 973 1120 973 1120 1079 1038 c 0,13,14
 1155 980 1155 980 1155 856 c 0,15,16
 1155 835 1155 835 1152 811 c 1,17,-1
 960 727 l 1,18,-1
 950 727 l 1,19,-1
 977 858 l 2,20,21
 983 887 983 887 983 909 c 0,22,23
 983 968 983 968 946 998 c 0,24,25
 894 1040 894 1040 796 1040 c 128,-1,26
 698 1040 698 1040 626 998 c 0,27,28
 553 957 553 957 532 858 c 2,29,-1
 401 242 l 2,30,31
 395 214 395 214 395 192 c 0,32,33
 395 132 395 132 435 102 c 0,34,35
 490 60 490 60 588 60 c 128,-1,36
 686 60 686 60 756 102 c 0,37,38
 824 142 824 142 846 242 c 2,39,-1
 859 300 l 1,40,-1
 1062 388 l 1,41,-1
 1072 388 l 1,42,-1
 1058 318 l 2,43,44
 1021 132 1021 132 902 62 c 0,45,0
 763 -20 763 -20 591 -20 c 128,-1,1
EndSplineSet
Validated: 1
EndChar

StartChar: d
Encoding: 100 100 70
Width: 1170
GlyphClass: 2
Flags: W
HStem: -20 80<440.279 758.884> 1040 80<629.653 950.613> 1510 20G<1258.83 1315>
VStem: 220 175<103.377 422.188>
DStem2: 156.156 -20 345.31 -20 0.207912 0.978148<271.598 1031.63> 805.31 -20 986.156 -20 0.207912 0.978148<172.913 944.946 1094.94 1501.91>
LayerCount: 2
Fore
SplineSet
588 60 m 128,-1,1
 686 60 686 60 763 101.5 c 128,-1,2
 840 143 840 143 861 242 c 2,3,-1
 992 858 l 2,4,5
 997 884 997 884 997 906 c 0,6,7
 997 969 997 969 954 998 c 0,8,9
 894 1040 894 1040 796 1040 c 128,-1,10
 698 1040 698 1040 625.5 998.5 c 128,-1,11
 553 957 553 957 532 858 c 2,12,-1
 401 242 l 2,13,14
 395 215 395 215 395 192 c 0,15,16
 395 132 395 132 435 102 c 0,17,0
 490 60 490 60 588 60 c 128,-1,1
591 -20 m 0,18,19
 409 -20 409 -20 305 62 c 0,20,21
 220 130 220 130 220 243 c 0,22,23
 220 278 220 278 228 318 c 2,24,-1
 326 782 l 2,25,26
 366 969 366 969 482 1038 c 0,27,28
 621 1120 621 1120 793 1120 c 0,29,30
 967 1120 967 1120 1033 1051 c 1,31,-1
 1118 1449 l 1,32,-1
 1305 1530 l 1,33,-1
 1315 1530 l 1,34,-1
 1058 318 l 2,35,36
 1018 131 1018 131 902 62 c 0,37,38
 763 -20 763 -20 591 -20 c 0,18,19
EndSplineSet
Validated: 1
EndChar

StartChar: e
Encoding: 101 101 71
Width: 1150
GlyphClass: 2
Flags: W
HStem: -20 80<440.279 750.74> 1040 80<629.653 950.356>
VStem: 220 175<103.377 338.125> 997 168<797.072 997.085>
DStem2: 156.156 -20 345.712 -20 0.207912 0.978148<271.598 405.449 502.531 1031.63> 442 433 422 338 0.917318 0.398155<0 553.073> 790.982 -20 986.156 -20 0.207912 0.978148<174.841 327.149 719.352 938.378>
LayerCount: 2
Fore
SplineSet
591 -20 m 0,0,1
 409 -20 409 -20 305 62 c 0,2,3
 220 130 220 130 220 243 c 0,4,5
 220 278 220 278 228 318 c 2,6,-1
 326 782 l 2,7,8
 366 969 366 969 482 1038 c 0,9,10
 621 1120 621 1120 793 1120 c 128,-1,11
 965 1120 965 1120 1079 1038 c 0,12,13
 1165 976 1165 976 1165 861 c 0,14,15
 1165 824 1165 824 1156 782 c 2,16,-1
 1127 644 l 1,17,-1
 422 338 l 1,18,-1
 401 242 l 2,19,20
 395 214 395 214 395 191 c 0,21,22
 395 132 395 132 435 102 c 0,23,24
 490 60 490 60 588 60 c 128,-1,25
 686 60 686 60 756 102 c 0,26,27
 824 142 824 142 846 242 c 2,28,-1
 859 300 l 1,29,-1
 1062 388 l 1,30,-1
 1072 388 l 1,31,-1
 1058 318 l 2,32,33
 1021 132 1021 132 902 62 c 0,34,35
 763 -20 763 -20 591 -20 c 0,0,1
442 433 m 1,36,-1
 949 654 l 1,37,-1
 992 858 l 2,38,39
 997 884 997 884 997 906 c 0,40,41
 997 969 997 969 954 998 c 0,42,43
 894 1040 894 1040 796 1040 c 128,-1,44
 698 1040 698 1040 625.5 998.5 c 128,-1,45
 553 957 553 957 532 858 c 2,46,-1
 442 433 l 1,36,-1
EndSplineSet
Validated: 1
EndChar

StartChar: f
Encoding: 102 102 72
Width: 780
GlyphClass: 2
Flags: W
HStem: -20 21G<176 232.173> 820 80<551 872> 1430 80<727.955 1041>
DStem2: 176 -20 355.783 -20 0.207912 0.978148<120.189 896.076 977.863 1430.55>
LayerCount: 2
Fore
SplineSet
186 -20 m 1,0,-1
 176 -20 l 1,1,-1
 429 1172 l 2,2,3
 469 1359 469 1359 585 1428 c 0,4,5
 724 1510 724 1510 896 1510 c 2,6,-1
 1091 1510 l 1,7,-1
 1089 1500 l 1,8,-1
 1041 1430 l 1,9,-1
 899 1430 l 2,10,11
 802 1430 802 1430 723 1388 c 0,12,13
 646 1347 646 1347 625 1248 c 2,14,-1
 551 900 l 1,15,-1
 922 900 l 1,16,-1
 920 890 l 1,17,-1
 872 820 l 1,18,-1
 534 820 l 1,19,-1
 373 61 l 1,20,-1
 186 -20 l 1,0,-1
EndSplineSet
Validated: 1
EndChar

StartChar: g
Encoding: 103 103 73
Width: 1170
GlyphClass: 2
Flags: W
HStem: -410 80<263 674> -20 80<440.279 759.003> 1040 80<629.653 950.356>
VStem: 220 175<103.81 306.46> 997 168<675.188 998.049>
DStem2: 73.2588 -410 262.413 -410 0.207912 0.978148<670.311 1430.35> 723.31 -410 903.156 -410 0.207912 0.978148<176.185 469.073 531.368 1334.9>
LayerCount: 2
Fore
SplineSet
213 -410 m 1,0,-1
 215 -400 l 1,1,-1
 263 -330 l 1,2,-1
 505 -330 l 2,3,4
 603 -330 603 -330 680 -288 c 0,5,6
 759 -246 759 -246 779 -148 c 2,7,-1
 820 49 l 1,8,9
 716 -20 716 -20 591 -20 c 0,10,11
 409 -20 409 -20 305 62 c 0,12,13
 220 130 220 130 220 243 c 0,14,15
 220 278 220 278 228 318 c 2,16,-1
 326 782 l 2,17,18
 366 969 366 969 482 1038 c 0,19,20
 621 1120 621 1120 793 1120 c 128,-1,21
 965 1120 965 1120 1079 1038 c 0,22,23
 1165 976 1165 976 1165 862 c 0,24,25
 1165 825 1165 825 1156 782 c 2,26,-1
 975 -72 l 2,27,28
 936 -256 936 -256 818 -328 c 0,29,30
 685 -410 685 -410 508 -410 c 2,31,-1
 213 -410 l 1,0,-1
588 60 m 128,-1,33
 686 60 686 60 763 101.5 c 128,-1,34
 840 143 840 143 861 242 c 2,35,-1
 992 858 l 2,36,37
 997 884 997 884 997 906 c 0,38,39
 997 969 997 969 954 998 c 0,40,41
 894 1040 894 1040 796 1040 c 128,-1,42
 698 1040 698 1040 625.5 998.5 c 128,-1,43
 553 957 553 957 532 858 c 2,44,-1
 401 242 l 2,45,46
 395 215 395 215 395 192 c 0,47,48
 395 132 395 132 435 102 c 0,49,32
 490 60 490 60 588 60 c 128,-1,33
EndSplineSet
Validated: 1
EndChar

StartChar: h
Encoding: 104 104 74
Width: 1210
GlyphClass: 2
Flags: W
HStem: -20 21G<196 252.173 846 902.173> 1040 80<665.818 990.356> 1510 20G<648.827 705>
VStem: 1037 168<792.099 997.085>
DStem2: 196 -20 375.783 -20 0.207912 0.978148<120.189 1069.99 1132.22 1501.77> 846 -20 1025.78 -20 0.207912 0.978148<120.189 936.234>
LayerCount: 2
Fore
SplineSet
206 -20 m 1,0,-1
 196 -20 l 1,1,-1
 508 1449 l 1,2,-1
 695 1530 l 1,3,-1
 705 1530 l 1,4,-1
 603 1051 l 1,5,6
 706 1120 706 1120 833 1120 c 0,7,8
 1005 1120 1005 1120 1119 1038 c 0,9,10
 1205 976 1205 976 1205 862 c 0,11,12
 1205 825 1205 825 1196 782 c 2,13,-1
 1043 61 l 1,14,-1
 856 -20 l 1,15,-1
 846 -20 l 1,16,-1
 1032 858 l 2,17,18
 1037 884 1037 884 1037 906 c 0,19,20
 1037 969 1037 969 994 998 c 0,21,22
 934 1040 934 1040 836 1040 c 128,-1,23
 738 1040 738 1040 660.5 998.5 c 128,-1,24
 583 957 583 957 562 858 c 2,25,-1
 393 61 l 1,26,-1
 206 -20 l 1,0,-1
EndSplineSet
Validated: 1
EndChar

StartChar: i
Encoding: 105 105 75
Width: 580
GlyphClass: 2
Flags: W
HStem: -20 21G<196 252.173> 1100 20G<561.827 618> 1220 245<499.901 650.42>
VStem: 452 246<1267.59 1416.76>
DStem2: 196 -20 375.783 -20 0.207912 0.978148<120.189 1082.64>
LayerCount: 2
Fore
SplineSet
601 1465 m 128,-1,1
 651 1465 651 1465 679 1429 c 0,2,3
 698 1405 698 1405 698 1370 c 0,4,5
 698 1356 698 1356 695 1342 c 0,6,7
 684 1292 684 1292 641.5 1256 c 128,-1,8
 599 1220 599 1220 549 1220 c 0,9,10
 497 1220 497 1220 471 1256 c 0,11,12
 452 1282 452 1282 452 1315 c 0,13,14
 452 1328 452 1328 455 1342 c 0,15,16
 466 1392 466 1392 508.5 1428.5 c 128,-1,0
 551 1465 551 1465 601 1465 c 128,-1,1
196 -20 m 1,17,-1
 421 1039 l 1,18,-1
 608 1120 l 1,19,-1
 618 1120 l 1,20,-1
 393 61 l 1,21,-1
 206 -20 l 1,22,-1
 196 -20 l 1,17,-1
EndSplineSet
Validated: 1
EndChar

StartChar: j
Encoding: 106 106 76
Width: 580
GlyphClass: 2
Flags: W
HStem: -410 80<-72 64.053> 1100 20G<561.827 618> 1220 245<499.901 650.42>
VStem: 452 246<1267.59 1416.76>
DStem2: 113.31 -410 293.156 -410 0.207912 0.978148<179.903 1481.31>
LayerCount: 2
Fore
SplineSet
-122 -410 m 1,0,-1
 -120 -400 l 1,1,-1
 -72 -330 l 1,2,3
 2 -324 2 -324 71 -288 c 0,4,5
 148 -248 148 -248 169 -148 c 2,6,-1
 421 1039 l 17,7,-1
 608 1120 l 1,8,-1
 618 1120 l 9,9,-1
 365 -72 l 2,10,11
 329 -242 329 -242 209 -328 c 0,12,13
 95 -410 95 -410 -122 -410 c 1,0,-1
601 1465 m 128,-1,15
 651 1465 651 1465 679 1429 c 0,16,17
 698 1405 698 1405 698 1370 c 0,18,19
 698 1356 698 1356 695 1342 c 0,20,21
 684 1292 684 1292 641.5 1256 c 128,-1,22
 599 1220 599 1220 549 1220 c 0,23,24
 497 1220 497 1220 471 1256 c 0,25,26
 452 1282 452 1282 452 1315 c 0,27,28
 452 1328 452 1328 455 1342 c 0,29,30
 466 1392 466 1392 508.5 1428.5 c 128,-1,14
 551 1465 551 1465 601 1465 c 128,-1,15
EndSplineSet
Validated: 1
EndChar

StartChar: k
Encoding: 107 107 77
Width: 1170
GlyphClass: 2
Flags: W
HStem: -20 21G<196 252.173 826 882.173> 700 82<743.039 898.583> 1100 20G<1075.93 1152.83> 1510 20G<648.827 705>
VStem: 945 167<453.187 654.242>
DStem2: 196 -20 375.783 -20 0.207912 0.978148<120.189 722.058 829.586 1501.77> 540 755 741 782 0.840841 0.541282<183.624 674.325> 826 -20 1005.78 -20 0.207912 0.978148<120.189 580.753>
LayerCount: 2
Fore
SplineSet
206 -20 m 1,0,-1
 196 -20 l 1,1,-1
 508 1449 l 1,2,-1
 695 1530 l 1,3,-1
 705 1530 l 1,4,-1
 540 755 l 1,5,-1
 1107 1120 l 1,6,-1
 1117 1120 l 1,7,-1
 1203 1072 l 1,8,-1
 741 782 l 1,9,-1
 751 782 l 2,10,11
 926 782 926 782 1026 698 c 0,12,13
 1112 626 1112 626 1112 514 c 0,14,15
 1112 480 1112 480 1104 442 c 2,16,-1
 1023 61 l 1,17,-1
 836 -20 l 1,18,-1
 826 -20 l 1,19,-1
 940 518 l 2,20,21
 945 542 945 542 945 566 c 0,22,23
 945 629 945 629 902 658 c 0,24,25
 842 700 842 700 754 700 c 128,-1,26
 666 700 666 700 588 658 c 0,27,28
 511 617 511 617 490 518 c 2,29,-1
 393 61 l 1,30,-1
 206 -20 l 1,0,-1
EndSplineSet
Validated: 1
EndChar

StartChar: l
Encoding: 108 108 78
Width: 580
GlyphClass: 2
Flags: W
HStem: -20 21G<196 252.173> 1510 20G<648.827 705>
VStem: 196 509
DStem2: 196 -20 375.783 -20 0.207912 0.978148<120.189 1501.77>
LayerCount: 2
Fore
SplineSet
196 -20 m 1,0,-1
 508 1449 l 1,1,-1
 695 1530 l 1,2,-1
 705 1530 l 1,3,-1
 393 61 l 1,4,-1
 206 -20 l 1,5,-1
 196 -20 l 1,0,-1
EndSplineSet
Validated: 1
EndChar

StartChar: m
Encoding: 109 109 79
Width: 1840
GlyphClass: 2
Flags: W
HStem: -20 21G<176 232.173 826 882.173 1476 1532.17> 1040 80<644.881 969.756 1295.32 1620.42>
VStem: 1667 168<792.099 997.085>
DStem2: 176 -20 355.783 -20 0.207912 0.978148<120.189 1031.81> 826 -20 1005.78 -20 0.207912 0.978148<120.189 944.802> 1476 -20 1655.78 -20 0.207912 0.978148<120.189 936.234>
LayerCount: 2
Fore
SplineSet
186 -20 m 1,0,-1
 176 -20 l 1,1,-1
 346 782 l 2,2,3
 386 969 386 969 502 1038 c 0,4,5
 641 1120 641 1120 813 1120 c 0,6,7
 979 1120 979 1120 1089 1038 c 0,8,9
 1104 1027 1104 1027 1115 1013 c 1,10,11
 1134 1026 1134 1026 1153 1038 c 0,12,13
 1292 1120 1292 1120 1463.5 1120 c 128,-1,14
 1635 1120 1635 1120 1749 1038 c 0,15,16
 1835 976 1835 976 1835 862 c 0,17,18
 1835 825 1835 825 1826 782 c 2,19,-1
 1673 61 l 1,20,-1
 1486 -20 l 1,21,-1
 1476 -20 l 1,22,-1
 1662 858 l 2,23,24
 1667 884 1667 884 1667 906 c 0,25,26
 1667 969 1667 969 1624 998 c 0,27,28
 1564 1040 1564 1040 1466 1040 c 128,-1,29
 1368 1040 1368 1040 1290.5 998.5 c 128,-1,30
 1213 957 1213 957 1192 858 c 2,31,-1
 1023 61 l 1,32,-1
 836 -20 l 1,33,-1
 826 -20 l 1,34,-1
 1012 858 l 2,35,36
 1017 884 1017 884 1017 906 c 0,37,38
 1017 969 1017 969 974 998 c 0,39,40
 914 1040 914 1040 816 1040 c 128,-1,41
 718 1040 718 1040 640.5 998.5 c 128,-1,42
 563 957 563 957 542 858 c 2,43,-1
 373 61 l 1,44,-1
 186 -20 l 1,0,-1
EndSplineSet
Validated: 1
EndChar

StartChar: n
Encoding: 110 110 80
Width: 1190
GlyphClass: 2
Flags: W
HStem: -20 21G<176 232.173 826 882.173> 1040 80<644.881 970.356>
VStem: 1017 168<792.099 997.085>
DStem2: 176 -20 355.783 -20 0.207912 0.978148<120.189 1031.81> 826 -20 1005.78 -20 0.207912 0.978148<120.189 936.234>
LayerCount: 2
Fore
SplineSet
186 -20 m 1,0,-1
 176 -20 l 9,1,-1
 346 782 l 2,2,3
 386 969 386 969 502 1038 c 0,4,5
 641 1120 641 1120 813 1120 c 128,-1,6
 985 1120 985 1120 1099 1038 c 0,7,8
 1185 976 1185 976 1185 862 c 0,9,10
 1185 825 1185 825 1176 782 c 2,11,-1
 1023 61 l 17,12,-1
 836 -20 l 1,13,-1
 826 -20 l 9,14,-1
 1012 858 l 2,15,16
 1017 884 1017 884 1017 906 c 0,17,18
 1017 969 1017 969 974 998 c 0,19,20
 914 1040 914 1040 816 1040 c 128,-1,21
 718 1040 718 1040 640.5 998.5 c 128,-1,22
 563 957 563 957 542 858 c 2,23,-1
 373 61 l 17,24,-1
 186 -20 l 1,0,-1
EndSplineSet
Validated: 1
EndChar

StartChar: o
Encoding: 111 111 81
Width: 1150
GlyphClass: 2
Flags: W
HStem: -20 80<440.279 754.112> 1040 80<629.653 943.044>
VStem: 220 175<103.377 422.188> 988 177<677.812 998.034>
DStem2: 156.156 -20 345.31 -20 0.207912 0.978148<271.598 1031.63> 795.375 -20 985.53 -20 0.207912 0.978148<173.313 938.443>
LayerCount: 2
Fore
SplineSet
588 60 m 128,-1,1
 686 60 686 60 758 101.5 c 128,-1,2
 830 143 830 143 851 242 c 2,3,-1
 982 858 l 2,4,5
 988 886 988 886 988 909 c 0,6,7
 988 968 988 968 948 998 c 0,8,9
 894 1040 894 1040 796 1040 c 128,-1,10
 698 1040 698 1040 625.5 998.5 c 128,-1,11
 553 957 553 957 532 858 c 2,12,-1
 401 242 l 2,13,14
 395 215 395 215 395 192 c 0,15,16
 395 132 395 132 435 102 c 0,17,0
 490 60 490 60 588 60 c 128,-1,1
591 -20 m 0,18,19
 409 -20 409 -20 305 62 c 0,20,21
 220 130 220 130 220 243 c 0,22,23
 220 278 220 278 228 318 c 2,24,-1
 326 782 l 2,25,26
 366 969 366 969 482 1038 c 0,27,28
 621 1120 621 1120 793 1120 c 128,-1,29
 965 1120 965 1120 1079 1038 c 0,30,31
 1165 976 1165 976 1165 862 c 0,32,33
 1165 825 1165 825 1156 782 c 2,34,-1
 1058 318 l 2,35,36
 1019 131 1019 131 902 62 c 0,37,38
 763 -20 763 -20 591 -20 c 0,18,19
EndSplineSet
Validated: 1
EndChar

StartChar: p
Encoding: 112 112 82
Width: 1170
GlyphClass: 2
Flags: W
HStem: -430 21G<89 145.173> -20 80<455.055 774.112> 1040 80<644.881 963.044>
VStem: 1008 177<677.812 998.034>
DStem2: 89 -430 268.783 -430 0.207912 0.978148<120.189 526.956 677.894 1450.94> 728.227 -430 918.381 -430 0.207912 0.978148<592.381 1357.6>
LayerCount: 2
Fore
SplineSet
608 60 m 128,-1,1
 706 60 706 60 778 101.5 c 128,-1,2
 850 143 850 143 871 242 c 2,3,-1
 1002 858 l 2,4,5
 1008 886 1008 886 1008 909 c 0,6,7
 1008 968 1008 968 968 998 c 0,8,9
 914 1040 914 1040 816 1040 c 128,-1,10
 718 1040 718 1040 640.5 998.5 c 128,-1,11
 563 957 563 957 542 858 c 2,12,-1
 411 242 l 2,13,14
 406 216 406 216 406 195 c 0,15,16
 406 134 406 134 450 102 c 0,17,0
 510 60 510 60 608 60 c 128,-1,1
99 -430 m 1,18,-1
 89 -430 l 1,19,-1
 346 782 l 2,20,21
 386 969 386 969 502 1038 c 0,22,23
 641 1120 641 1120 813 1120 c 128,-1,24
 985 1120 985 1120 1099 1038 c 0,25,26
 1185 976 1185 976 1185 862 c 0,27,28
 1185 825 1185 825 1176 782 c 2,29,-1
 1078 318 l 2,30,31
 1038 131 1038 131 922 62 c 0,32,33
 783 -20 783 -20 611 -20 c 0,34,35
 437 -20 437 -20 370 49 c 1,36,-1
 286 -349 l 1,37,-1
 99 -430 l 1,18,-1
EndSplineSet
Validated: 1
EndChar

StartChar: q
Encoding: 113 113 83
Width: 1170
GlyphClass: 2
Flags: W
HStem: -430 21G<719 775.173> -20 80<438.783 758.512> 1040 80<629.653 950.356>
VStem: 220 175<103.377 422.188> 997 168<675.547 998.049>
DStem2: 69.0077 -430 258.162 -430 0.207912 0.978148<690.758 1450.79> 719 -430 898.783 -430 0.207912 0.978148<120.189 489.532 551.827 1355.36>
LayerCount: 2
Fore
SplineSet
588 60 m 128,-1,1
 686 60 686 60 763 101.5 c 128,-1,2
 840 143 840 143 861 242 c 2,3,-1
 992 858 l 2,4,5
 997 884 997 884 997 906 c 0,6,7
 997 969 997 969 954 998 c 0,8,9
 894 1040 894 1040 796 1040 c 128,-1,10
 698 1040 698 1040 625.5 998.5 c 128,-1,11
 553 957 553 957 532 858 c 2,12,-1
 401 242 l 2,13,14
 395 215 395 215 395 192 c 0,15,16
 395 132 395 132 435 102 c 0,17,0
 490 60 490 60 588 60 c 128,-1,1
729 -430 m 1,18,-1
 719 -430 l 1,19,-1
 820 49 l 1,20,21
 724 -20 724 -20 581 -20 c 0,22,23
 409 -20 409 -20 305 62 c 0,24,25
 220 130 220 130 220 243 c 0,26,27
 220 278 220 278 228 318 c 2,28,-1
 326 782 l 2,29,30
 365 969 365 969 482 1038 c 0,31,32
 621 1120 621 1120 793 1120 c 128,-1,33
 965 1120 965 1120 1079 1038 c 0,34,35
 1165 976 1165 976 1165 862 c 0,36,37
 1165 825 1165 825 1156 782 c 2,38,-1
 916 -349 l 1,39,-1
 729 -430 l 1,18,-1
EndSplineSet
Validated: 1
EndChar

StartChar: r
Encoding: 114 114 84
Width: 780
GlyphClass: 2
Flags: W
HStem: -20 21G<176 232.173> 1020 80<640.895 954>
DStem2: 176 -20 355.783 -20 0.207912 0.978148<120.189 1011.42>
LayerCount: 2
Fore
SplineSet
186 -20 m 1,0,-1
 176 -20 l 9,1,-1
 342 762 l 2,2,3
 382 949 382 949 498 1018 c 0,4,5
 637 1100 637 1100 809 1100 c 2,6,-1
 1004 1100 l 1,7,-1
 1002 1090 l 1,8,-1
 954 1020 l 1,9,-1
 812 1020 l 2,10,11
 714 1020 714 1020 636 978 c 0,12,13
 559 937 559 937 538 838 c 2,14,-1
 373 61 l 17,15,-1
 186 -20 l 1,0,-1
EndSplineSet
Validated: 1
EndChar

StartChar: t
Encoding: 116 116 85
Width: 780
GlyphClass: 2
Flags: W
HStem: -20 21G<296 352.076> 1020 80<277 517 709 954> 1510 20G<743.924 800>
DStem2: 296 -20 471.208 -20 0.207912 0.978148<117.193 1063.22 1181.39 1503.72>
LayerCount: 2
Fore
SplineSet
296 -20 m 1,0,-1
 517 1020 l 1,1,-1
 227 1020 l 1,2,-1
 229 1030 l 1,3,-1
 277 1100 l 1,4,-1
 534 1100 l 1,5,-1
 608 1451 l 1,6,-1
 790 1530 l 1,7,-1
 800 1530 l 1,8,-1
 709 1100 l 1,9,-1
 1004 1100 l 1,10,-1
 1002 1090 l 1,11,-1
 954 1020 l 1,12,-1
 692 1020 l 1,13,-1
 488 59 l 1,14,-1
 306 -20 l 1,15,-1
 296 -20 l 1,0,-1
EndSplineSet
Validated: 1
EndChar

StartChar: u
Encoding: 117 117 86
Width: 1190
GlyphClass: 2
Flags: W
HStem: -20 80<453.644 778.884> 1100 20G<541.827 598 1191.83 1248>
VStem: 239 167<103.396 307.557>
DStem2: 176.156 -20 355.31 -20 0.207912 0.978148<266.561 1082.61> 825.31 -20 1006.16 -20 0.207912 0.978148<172.913 1082.78>
LayerCount: 2
Fore
SplineSet
611 -20 m 128,-1,1
 439 -20 439 -20 325 62 c 0,2,3
 239 124 239 124 239 238 c 0,4,5
 239 275 239 275 248 318 c 2,6,-1
 401 1039 l 17,7,-1
 588 1120 l 1,8,-1
 598 1120 l 9,9,-1
 411 242 l 2,10,11
 406 216 406 216 406 195 c 0,12,13
 406 134 406 134 450 102 c 0,14,15
 510 60 510 60 608 60 c 128,-1,16
 706 60 706 60 783 101.5 c 128,-1,17
 860 143 860 143 881 242 c 2,18,-1
 1051 1039 l 17,19,-1
 1238 1120 l 1,20,-1
 1248 1120 l 9,21,-1
 1078 318 l 2,22,23
 1038 131 1038 131 922 62 c 0,24,0
 783 -20 783 -20 611 -20 c 128,-1,1
EndSplineSet
Validated: 1
EndChar

StartChar: v
Encoding: 118 118 87
Width: 961
GlyphClass: 2
Flags: W
HStem: -20 21G<386.015 445.4> 1100 20G<339.824 398.899 1090.28 1149>
DStem2: 396 1120 229 1052 0.147619 -0.989044<42.6027 976.083> 536 154 573 55 0.513264 0.858231<0 1119.56>
LayerCount: 2
Fore
SplineSet
399 -20 m 1,0,-1
 389 -20 l 1,1,-1
 229 1052 l 1,2,-1
 386 1120 l 1,3,-1
 396 1120 l 1,4,-1
 536 154 l 1,5,-1
 1102 1120 l 1,6,-1
 1112 1120 l 1,7,-1
 1186 1080 l 1,8,-1
 573 55 l 1,9,-1
 399 -20 l 1,0,-1
EndSplineSet
Validated: 1
EndChar

StartChar: w
Encoding: 119 119 88
Width: 1840
GlyphClass: 2
Flags: W
HStem: -20 80<453.581 778.443 1104.24 1428.88> 1100 20G<541.827 598 1191.83 1248 1841.83 1898>
VStem: 239 167<103.396 307.557>
DStem2: 176.156 -20 355.31 -20 0.207912 0.978148<266.561 1082.61> 825.31 -20 1005.31 -20 0.207912 0.978148<258.908 1082.78> 1475.31 -20 1656.16 -20 0.207912 0.978148<172.913 1082.78>
LayerCount: 2
Fore
SplineSet
610.5 -20 m 128,-1,1
 439 -20 439 -20 325 62 c 0,2,3
 239 124 239 124 239 238 c 0,4,5
 239 275 239 275 248 318 c 2,6,-1
 401 1039 l 1,7,-1
 588 1120 l 1,8,-1
 598 1120 l 1,9,-1
 411 242 l 2,10,11
 406 216 406 216 406 195 c 0,12,13
 406 134 406 134 450 102 c 0,14,15
 510 60 510 60 608 60 c 128,-1,16
 706 60 706 60 783 101.5 c 128,-1,17
 860 143 860 143 881 242 c 2,18,-1
 1051 1039 l 1,19,-1
 1238 1120 l 1,20,-1
 1248 1120 l 1,21,-1
 1061 242 l 2,22,23
 1056 216 1056 216 1056 195 c 0,24,25
 1056 134 1056 134 1100 102 c 0,26,27
 1160 60 1160 60 1258 60 c 128,-1,28
 1356 60 1356 60 1433 101.5 c 128,-1,29
 1510 143 1510 143 1531 242 c 2,30,-1
 1701 1039 l 1,31,-1
 1888 1120 l 1,32,-1
 1898 1120 l 1,33,-1
 1728 318 l 2,34,35
 1688 131 1688 131 1572 62 c 0,36,37
 1433 -20 1433 -20 1261 -20 c 0,38,39
 1095 -20 1095 -20 985 62 c 0,40,41
 970 73 970 73 958 87 c 1,42,43
 939 73 939 73 921 62 c 0,44,0
 782 -20 782 -20 610.5 -20 c 128,-1,1
EndSplineSet
Validated: 1
EndChar

StartChar: x
Encoding: 120 120 89
Width: 892
GlyphClass: 2
Flags: W
HStem: -20 21G<74.1111 140.401 695.806 759.938> 1100 20G<365.75 430.15 984.599 1048.84>
DStem2: 43 16 123 -20 0.655789 0.754944<25.2852 627.066 860.579 1462.36> 422 1120 264 1056 0.378499 -0.925602<0 490.245 671.299 1161.92>
LayerCount: 2
Fore
SplineSet
123 -20 m 1,0,-1
 113 -20 l 1,1,-1
 43 16 l 1,2,-1
 482 522 l 1,3,-1
 264 1056 l 1,4,-1
 412 1120 l 1,5,-1
 422 1120 l 1,6,-1
 607 666 l 1,7,-1
 1002 1120 l 1,8,-1
 1012 1120 l 1,9,-1
 1082 1082 l 1,10,-1
 643 578 l 1,11,-1
 861 44 l 1,12,-1
 714 -20 l 1,13,-1
 704 -20 l 1,14,-1
 518 434 l 1,15,-1
 123 -20 l 1,0,-1
EndSplineSet
Validated: 19457
EndChar

StartChar: y
Encoding: 121 121 90
Width: 1210
GlyphClass: 2
Flags: W
HStem: -410 80<283 694> -20 80<453.644 778.327> 1100 20G<541.827 598 1191.83 1248>
VStem: 239 167<103.396 307.557>
DStem2: 93.2588 -410 272.413 -410 0.207912 0.978148<665.274 1481.32> 743.31 -410 923.156 -410 0.207912 0.978148<176.185 469.073 531.368 1481.31>
LayerCount: 2
Fore
SplineSet
233 -410 m 1,0,-1
 235 -400 l 1,1,-1
 283 -330 l 1,2,-1
 525 -330 l 2,3,4
 623 -330 623 -330 700 -288 c 0,5,6
 779 -246 779 -246 799 -148 c 2,7,-1
 840 49 l 1,8,9
 741 -20 741 -20 611 -20 c 0,10,11
 439 -20 439 -20 325 62 c 0,12,13
 239 124 239 124 239 238 c 0,14,15
 239 275 239 275 248 318 c 2,16,-1
 401 1039 l 1,17,-1
 588 1120 l 1,18,-1
 598 1120 l 1,19,-1
 411 242 l 2,20,21
 406 216 406 216 406 195 c 0,22,23
 406 134 406 134 450 102 c 0,24,25
 510 60 510 60 608 60 c 128,-1,26
 706 60 706 60 783 101.5 c 128,-1,27
 860 143 860 143 881 242 c 2,28,-1
 1051 1039 l 1,29,-1
 1238 1120 l 1,30,-1
 1248 1120 l 1,31,-1
 995 -72 l 2,32,33
 956 -256 956 -256 838 -328 c 0,34,35
 705 -410 705 -410 528 -410 c 2,36,-1
 233 -410 l 1,0,-1
EndSplineSet
Validated: 1
EndChar

StartChar: z
Encoding: 122 122 91
Width: 850
GlyphClass: 2
Flags: W
HStem: 0 80<295 777> 1020 80<337 790>
DStem2: 42 10 295 80 0.595151 0.803614<206.826 1256.82>
LayerCount: 2
Fore
SplineSet
40 0 m 1,0,-1
 42 10 l 1,1,-1
 790 1020 l 1,2,-1
 287 1020 l 1,3,-1
 289 1030 l 1,4,-1
 337 1100 l 1,5,-1
 1044 1100 l 1,6,-1
 1042 1090 l 1,7,-1
 295 80 l 1,8,-1
 827 80 l 1,9,-1
 825 70 l 1,10,-1
 777 0 l 1,11,-1
 40 0 l 1,0,-1
EndSplineSet
Validated: 19457
EndChar

StartChar: braceleft
Encoding: 123 123 92
Width: 830
GlyphClass: 2
Flags: W
HStem: -240 90<550.86 729> 710 90<258 425> 1660 90<918.98 1133>
VStem: 297 186<-90.6233 139.965>
DStem2: 223.127 -240 423.257 -240 0.207912 0.978148<311.221 971.212 1063.2 1852.8>
CounterMasks: 1 e0
LayerCount: 2
Fore
SplineSet
729 -240 m 1,0,1
 520 -240 520 -240 392 -144 c 0,2,3
 297 -73 297 -73 297 61 c 0,4,5
 297 108 297 108 309 164 c 2,6,-1
 425 710 l 1,7,-1
 201 710 l 1,8,-1
 203 720 l 1,9,-1
 258 800 l 1,10,-1
 444 800 l 1,11,-1
 560 1346 l 2,12,13
 608 1571 608 1571 754 1654 c 0,14,15
 922 1750 922 1750 1152 1750 c 1,16,-1
 1133 1660 l 1,17,18
 1007 1660 1007 1660 906.5 1611.5 c 128,-1,19
 806 1563 806 1563 779 1436 c 2,20,-1
 490 74 l 2,21,22
 483 41 483 41 483 14 c 0,23,24
 483 -66 483 -66 542 -102 c 0,25,26
 622 -150 622 -150 748 -150 c 1,27,-1
 729 -240 l 1,0,1
EndSplineSet
Validated: 1
EndChar

StartChar: bar
Encoding: 124 124 93
Width: 650
GlyphClass: 2
Flags: W
VStem: 207 556
DStem2: 207 -200 357.971 -200 0.207912 0.978148<98.8632 1885.21>
LayerCount: 2
Fore
SplineSet
207 -200 m 1,0,-1
 599 1644 l 1,1,-1
 753 1710 l 1,2,-1
 763 1710 l 1,3,-1
 372 -134 l 1,4,-1
 217 -200 l 1,5,-1
 207 -200 l 1,0,-1
EndSplineSet
Validated: 1
EndChar

StartChar: braceright
Encoding: 125 125 94
Width: 756
GlyphClass: 2
Flags: W
HStem: -240 90<18 232.815> 710 90<726 893> 1660 90<422 600.401>
VStem: 668 186<1263.22 1600.8>
DStem2: 305.257 -240 505.127 -240 0.207912 0.978148<223.338 1012.77 1104.75 1764.74>
CounterMasks: 1 e0
LayerCount: 2
Fore
SplineSet
-1 -240 m 1,0,-1
 18 -150 l 1,1,2
 144 -150 144 -150 244 -102 c 0,3,4
 345 -52 345 -52 372 74 c 2,5,-1
 661 1436 l 2,6,7
 668 1468 668 1468 668 1495 c 0,8,9
 668 1576 668 1576 608 1612 c 0,10,11
 528 1660 528 1660 403 1660 c 1,12,-1
 422 1750 l 1,13,14
 632 1750 632 1750 760 1654 c 0,15,16
 854 1583 854 1583 854 1449 c 0,17,18
 854 1402 854 1402 842 1346 c 2,19,-1
 726 800 l 1,20,-1
 950 800 l 1,21,-1
 948 790 l 1,22,-1
 893 710 l 1,23,-1
 707 710 l 1,24,-1
 591 164 l 2,25,26
 544 -61 544 -61 398 -144 c 0,27,28
 230 -240 230 -240 -1 -240 c 1,0,-1
EndSplineSet
Validated: 1
EndChar

StartChar: asciitilde
Encoding: 126 126 95
Width: 1138
GlyphClass: 2
Flags: W
HStem: 576 127<836.669 1009.53> 810 127<449.556 622.331>
LayerCount: 2
Fore
SplineSet
605 937 m 0,0,1
 714 937 714 937 789 810 c 0,2,3
 853 703 853 703 926 703 c 0,4,5
 1041 703 1041 703 1084 896 c 1,6,-1
 1177 937 l 1,7,-1
 1187 937 l 1,8,9
 1110 576 1110 576 854 576 c 0,10,11
 745 576 745 576 670 703 c 0,12,13
 606 810 606 810 533 810 c 0,14,15
 418 810 418 810 376 617 c 1,16,-1
 282 576 l 1,17,-1
 272 576 l 1,18,19
 349 937 349 937 605 937 c 0,0,1
EndSplineSet
Validated: 1
EndChar

StartChar: exclamdown
Encoding: 161 161 97
Width: 600
GlyphClass: 2
Flags: W
HStem: -430 21G<109 165.444> 875 245<436.711 587.42>
VStem: 389 246<922.592 1071.76>
DStem2: 109 -430 308.87 -430 0.207912 0.978148<133.566 1063.22>
LayerCount: 2
Fore
SplineSet
538 1120 m 0,0,1
 590 1120 590 1120 616 1084 c 0,2,3
 635 1059 635 1059 635 1025 c 0,4,5
 635 1011 635 1011 632 997 c 0,6,7
 621 947 621 947 578.5 911 c 128,-1,8
 536 875 536 875 486 875 c 128,-1,9
 436 875 436 875 408 911 c 0,10,11
 389 936 389 936 389 970 c 0,12,13
 389 983 389 983 392 997 c 0,14,15
 403 1047 403 1047 445.5 1083.5 c 128,-1,16
 488 1120 488 1120 538 1120 c 0,0,1
119 -430 m 1,17,-1
 109 -430 l 1,18,-1
 330 610 l 1,19,-1
 539 700 l 1,20,-1
 549 700 l 1,21,-1
 328 -340 l 1,22,-1
 119 -430 l 1,17,-1
EndSplineSet
Validated: 1
EndChar

StartChar: cent
Encoding: 162 162 98
Width: 1070
GlyphClass: 2
Flags: W
HStem: -16 79<436.256 521> 1037 80<862 944.806>
VStem: 219 176<102.945 306.46> 983 172<803.148 999.793>
DStem2: 134.9 -120 324.055 -120 0.207912 0.978148<368.795 1133.86> 499 -120 599.073 -120 0.207912 0.978148<63.7446 106.301 207.901 1182.86 1285.44 1327.02>
LayerCount: 2
Fore
SplineSet
608 -78 m 1,0,-1
 509 -120 l 1,1,-1
 499 -120 l 1,2,-1
 521 -16 l 1,3,4
 395 -2 395 -2 305 62 c 0,5,6
 219 124 219 124 219 238 c 0,7,8
 219 275 219 275 228 318 c 2,9,-1
 326 782 l 2,10,11
 365 969 365 969 482 1038 c 0,12,13
 609 1113 609 1113 763 1119 c 1,14,-1
 775 1178 l 1,15,-1
 874 1220 l 1,16,-1
 884 1220 l 1,17,-1
 862 1117 l 1,18,19
 994 1104 994 1104 1079 1038 c 0,20,21
 1155 980 1155 980 1155 856 c 0,22,23
 1155 835 1155 835 1152 811 c 1,24,-1
 960 727 l 1,25,-1
 950 727 l 1,26,-1
 977 858 l 2,27,28
 983 887 983 887 983 909 c 0,29,30
 983 968 983 968 946 998 c 0,31,32
 908 1029 908 1029 845 1037 c 1,33,-1
 638 63 l 1,34,35
 705 71 705 71 756 102 c 0,36,37
 824 142 824 142 846 242 c 2,38,-1
 859 300 l 1,39,-1
 1062 388 l 1,40,-1
 1072 388 l 1,41,-1
 1058 318 l 2,42,43
 1021 132 1021 132 902 62 c 0,44,45
 775 -13 775 -13 620 -19 c 1,46,-1
 608 -78 l 1,0,-1
538 63 m 1,47,-1
 745 1037 l 1,48,49
 678 1028 678 1028 626 998 c 0,50,51
 554 957 554 957 532 858 c 2,52,-1
 401 242 l 2,53,54
 395 214 395 214 395 192 c 0,55,56
 395 132 395 132 435 102 c 0,57,58
 475 71 475 71 538 63 c 1,47,-1
EndSplineSet
Validated: 1
EndChar

StartChar: sterling
Encoding: 163 163 99
Width: 1335
GlyphClass: 2
Flags: W
HStem: 0 90<207 319 519 1147> 645 90<345 437 656 1014> 1440 90<861.149 1151.22>
VStem: 1188 195<1214.33 1399.78>
DStem2: 299.87 0 499.87 0 0.207912 0.978148<133.593 659.416 792.982 1429.65>
LayerCount: 2
Fore
SplineSet
150 0 m 1,0,-1
 152 10 l 1,1,-1
 207 90 l 1,2,-1
 319 90 l 1,3,-1
 437 645 l 1,4,-1
 288 645 l 1,5,-1
 290 655 l 1,6,-1
 345 735 l 1,7,-1
 456 735 l 1,8,-1
 553 1192 l 2,9,10
 593 1379 593 1379 709 1448 c 0,11,12
 848 1530 848 1530 1020 1530 c 0,13,14
 1198 1530 1198 1530 1306 1448 c 0,15,16
 1383 1390 1383 1390 1383 1263 c 0,17,18
 1383 1243 1383 1243 1380 1222 c 1,19,-1
 1165 1130 l 1,20,-1
 1155 1130 l 1,21,-1
 1182 1258 l 2,22,23
 1188 1286 1188 1286 1188 1310 c 0,24,25
 1188 1368 1188 1368 1151 1398 c 0,26,27
 1099 1440 1099 1440 1021 1440 c 128,-1,28
 943 1440 943 1440 866 1398 c 0,29,30
 788 1357 788 1357 767 1258 c 2,31,-1
 656 735 l 1,32,-1
 1071 735 l 1,33,-1
 1069 725 l 1,34,-1
 1014 645 l 1,35,-1
 637 645 l 1,36,-1
 519 90 l 1,37,-1
 1204 90 l 1,38,-1
 1202 80 l 1,39,-1
 1147 0 l 1,40,-1
 150 0 l 1,0,-1
EndSplineSet
Validated: 1
EndChar

StartChar: currency
Encoding: 164 164 100
Width: 1395
GlyphClass: 2
Flags: W
HStem: 241 90<568.795 980.819> 1178 91<726.073 1145.8>
VStem: 318 183<418.817 730.469> 1210 183<779.531 1096.73>
DStem2: 241.127 241 441.257 241 0.207912 0.978148<332.14 848.978> 1051.26 241 1251.13 241 0.207912 0.978148<242.02 758.475>
LayerCount: 2
Fore
SplineSet
766 331 m 0,0,1
 892 331 892 331 991.5 379.5 c 128,-1,2
 1091 428 1091 428 1118 555 c 2,3,-1
 1203 955 l 2,4,5
 1210 988 1210 988 1210 1015 c 0,6,7
 1210 1094 1210 1094 1152 1130 c 0,8,9
 1074 1178 1074 1178 946.5 1178 c 128,-1,10
 819 1178 819 1178 719.5 1130 c 128,-1,11
 620 1082 620 1082 593 955 c 2,12,-1
 508 555 l 2,13,14
 501 523 501 523 501 495 c 0,15,16
 501 416 501 416 560 380 c 0,17,18
 639 332 639 332 766 331 c 0,0,1
946 1269 m 0,19,20
 1117 1269 1117 1269 1249 1193 c 1,21,-1
 1326 1255 l 1,22,-1
 1491 1191 l 1,23,-1
 1497 1184 l 1,24,-1
 1364 1075 l 1,25,26
 1393 1015 1393 1015 1393 945 c 0,27,28
 1393 906 1393 906 1384 865 c 2,29,-1
 1337 645 l 2,30,31
 1309 515 1309 515 1236 430 c 1,32,-1
 1315 330 l 1,33,-1
 1307 323 l 1,34,-1
 1114 259 l 1,35,-1
 1073 310 l 1,36,37
 925 241 925 241 767 241 c 0,38,39
 589 241 589 241 452 322 c 1,40,-1
 394 275 l 1,41,-1
 229 339 l 1,42,-1
 224 346 l 1,43,-1
 344 445 l 1,44,45
 318 498 318 498 318 563 c 0,46,47
 318 602 318 602 327 645 c 2,48,-1
 374 865 l 2,49,50
 402 997 402 997 479 1085 c 1,51,-1
 402 1184 l 1,52,-1
 410 1191 l 1,53,-1
 602 1255 l 1,54,-1
 643 1202 l 1,55,56
 790 1269 790 1269 946 1269 c 0,19,20
EndSplineSet
Validated: 1
EndChar

StartChar: yen
Encoding: 165 165 101
Width: 1310
GlyphClass: 2
Flags: W
HStem: -20 21G<551 607.444> 114 90<371 579 798 1006> 314 90<414 622 841 1049> 1510 20G<628.556 685 1418.56 1475>
VStem: 327 185<587.909 810.968>
DStem2: 156.052 -20 356.182 -20 0.207912 0.978148<781.26 1492.54> 946.182 -20 1146.05 -20 0.207912 0.978148<687.787 1492.51>
LayerCount: 2
Fore
SplineSet
561 -20 m 1,0,-1
 551 -20 l 1,1,-1
 579 114 l 1,2,-1
 314 114 l 1,3,-1
 316 124 l 1,4,-1
 371 204 l 1,5,-1
 598 204 l 1,6,-1
 622 314 l 1,7,-1
 357 314 l 1,8,-1
 359 324 l 1,9,-1
 414 404 l 1,10,-1
 641 404 l 1,11,-1
 648 438 l 1,12,13
 525 454 525 454 429 528 c 0,14,15
 327 605 327 605 327 741 c 0,16,17
 327 785 327 785 338 836 c 2,18,-1
 466 1440 l 1,19,-1
 675 1530 l 1,20,-1
 685 1530 l 1,21,-1
 519 746 l 2,22,23
 512 713 512 713 512 686 c 0,24,25
 512 606 512 606 570 570 c 0,26,27
 648 522 648 522 765 522 c 128,-1,28
 882 522 882 522 982 570.5 c 128,-1,29
 1082 619 1082 619 1109 746 c 2,30,-1
 1256 1440 l 1,31,-1
 1465 1530 l 1,32,-1
 1475 1530 l 1,33,-1
 1328 836 l 2,34,35
 1281 614 1281 614 1134 528 c 0,36,37
 1003 452 1003 452 848 438 c 1,38,-1
 841 404 l 1,39,-1
 1106 404 l 1,40,-1
 1104 394 l 1,41,-1
 1049 314 l 1,42,-1
 822 314 l 1,43,-1
 798 204 l 1,44,-1
 1063 204 l 1,45,-1
 1061 194 l 1,46,-1
 1006 114 l 1,47,-1
 779 114 l 1,48,-1
 770 70 l 1,49,-1
 561 -20 l 1,0,-1
EndSplineSet
Validated: 1
EndChar

StartChar: brokenbar
Encoding: 166 166 102
Width: 650
GlyphClass: 2
Flags: W
VStem: 207 556
DStem2: 207 -200 357.971 -200 0.207912 0.978148<98.8632 804.731 1171.1 1885.21>
LayerCount: 2
Fore
SplineSet
207 -200 m 1,0,-1
 375 587 l 1,1,-1
 529 653 l 1,2,-1
 539 653 l 1,3,-1
 372 -134 l 1,4,-1
 217 -200 l 1,5,-1
 207 -200 l 1,0,-1
753 1710 m 1,6,-1
 763 1710 l 1,7,-1
 594 915 l 1,8,-1
 440 849 l 1,9,-1
 430 849 l 1,10,-1
 599 1644 l 1,11,-1
 753 1710 l 1,6,-1
EndSplineSet
Validated: 1
EndChar

StartChar: section
Encoding: 167 167 103
Width: 1078
GlyphClass: 2
Flags: W
HStem: -20 79<445.591 672.432> 461 80<517.235 739.17> 969 80<658.83 880.765> 1451 79<725.568 952.409>
VStem: 255 167<84.0742 243.344> 302 182<582.942 764.281> 462 178<1074.66 1360.61> 758 178<149.39 435.342> 914 182<745.719 927.058> 976 167<1266.66 1425.93>
DStem2: 145.182 -20 334.896 -20 0.207912 0.978148<736.228 991.259> 205.13 -20 389.145 -20 0.207912 0.978148<1229.47 1494.14> 679.393 -20 863.407 -20 0.207912 0.978148<128.749 393.418> 734.162 -20 924.447 -20 0.207912 0.978148<632.704 887.736>
LayerCount: 2
Fore
SplineSet
549 -20 m 0,0,1
 409 -20 409 -20 326 52 c 0,2,3
 255 111 255 111 255 205 c 0,4,5
 255 219 255 219 257 235 c 1,6,-1
 443 315 l 1,7,-1
 453 315 l 1,8,-1
 425 181 l 2,9,10
 422 167 422 167 422 150 c 0,11,12
 422 109 422 109 449 88 c 0,13,14
 486 59 486 59 548 59 c 0,15,16
 608 59 608 59 657 87 c 0,17,18
 710 116 710 116 723 181 c 2,19,-1
 754 331 l 2,20,21
 758 350 758 350 758 366 c 0,22,23
 758 402 758 402 740 426 c 0,24,25
 714 461 714 461 618 461 c 0,26,27
 451 461 451 461 366 541 c 0,28,29
 302 601 302 601 302 690 c 0,30,31
 302 716 302 716 308 746 c 2,32,-1
 322 817 l 2,33,34
 340 909 340 909 422 990 c 1,35,-1
 537 911 l 1,36,37
 527 885 527 885 521 858 c 2,38,-1
 489 705 l 2,39,40
 484 681 484 681 484 660 c 0,41,42
 484 612 484 612 512 582 c 0,43,44
 551 541 551 541 641 541 c 0,45,46
 799 541 799 541 876 473 c 0,47,48
 936 421 936 421 936 344 c 0,49,50
 936 323 936 323 931 298 c 2,51,-1
 916 223 l 2,52,53
 893 106 893 106 802 50 c 0,54,55
 690 -20 690 -20 549 -20 c 0,0,1
849 1530 m 0,56,57
 989 1530 989 1530 1072 1458 c 0,58,59
 1143 1399 1143 1399 1143 1305 c 0,60,61
 1143 1291 1143 1291 1141 1275 c 1,62,-1
 955 1195 l 1,63,-1
 945 1195 l 1,64,-1
 973 1329 l 2,65,66
 976 1343 976 1343 976 1360 c 0,67,68
 976 1401 976 1401 949 1422 c 0,69,70
 912 1451 912 1451 850 1451 c 0,71,72
 790 1451 790 1451 741 1423 c 0,73,74
 688 1394 688 1394 675 1329 c 2,75,-1
 644 1179 l 2,76,77
 640 1160 640 1160 640 1144 c 0,78,79
 640 1108 640 1108 658 1084 c 0,80,81
 684 1049 684 1049 780 1049 c 0,82,83
 947 1049 947 1049 1032 969 c 0,84,85
 1096 909 1096 909 1096 820 c 0,86,87
 1096 794 1096 794 1090 764 c 2,88,-1
 1076 693 l 2,89,90
 1058 601 1058 601 976 520 c 1,91,-1
 861 599 l 1,92,93
 871 625 871 625 877 652 c 2,94,-1
 909 805 l 2,95,96
 914 829 914 829 914 850 c 0,97,98
 914 898 914 898 886 928 c 0,99,100
 847 969 847 969 757 969 c 0,101,102
 599 969 599 969 522 1037 c 0,103,104
 462 1089 462 1089 462 1166 c 0,105,106
 462 1187 462 1187 467 1212 c 2,107,-1
 482 1287 l 2,108,109
 505 1404 505 1404 596 1460 c 0,110,111
 708 1530 708 1530 849 1530 c 0,56,57
EndSplineSet
Validated: 1
EndChar

StartChar: dieresis
Encoding: 168 168 104
Width: 600
GlyphClass: 2
Flags: W
HStem: 1230 227<374.232 520.636 650.141 796.574>
VStem: 333 229<1271.58 1415.8> 610 229<1272.58 1416.8>
LayerCount: 2
Fore
SplineSet
749 1458 m 128,-1,1
 795 1458 795 1458 821 1425 c 0,2,3
 839 1402 839 1402 839 1369 c 0,4,5
 839 1357 839 1357 837 1345 c 0,6,7
 827 1299 827 1299 786.5 1265 c 128,-1,8
 746 1231 746 1231 700 1231 c 0,9,10
 655 1231 655 1231 629 1265 c 0,11,12
 610 1289 610 1289 610 1320 c 0,13,14
 611 1333 611 1333 613 1345 c 0,15,16
 623 1391 623 1391 663 1424.5 c 128,-1,0
 703 1458 703 1458 749 1458 c 128,-1,1
472 1457 m 128,-1,18
 518 1457 518 1457 544 1424 c 0,19,20
 562 1401 562 1401 562 1368 c 0,21,22
 562 1356 562 1356 560 1344 c 0,23,24
 550 1298 550 1298 509.5 1264 c 128,-1,25
 469 1230 469 1230 423 1230 c 0,26,27
 378 1230 378 1230 352 1264 c 0,28,29
 333 1288 333 1288 333 1319 c 0,30,31
 334 1332 334 1332 336 1344 c 0,32,33
 346 1390 346 1390 386 1423.5 c 128,-1,17
 426 1457 426 1457 472 1457 c 128,-1,18
EndSplineSet
Validated: 1
EndChar

StartChar: copyright
Encoding: 169 169 105
Width: 1401
GlyphClass: 2
Flags: W
HStem: 386 52<634.584 955.646> 546 65<744.384 949.501> 1296 64<873.334 1076.12> 1478 52<854.632 1173.39>
VStem: 332 59<686.575 1015.56> 593 134<625.987 897.117> 1093 129<1130.71 1281.06> 1416 59<900.437 1234>
DStem2: 517.803 386 662.62 386 0.207912 0.978148<339.158 929.517>
LayerCount: 2
Fore
SplineSet
987 1360 m 0,0,1
 1103 1360 1103 1360 1171 1310 c 0,2,3
 1222 1273 1222 1273 1222 1182 c 0,4,5
 1222 1161 1222 1161 1219 1138 c 1,6,-1
 1075 1083 l 1,7,-1
 1065 1083 l 1,8,-1
 1090 1204 l 2,9,10
 1093 1219 1093 1219 1093 1230 c 0,11,12
 1093 1263 1093 1263 1071 1276 c 0,13,14
 1038 1296 1038 1296 983 1296 c 0,15,16
 857 1296 857 1296 837 1204 c 2,17,-1
 730 703 l 2,18,19
 727 689 727 689 727 678 c 0,20,21
 727 646 727 646 750 631 c 0,22,23
 780 611 780 611 838 611 c 0,24,25
 963 611 963 611 984 703 c 2,26,-1
 1001 779 l 1,27,-1
 1149 833 l 1,28,-1
 1159 833 l 1,29,-1
 1145 769 l 2,30,31
 1118 646 1118 646 1037 599 c 0,32,33
 944 546 944 546 834 546 c 0,34,35
 717 546 717 546 648 599 c 0,36,37
 593 641 593 641 593 716 c 0,38,39
 593 740 593 740 599 768 c 2,40,-1
 678 1139 l 2,41,42
 704 1262 704 1262 784 1308 c 0,43,44
 875 1360 875 1360 987 1360 c 0,0,1
784 386 m 0,45,46
 558 386 558 386 428 549 c 0,47,48
 332 669 332 669 332 841 c 0,49,50
 332 890 332 890 340 943 c 0,51,52
 375 1183 375 1183 585 1362 c 0,53,54
 782 1530 782 1530 1023 1530 c 0,55,56
 1249 1530 1249 1530 1379 1367 c 0,57,58
 1475 1247 1475 1247 1475 1075 c 0,59,60
 1475 1026 1475 1026 1467 973 c 0,61,62
 1432 733 1432 733 1222 554 c 0,63,64
 1024 386 1024 386 784 386 c 0,45,46
1013 1478 m 0,65,66
 813 1478 813 1478 633 1330 c 0,67,68
 451 1181 451 1181 403 953 c 0,69,70
 391 897 391 897 391 843 c 0,71,72
 391 704 391 704 472 587 c 0,73,74
 575 438 575 438 794 438 c 0,75,76
 994 438 994 438 1174 586 c 0,77,78
 1356 735 1356 735 1404 963 c 0,79,80
 1416 1022 1416 1022 1416 1077 c 0,81,82
 1416 1216 1416 1216 1338 1329 c 0,83,84
 1235 1478 1235 1478 1013 1478 c 0,65,66
EndSplineSet
Validated: 1
EndChar

StartChar: ordfeminine
Encoding: 170 170 106
Width: 554
GlyphClass: 2
Flags: W
HStem: 790 120<295 620> 969 67<416.949 576> 1325 67<463.613 627.649> 1504 66<490 662.727>
VStem: 291 122<1039.25 1169.25> 667 122<1301.19 1499.31>
DStem2: 217.779 790 347.832 790 0.207912 0.978148<332.756 567.842> 529.832 790 657.75 790 0.207912 0.978148<258.667 494.212 596.638 672.439>
LayerCount: 2
Fore
SplineSet
490 1570 m 1,0,-1
 586 1570 l 2,1,2
 682 1570 682 1570 740 1524 c 0,3,4
 789 1485 789 1485 789 1423 c 0,5,6
 789 1403 789 1403 784 1381 c 2,7,-1
 706 1017 l 1,8,-1
 576 969 l 1,9,-1
 566 969 l 1,10,-1
 570 987 l 1,11,12
 528 970 528 970 470 970 c 0,13,14
 402 970 402 970 339 1016 c 0,15,16
 291 1051 291 1051 291 1114 c 0,17,18
 291 1134 291 1134 296 1158 c 2,19,-1
 306 1204 l 2,20,21
 329 1309 329 1309 395 1347 c 0,22,23
 473 1392 473 1392 540 1392 c 0,24,25
 617 1392 617 1392 652 1374 c 1,26,-1
 665 1434 l 2,27,28
 667 1443 667 1443 667 1451 c 0,29,30
 667 1504 667 1504 582 1504 c 2,31,-1
 450 1504 l 1,32,-1
 452 1514 l 1,33,-1
 490 1570 l 1,0,-1
415 1106 m 2,34,35
 413 1096 413 1096 413 1088 c 0,36,37
 413 1036 413 1036 492 1036 c 0,38,39
 582 1036 582 1036 597 1106 c 2,40,-1
 629 1256 l 2,41,42
 631 1266 631 1266 631 1274 c 0,43,44
 631 1325 631 1325 553 1325 c 0,45,46
 462 1325 462 1325 447 1256 c 2,47,-1
 415 1106 l 2,34,35
218 790 m 1,48,-1
 220 800 l 1,49,-1
 295 910 l 1,50,-1
 697 910 l 1,51,-1
 695 900 l 1,52,-1
 620 790 l 1,53,-1
 218 790 l 1,48,-1
EndSplineSet
Validated: 1
EndChar

StartChar: guillemotleft
Encoding: 171 171 107
Width: 1100
GlyphClass: 2
Flags: W
DStem2: 310 755 458 818 0.625082 0.780559<141.687 630.317> 458 818 310 755 0.355733 -0.934588<6.23058 475.076> 662 755 810 818 0.625082 0.780559<141.687 630.317> 810 818 662 755 0.355733 -0.934588<6.23058 475.076>
LayerCount: 2
Fore
SplineSet
662 755 m 1,0,-1
 1056 1247 l 1,1,-1
 1066 1247 l 1,2,-1
 1129 1213 l 1,3,-1
 810 818 l 1,4,-1
 979 374 l 1,5,-1
 839 313 l 1,6,-1
 829 313 l 1,7,-1
 662 755 l 1,0,-1
310 755 m 1,8,-1
 704 1247 l 1,9,-1
 714 1247 l 1,10,-1
 777 1213 l 1,11,-1
 458 818 l 1,12,-1
 627 374 l 1,13,-1
 487 313 l 1,14,-1
 477 313 l 1,15,-1
 310 755 l 1,8,-1
EndSplineSet
Validated: 1
EndChar

StartChar: logicalnot
Encoding: 172 172 108
Width: 1200
GlyphClass: 2
Flags: W
HStem: 680 150<392 1009>
VStem: 827 120<418 538>
DStem2: 827 418 947 418 0.567398 0.823444<68.0877 319.009>
LayerCount: 2
Fore
SplineSet
392 830 m 1,0,-1
 1226 830 l 1,1,-1
 1224 820 l 1,2,-1
 947 418 l 1,3,-1
 827 418 l 1,4,-1
 1009 680 l 1,5,-1
 295 680 l 1,6,-1
 297 690 l 1,7,-1
 392 830 l 1,0,-1
EndSplineSet
Validated: 1
EndChar

StartChar: uni00AD
Encoding: 173 173 109
Width: 1200
GlyphClass: 2
Flags: W
HStem: 680 150<392 1129>
LayerCount: 2
Fore
SplineSet
392 830 m 5,0,-1
 1226 830 l 5,1,-1
 1224 820 l 5,2,-1
 1129 680 l 5,3,-1
 295 680 l 5,4,-1
 297 690 l 5,5,-1
 392 830 l 5,0,-1
EndSplineSet
Validated: 1
EndChar

StartChar: registered
Encoding: 174 174 110
Width: 1401
GlyphClass: 2
Flags: W
HStem: 386 52<634.584 955.646> 803 65<788 869> 1285 65<877 1068.96> 1478 52<854.632 1173.39>
VStem: 332 59<686.575 1015.56> 1096 133<999.039 1269.41> 1416 59<900.437 1234>
DStem2: 545.629 386 686.363 386 0.207912 0.978148<243.952 455.577 521.859 940.724> 1017 825 869 803 0.481919 -0.876216<0 244.683> 920.993 386 1065.96 386 0.207912 0.978148<521.394 836.011>
LayerCount: 2
Fore
SplineSet
890 868 m 2,0,1
 1023 868 1023 868 1043 960 c 2,2,-1
 1093 1193 l 2,3,4
 1096 1206 1096 1206 1096 1217 c 0,5,6
 1096 1252 1096 1252 1070 1266 c 0,7,8
 1037 1285 1037 1285 979 1285 c 2,9,-1
 877 1285 l 1,10,-1
 788 868 l 1,11,-1
 890 868 l 2,0,1
784 386 m 0,12,13
 558 386 558 386 428 549 c 0,14,15
 332 669 332 669 332 841 c 0,16,17
 332 890 332 890 340 943 c 0,18,19
 375 1183 375 1183 585 1362 c 0,20,21
 782 1530 782 1530 1023 1530 c 0,22,23
 1249 1530 1249 1530 1379 1367 c 0,24,25
 1475 1247 1475 1247 1475 1075 c 0,26,27
 1475 1026 1475 1026 1467 973 c 0,28,29
 1432 733 1432 733 1222 554 c 0,30,31
 1024 386 1024 386 784 386 c 0,12,13
1013 1478 m 0,32,33
 813 1478 813 1478 633 1330 c 0,34,35
 451 1181 451 1181 403 953 c 0,36,37
 391 897 391 897 391 843 c 0,38,39
 391 704 391 704 472 587 c 0,40,41
 575 438 575 438 794 438 c 0,42,43
 994 438 994 438 1174 586 c 0,44,45
 1356 735 1356 735 1404 963 c 0,46,47
 1416 1022 1416 1022 1416 1077 c 0,48,49
 1416 1216 1416 1216 1338 1329 c 0,50,51
 1235 1478 1235 1478 1013 1478 c 0,32,33
840 1350 m 1,52,-1
 988 1350 l 2,53,54
 1095 1350 1095 1350 1168 1296 c 0,55,56
 1229 1251 1229 1251 1229 1176 c 0,57,58
 1229 1151 1229 1151 1224 1128 c 2,59,-1
 1202 1026 l 2,60,61
 1173 893 1173 893 1093 854 c 0,62,63
 1064 840 1064 840 1017 825 c 1,64,-1
 1147 592 l 1,65,-1
 1021 543 l 1,66,-1
 1012 543 l 1,67,-1
 869 803 l 1,68,-1
 775 803 l 1,69,-1
 731 596 l 1,70,-1
 589 543 l 1,71,-1
 579 543 l 1,72,-1
 742 1306 l 1,73,-1
 840 1350 l 1,52,-1
EndSplineSet
Validated: 1
EndChar

StartChar: macron
Encoding: 175 175 111
Width: 600
GlyphClass: 2
Flags: W
HStem: 1299 130<411 769>
VStem: 326 528
LayerCount: 2
Fore
SplineSet
411 1429 m 1,0,-1
 854 1429 l 1,1,-1
 852 1419 l 1,2,-1
 769 1299 l 1,3,-1
 326 1299 l 1,4,-1
 328 1309 l 1,5,-1
 411 1429 l 1,0,-1
EndSplineSet
Validated: 1
EndChar

StartChar: degree
Encoding: 176 176 112
Width: 650
GlyphClass: 2
Flags: W
HStem: 1012 61<454.746 664.091> 1513 57<538.606 745.008>
VStem: 307 124<1093.76 1381.6> 769 123<1204.15 1492.15>
DStem2: 265.175 1012 397.59 1012 0.207912 0.978148<177.703 501.488> 682.953 1012 815.219 1012 0.207912 0.978148<96.4778 421.241>
LayerCount: 2
Fore
SplineSet
647 1513 m 128,-1,1
 584 1513 584 1513 538.5 1487 c 128,-1,2
 493 1461 493 1461 479 1398 c 2,3,-1
 435 1188 l 2,4,5
 431 1171 431 1171 431 1156 c 0,6,7
 431 1118 431 1118 456 1099 c 0,8,9
 490 1073 490 1073 553 1073 c 128,-1,10
 616 1073 616 1073 661.5 1099 c 128,-1,11
 707 1125 707 1125 721 1188 c 2,12,-1
 765 1398 l 2,13,14
 769 1415 769 1415 769 1430 c 0,15,16
 769 1468 769 1468 744 1487 c 0,17,0
 710 1513 710 1513 647 1513 c 128,-1,1
649 1570 m 128,-1,19
 763 1570 763 1570 837 1516 c 0,20,21
 892 1475 892 1475 892 1399 c 0,22,23
 892 1374 892 1374 886 1345 c 2,24,-1
 863 1237 l 2,25,26
 837 1114 837 1114 756 1066 c 0,27,28
 664 1012 664 1012 550 1012 c 0,29,30
 431 1012 431 1012 362 1066 c 0,31,32
 307 1109 307 1109 307 1184 c 0,33,34
 307 1209 307 1209 313 1237 c 2,35,-1
 336 1345 l 2,36,37
 362 1468 362 1468 443 1516 c 0,38,18
 535 1570 535 1570 649 1570 c 128,-1,19
EndSplineSet
Validated: 1
EndChar

StartChar: plusminus
Encoding: 177 177 113
Width: 1200
GlyphClass: 2
Flags: W
HStem: 275 150<306 1042> 858 150<430 707 889 1166>
DStem2: 583.788 275 733.76 275 0.207912 0.978148<311.302 595.877 780.439 1065.22>
LayerCount: 2
Fore
SplineSet
306 425 m 1,0,-1
 1140 425 l 1,1,-1
 1138 415 l 1,2,-1
 1042 275 l 1,3,-1
 208 275 l 1,4,-1
 211 285 l 1,5,-1
 306 425 l 1,0,-1
805 1317 m 1,6,-1
 959 1383 l 1,7,-1
 969 1383 l 1,8,-1
 889 1008 l 1,9,-1
 1264 1008 l 1,10,-1
 1262 998 l 1,11,-1
 1166 858 l 1,12,-1
 857 858 l 1,13,-1
 792 549 l 1,14,-1
 638 483 l 1,15,-1
 628 483 l 1,16,-1
 707 858 l 1,17,-1
 332 858 l 1,18,-1
 334 868 l 1,19,-1
 430 1008 l 1,20,-1
 739 1008 l 1,21,-1
 805 1317 l 1,6,-1
EndSplineSet
Validated: 1
EndChar

StartChar: uni00B2
Encoding: 178 178 114
Width: 651
VWidth: 1406
GlyphClass: 2
Flags: W
HStem: 763 131<426 716> 1504 66<528.299 739.471>
VStem: 757 135<1239.18 1488.9>
DStem2: 282 886 426 894 0.844131 0.536137<125.844 504.818> 616.219 763 763.155 763 0.207912 0.978148<426.649 682.678>
LayerCount: 2
Fore
SplineSet
650 1570 m 0,0,1
 766 1570 766 1570 837 1518 c 0,2,3
 892 1478 892 1478 892 1403 c 0,4,5
 892 1381 892 1381 886 1352 c 2,6,-1
 877 1308 l 2,7,8
 844 1145 844 1145 627 1015 c 2,9,-1
 426 894 l 1,10,-1
 791 894 l 1,11,-1
 789 884 l 1,12,-1
 716 763 l 1,13,-1
 212 763 l 1,14,-1
 214 773 l 1,15,-1
 282 886 l 1,16,-1
 578 1074 l 2,17,18
 699 1151 699 1151 731 1303 c 2,19,-1
 754 1413 l 2,20,21
 757 1427 757 1427 757 1438 c 0,22,23
 757 1469 757 1469 734 1484 c 0,24,25
 704 1504 704 1504 646 1504 c 0,26,27
 512 1504 512 1504 494 1413 c 2,28,-1
 479 1339 l 1,29,-1
 336 1281 l 1,30,-1
 326 1281 l 1,31,-1
 340 1347 l 2,32,33
 366 1470 366 1470 448 1517 c 0,34,35
 540 1570 540 1570 650 1570 c 0,0,1
EndSplineSet
Validated: 1
EndChar

StartChar: uni00B3
Encoding: 179 179 115
Width: 635
VWidth: 1396
GlyphClass: 2
Flags: W
HStem: 753 65<399.247 603.786> 1496 64<460 694>
VStem: 255 133<827.357 984.289> 687 130<1061.39 1195.53>
DStem2: 499 1238 678 1269 0.59956 0.80033<132.131 323.399> 604.629 753 744.812 753 0.207912 0.978148<96.0565 395.552>
LayerCount: 2
Fore
SplineSet
460 1560 m 1,0,-1
 896 1560 l 1,1,-1
 678 1269 l 1,2,3
 817 1234 817 1234 817 1113 c 0,4,5
 817 1089 817 1089 810 1057 c 2,6,-1
 792 975 l 2,7,8
 765 851 765 851 686 806 c 0,9,10
 594 754 594 754 488 753 c 0,11,12
 373 753 373 753 309 805 c 0,13,14
 255 849 255 849 255 935 c 0,15,16
 255 955 255 955 258 978 c 1,17,-1
 407 1031 l 1,18,-1
 417 1031 l 1,19,-1
 391 910 l 2,20,21
 388 896 388 896 388 886 c 0,22,23
 388 818 388 818 495 818 c 0,24,25
 618 818 618 818 638 910 c 2,26,-1
 684 1124 l 2,27,28
 687 1138 687 1138 687 1148 c 0,29,30
 687 1181 687 1181 661 1196 c 0,31,32
 628 1216 628 1216 581 1216 c 0,33,34
 544 1216 544 1216 515 1208 c 1,35,-1
 499 1238 l 1,36,-1
 694 1496 l 1,37,-1
 425 1496 l 1,38,-1
 427 1506 l 1,39,-1
 460 1560 l 1,0,-1
EndSplineSet
Validated: 1
EndChar

StartChar: acute
Encoding: 180 180 116
Width: 372
GlyphClass: 2
Flags: W
HStem: 1160 367
VStem: 310 323
DStem2: 310 1224 433 1160 0.550881 0.834584<14.3449 363.055>
LayerCount: 2
Fore
SplineSet
520 1527 m 1,0,-1
 633 1463 l 1,1,-1
 433 1160 l 1,2,-1
 423 1160 l 1,3,-1
 310 1224 l 1,4,-1
 510 1527 l 1,5,-1
 520 1527 l 1,0,-1
EndSplineSet
Validated: 1
EndChar

StartChar: uni00B5
Encoding: 181 181 117
Width: 1190
GlyphClass: 2
Flags: W
HStem: -430 21G<89 145.173> -20 80<454.972 778.884> 1100 20G<541.827 598 1191.83 1248>
DStem2: 89 -430 268.783 -430 0.207912 0.978148<120.189 526.956 677.894 1501.77> 738.162 -430 919.008 -430 0.207912 0.978148<592.072 1501.94>
LayerCount: 2
Fore
SplineSet
99 -430 m 5,0,-1
 89 -430 l 5,1,-1
 401 1039 l 5,2,-1
 588 1120 l 5,3,-1
 598 1120 l 5,4,-1
 411 242 l 6,5,6
 406 216 406 216 406 195 c 4,7,8
 406 134 406 134 450 102 c 4,9,10
 510 60 510 60 608 60 c 132,-1,11
 706 60 706 60 783 101.5 c 132,-1,12
 860 143 860 143 881 242 c 6,13,-1
 1051 1039 l 5,14,-1
 1238 1120 l 5,15,-1
 1248 1120 l 5,16,-1
 1078 318 l 6,17,18
 1038 131 1038 131 922 62 c 4,19,20
 783 -20 783 -20 611 -20 c 4,21,22
 444 -20 444 -20 370 49 c 5,23,-1
 286 -349 l 5,24,-1
 99 -430 l 5,0,-1
EndSplineSet
Validated: 1
EndChar

StartChar: paragraph
Encoding: 182 182 118
Width: 1180
GlyphClass: 2
Flags: W
HStem: -20 21G<776 833.143> 548 982<635.172 885.998>
DStem2: 776 -20 846.048 -20 0.207912 0.978148<43.1894 637.808> 909.459 -20 975.87 -20 0.207912 0.978148<105.818 1185.91>
LayerCount: 2
Fore
SplineSet
786 -20 m 1,0,-1
 776 -20 l 1,1,-1
 908 604 l 1,2,3
 813 548 813 548 691 548 c 0,4,5
 519 548 519 548 415 630 c 0,6,7
 329 697 329 697 329 810 c 0,8,9
 329 846 329 846 338 886 c 2,10,-1
 403 1192 l 2,11,12
 443 1379 443 1379 559 1448 c 0,13,14
 698 1530 698 1530 870 1530 c 128,-1,15
 1042 1530 1042 1530 1156 1448 c 0,16,17
 1242 1386 1242 1386 1242 1272 c 0,18,19
 1242 1235 1242 1235 1233 1192 c 2,20,-1
 995 70 l 1,21,-1
 922 39 l 1,22,-1
 1156 1140 l 1,23,-1
 1086 1110 l 1,24,-1
 852 8 l 1,25,-1
 786 -20 l 1,0,-1
EndSplineSet
Validated: 1
EndChar

StartChar: periodcentered
Encoding: 183 183 119
Width: 340
GlyphClass: 2
Flags: W
HStem: 632 245<254.711 405.42>
VStem: 207 246<679.592 828.764>
LayerCount: 2
Fore
SplineSet
356 877 m 0,0,1
 408 877 408 877 434 841 c 0,2,3
 453 816 453 816 453 782 c 0,4,5
 453 768 453 768 450 754 c 0,6,7
 439 704 439 704 396.5 668 c 128,-1,8
 354 632 354 632 304 632 c 128,-1,9
 254 632 254 632 226 668 c 0,10,11
 207 693 207 693 207 727 c 0,12,13
 207 740 207 740 210 754 c 0,14,15
 221 804 221 804 263.5 840.5 c 128,-1,16
 306 877 306 877 356 877 c 0,0,1
EndSplineSet
Validated: 1
EndChar

StartChar: cedilla
Encoding: 184 184 120
Width: 420
GlyphClass: 2
Flags: W
HStem: -410 410 -20 20G<156 254.5>
VStem: 188 143<-239.266 -78.4795>
LayerCount: 2
Fore
SplineSet
-37 -410 m 1,0,-1
 -35 -400 l 1,1,-1
 47 -280 l 1,2,3
 165 -264 165 -264 185 -173 c 0,4,5
 188 -158 188 -158 188 -145 c 0,6,7
 188 -95 188 -95 140 -76 c 1,8,-1
 156 0 l 1,9,-1
 259 0 l 1,10,-1
 250 -40 l 1,11,12
 331 -77 331 -77 331 -165 c 0,13,14
 331 -176 331 -176 330 -187 c 0,15,16
 304 -410 304 -410 -37 -410 c 1,0,-1
EndSplineSet
Validated: 1
EndChar

StartChar: uni00B9
Encoding: 185 185 121
Width: 412
VWidth: 1401
GlyphClass: 2
Flags: W
VStem: 328 318
DStem2: 328 736 468.16 736 0.207912 0.978148<81.2802 729.022> 360 1460 346 1391 0.92894 0.37023<0 107.4>
LayerCount: 2
Fore
SplineSet
636 1570 m 1,0,-1
 646 1570 l 1,1,-1
 479 787 l 1,2,-1
 338 736 l 1,3,-1
 328 736 l 1,4,-1
 480 1449 l 1,5,-1
 346 1391 l 1,6,-1
 360 1460 l 1,7,-1
 636 1570 l 1,0,-1
EndSplineSet
Validated: 1
EndChar

StartChar: ordmasculine
Encoding: 186 186 122
Width: 554
GlyphClass: 2
Flags: W
HStem: 790 120<295 620> 961 65<415.582 587.787> 1504 66<504.213 676.933>
VStem: 289 122<1030.73 1297.68> 681 122<1233.32 1499.35>
DStem2: 217.692 790 347.745 790 0.207912 0.978148<325.511 749.678> 541.745 790 671.692 790 0.207912 0.978148<247.633 675.263>
LayerCount: 2
Fore
SplineSet
596 1504 m 0,0,1
 500 1504 500 1504 485 1434 c 2,2,-1
 413 1097 l 2,3,4
 411 1088 411 1088 411 1079 c 0,5,6
 411 1026 411 1026 496 1026 c 0,7,8
 592 1026 592 1026 607 1097 c 2,9,-1
 679 1434 l 2,10,11
 681 1443 681 1443 681 1451 c 0,12,13
 681 1504 681 1504 596 1504 c 0,0,1
601 1570 m 0,14,15
 690 1570 690 1570 756 1524 c 0,16,17
 803 1491 803 1491 803 1426 c 0,18,19
 803 1405 803 1405 798 1382 c 2,20,-1
 748 1149 l 2,21,22
 725 1044 725 1044 660 1006 c 0,23,24
 583 961 583 961 491 961 c 0,25,26
 394 961 394 961 336 1007 c 0,27,28
 289 1044 289 1044 289 1107 c 0,29,30
 289 1127 289 1127 294 1149 c 2,31,-1
 344 1382 l 2,32,33
 366 1486 366 1486 432 1525 c 0,34,35
 509 1570 509 1570 601 1570 c 0,14,15
218 790 m 1,36,-1
 220 800 l 1,37,-1
 295 910 l 1,38,-1
 697 910 l 1,39,-1
 695 900 l 1,40,-1
 620 790 l 1,41,-1
 218 790 l 1,36,-1
EndSplineSet
Validated: 1
EndChar

StartChar: guillemotright
Encoding: 187 187 123
Width: 1100
GlyphClass: 2
Flags: W
DStem2: 291 297 364 263 0.625082 0.780559<19.092 507.722> 591 1197 441 1136 0.355733 -0.934588<3.64994 472.495> 643 297 716 263 0.625082 0.780559<19.092 507.722> 943 1197 793 1136 0.355733 -0.934588<3.64994 472.495>
LayerCount: 2
Fore
SplineSet
758 755 m 1,0,-1
 364 263 l 1,1,-1
 354 263 l 1,2,-1
 291 297 l 1,3,-1
 610 692 l 1,4,-1
 441 1136 l 1,5,-1
 581 1197 l 1,6,-1
 591 1197 l 1,7,-1
 758 755 l 1,0,-1
1110 755 m 1,8,-1
 716 263 l 1,9,-1
 706 263 l 1,10,-1
 643 297 l 1,11,-1
 962 692 l 1,12,-1
 793 1136 l 1,13,-1
 933 1197 l 1,14,-1
 943 1197 l 1,15,-1
 1110 755 l 1,8,-1
EndSplineSet
Validated: 1
EndChar

StartChar: onequarter
Encoding: 188 188 124
Width: 1572
VWidth: 1401
GlyphClass: 2
Flags: W
HStem: -20 21G<413.284 473.756 1202 1267.29> 180 66<996 1244 1398 1434> 1510 20G<677 737 1332.26 1393.01>
DStem2: 267.81 -20 407.969 -20 0.207912 0.978148<813.276 1460.81> 327 47 460 -20 0.566694 0.823928<20.1671 1799.35> 452 1420 437 1351 0.928477 0.371391<0 106.403> 860 190 996 246 0.666606 0.74541<132.401 647.206> 1202 -20 1342.16 -20 0.207912 0.978148<81.2802 204.362 300.938 663.51>
LayerCount: 2
Fore
SplineSet
727 1530 m 1,0,-1
 737 1530 l 1,1,-1
 571 747 l 1,2,-1
 430 696 l 1,3,-1
 420 696 l 1,4,-1
 571 1409 l 1,5,-1
 437 1351 l 1,6,-1
 452 1420 l 1,7,-1
 727 1530 l 1,0,-1
996 246 m 1,8,-1
 1258 246 l 1,9,-1
 1340 629 l 1,10,-1
 996 246 l 1,8,-1
1212 -20 m 1,11,-1
 1202 -20 l 1,12,-1
 1244 180 l 1,13,-1
 858 180 l 1,14,-1
 860 190 l 1,15,-1
 1376 767 l 1,16,-1
 1509 815 l 1,17,-1
 1519 815 l 1,18,-1
 1398 246 l 1,19,-1
 1474 246 l 1,20,-1
 1472 236 l 1,21,-1
 1434 180 l 1,22,-1
 1384 180 l 1,23,-1
 1353 31 l 1,24,-1
 1212 -20 l 1,11,-1
450 -20 m 1,25,-1
 327 47 l 1,26,-1
 1346 1530 l 1,27,-1
 1356 1530 l 1,28,-1
 1480 1463 l 1,29,-1
 460 -20 l 1,30,-1
 450 -20 l 1,25,-1
EndSplineSet
Validated: 1
EndChar

StartChar: onehalf
Encoding: 189 189 125
Width: 1718
VWidth: 1401
GlyphClass: 2
Flags: W
HStem: -20 21G<413.284 473.756> 0 131<1231 1521> 741 66<1333.3 1544.47> 1510 20G<677 737 1332.26 1393.01>
VStem: 1562 135<476.178 725.904>
DStem2: 267.81 -20 407.969 -20 0.207912 0.978148<813.276 1460.81> 327 47 460 -20 0.566694 0.823928<20.1671 1799.35> 452 1420 437 1351 0.928477 0.371391<0 106.403> 1087 123 1231 131 0.844131 0.536137<125.844 504.818> 1416.97 -20 1563.9 -20 0.207912 0.978148<447.096 703.125>
LayerCount: 2
Fore
SplineSet
1455 807 m 0,0,1
 1571 807 1571 807 1642 755 c 0,2,3
 1697 715 1697 715 1697 640 c 0,4,5
 1697 618 1697 618 1691 589 c 2,6,-1
 1682 545 l 2,7,8
 1649 382 1649 382 1432 252 c 2,9,-1
 1231 131 l 1,10,-1
 1596 131 l 1,11,-1
 1594 121 l 1,12,-1
 1521 0 l 1,13,-1
 1017 0 l 1,14,-1
 1019 10 l 1,15,-1
 1087 123 l 1,16,-1
 1383 311 l 2,17,18
 1504 388 1504 388 1536 540 c 2,19,-1
 1559 650 l 2,20,21
 1562 664 1562 664 1562 675 c 0,22,23
 1562 706 1562 706 1539 721 c 0,24,25
 1509 741 1509 741 1451 741 c 0,26,27
 1317 741 1317 741 1299 650 c 2,28,-1
 1284 576 l 1,29,-1
 1141 518 l 1,30,-1
 1131 518 l 1,31,-1
 1145 584 l 2,32,33
 1171 707 1171 707 1253 754 c 0,34,35
 1345 807 1345 807 1455 807 c 0,0,1
727 1530 m 1,36,-1
 737 1530 l 1,37,-1
 571 747 l 1,38,-1
 430 696 l 1,39,-1
 420 696 l 1,40,-1
 571 1409 l 1,41,-1
 437 1351 l 1,42,-1
 452 1420 l 1,43,-1
 727 1530 l 1,36,-1
450 -20 m 1,44,-1
 327 47 l 1,45,-1
 1346 1530 l 1,46,-1
 1356 1530 l 1,47,-1
 1480 1463 l 1,48,-1
 460 -20 l 1,49,-1
 450 -20 l 1,44,-1
EndSplineSet
Validated: 1
EndChar

StartChar: threequarters
Encoding: 190 190 126
Width: 1796
VWidth: 1401
GlyphClass: 2
Flags: W
HStem: -20 21G<637.284 697.756 1426 1491.29> 180 66<1220 1468 1622 1658> 723 65<492.247 696.786> 1466 64<553 787>
VStem: 348 133<797.357 954.289> 780 130<1031.39 1165.53>
DStem2: 551 47 684 -20 0.566694 0.823928<20.1671 1799.35> 592 1208 771 1239 0.59956 0.80033<132.131 323.399> 1084 190 1220 246 0.666606 0.74541<132.401 647.206> 1426 -20 1566.16 -20 0.207912 0.978148<81.2802 204.362 300.938 663.51>
LayerCount: 2
Fore
SplineSet
553 1530 m 1,0,-1
 989 1530 l 1,1,-1
 771 1239 l 1,2,3
 910 1204 910 1204 910 1083 c 0,4,5
 910 1059 910 1059 903 1027 c 2,6,-1
 885 945 l 2,7,8
 858 821 858 821 779 776 c 0,9,10
 687 724 687 724 581 723 c 0,11,12
 466 723 466 723 402 775 c 0,13,14
 348 819 348 819 348 905 c 0,15,16
 348 925 348 925 351 948 c 1,17,-1
 500 1001 l 1,18,-1
 510 1001 l 1,19,-1
 484 880 l 2,20,21
 481 866 481 866 481 856 c 0,22,23
 481 788 481 788 588 788 c 0,24,25
 711 788 711 788 731 880 c 2,26,-1
 777 1094 l 2,27,28
 780 1108 780 1108 780 1118 c 0,29,30
 780 1151 780 1151 754 1166 c 0,31,32
 721 1186 721 1186 674 1186 c 0,33,34
 637 1186 637 1186 608 1178 c 1,35,-1
 592 1208 l 1,36,-1
 787 1466 l 1,37,-1
 518 1466 l 1,38,-1
 520 1476 l 1,39,-1
 553 1530 l 1,0,-1
1220 246 m 1,40,-1
 1482 246 l 1,41,-1
 1564 629 l 1,42,-1
 1220 246 l 1,40,-1
1436 -20 m 1,43,-1
 1426 -20 l 1,44,-1
 1468 180 l 1,45,-1
 1082 180 l 1,46,-1
 1084 190 l 1,47,-1
 1600 767 l 1,48,-1
 1733 815 l 1,49,-1
 1743 815 l 1,50,-1
 1622 246 l 1,51,-1
 1698 246 l 1,52,-1
 1696 236 l 1,53,-1
 1658 180 l 1,54,-1
 1608 180 l 1,55,-1
 1577 31 l 1,56,-1
 1436 -20 l 1,43,-1
674 -20 m 1,57,-1
 551 47 l 1,58,-1
 1570 1530 l 1,59,-1
 1580 1530 l 1,60,-1
 1704 1463 l 1,61,-1
 684 -20 l 1,62,-1
 674 -20 l 1,57,-1
EndSplineSet
Validated: 1
EndChar

StartChar: questiondown
Encoding: 191 191 127
Width: 1310
GlyphClass: 2
Flags: W
HStem: -430 90<391.151 800.847> 875 245<811.58 962.099>
VStem: 134 195<-276.862 58.2524> 764 246<923.236 1072.41>
DStem2: 59.1271 -430 269.257 -430 0.207912 0.978148<316.258 664.035>
LayerCount: 2
Fore
SplineSet
584 -430 m 128,-1,1
 374 -430 374 -430 237 -334 c 0,2,3
 134 -262 134 -262 134 -124 c 0,4,5
 134 -79 134 -79 145 -26 c 2,6,-1
 157 30 l 2,7,8
 215 301 215 301 578 464 c 0,9,10
 678 509 678 509 706 646 c 1,11,-1
 919 739 l 1,12,-1
 929 739 l 1,13,14
 880 507 880 507 648 402 c 0,15,16
 423 300 423 300 366 28 c 2,17,-1
 336 -116 l 2,18,19
 329 -150 329 -150 329 -178 c 0,20,21
 329 -256 329 -256 383 -292 c 0,22,23
 457 -340 457 -340 583.5 -340 c 128,-1,24
 710 -340 710 -340 810 -292 c 0,25,26
 910 -243 910 -243 936 -116 c 2,27,-1
 955 -26 l 1,28,-1
 1164 64 l 1,29,-1
 1174 64 l 1,30,-1
 1155 -26 l 2,31,32
 1108 -251 1108 -251 962 -334 c 0,33,0
 794 -430 794 -430 584 -430 c 128,-1,1
913 1120 m 0,34,35
 965 1120 965 1120 991 1084 c 0,36,37
 1010 1058 1010 1058 1010 1025 c 0,38,39
 1010 1012 1010 1012 1007 998 c 0,40,41
 996 948 996 948 953.5 911.5 c 128,-1,42
 911 875 911 875 861 875 c 128,-1,43
 811 875 811 875 783 911 c 0,44,45
 764 935 764 935 764 970 c 0,46,47
 764 984 764 984 767 998 c 0,48,49
 778 1048 778 1048 820.5 1084 c 128,-1,50
 863 1120 863 1120 913 1120 c 0,34,35
EndSplineSet
Validated: 1
EndChar

StartChar: endash
Encoding: 8211 8211 128
Width: 1200
GlyphClass: 2
Flags: W
HStem: 680 150<392 1129>
LayerCount: 2
Fore
SplineSet
392 830 m 5,0,-1
 1226 830 l 5,1,-1
 1224 820 l 5,2,-1
 1129 680 l 5,3,-1
 295 680 l 5,4,-1
 297 690 l 5,5,-1
 392 830 l 5,0,-1
EndSplineSet
Validated: 1
EndChar

StartChar: emdash
Encoding: 8212 8212 129
Width: 1500
GlyphClass: 2
Flags: W
HStem: 680 150<392 1429>
LayerCount: 2
Fore
SplineSet
392 830 m 1,0,-1
 1526 830 l 1,1,-1
 1524 820 l 1,2,-1
 1429 680 l 1,3,-1
 295 680 l 1,4,-1
 297 690 l 1,5,-1
 392 830 l 1,0,-1
EndSplineSet
Validated: 1
EndChar

StartChar: afii00208
Encoding: 8213 8213 130
Width: 1500
GlyphClass: 2
Flags: W
HStem: 680 150<392 1429>
LayerCount: 2
Fore
SplineSet
392 830 m 1,0,-1
 1526 830 l 1,1,-1
 1524 820 l 1,2,-1
 1429 680 l 1,3,-1
 295 680 l 1,4,-1
 297 690 l 1,5,-1
 392 830 l 1,0,-1
EndSplineSet
Validated: 1
EndChar

StartChar: quoteleft
Encoding: 8216 8216 131
Width: 389
GlyphClass: 2
Flags: W
HStem: 1046 554
VStem: 317 166<1169.5 1389.61>
LayerCount: 2
Fore
SplineSet
615 1600 m 1,0,-1
 621 1593 l 1,1,2
 516 1463 516 1463 488 1334 c 0,3,4
 483 1309 483 1309 483 1287 c 0,5,6
 483 1190 483 1190 578 1126 c 1,7,-1
 391 1046 l 1,8,-1
 381 1046 l 1,9,10
 317 1126 317 1126 317 1223 c 0,11,12
 317 1256 317 1256 324 1290 c 0,13,14
 366 1487 366 1487 615 1600 c 1,0,-1
EndSplineSet
Validated: 1
EndChar

StartChar: quoteright
Encoding: 8217 8217 132
Width: 389
GlyphClass: 2
Flags: W
HStem: 1046 554
VStem: 468 166<1257.27 1476.22>
LayerCount: 2
Fore
SplineSet
560 1600 m 1,0,-1
 570 1600 l 1,1,2
 634 1520 634 1520 634 1423 c 0,3,4
 634 1390 634 1390 627 1356 c 0,5,6
 585 1159 585 1159 336 1046 c 1,7,-1
 331 1053 l 1,8,9
 436 1183 436 1183 463 1312 c 0,10,11
 468 1336 468 1336 468 1359 c 0,12,13
 468 1456 468 1456 373 1520 c 1,14,-1
 560 1600 l 1,0,-1
EndSplineSet
Validated: 1
EndChar

StartChar: quotesinglbase
Encoding: 8218 8218 133
Width: 389
GlyphClass: 2
Flags: W
HStem: -276 554
VStem: 187 166<-64.7295 154.218>
LayerCount: 2
Fore
SplineSet
279 278 m 1,0,-1
 289 278 l 1,1,2
 353 198 353 198 353 101 c 0,3,4
 353 68 353 68 346 34 c 0,5,6
 304 -163 304 -163 55 -276 c 1,7,-1
 50 -269 l 1,8,9
 155 -139 155 -139 182 -10 c 0,10,11
 187 14 187 14 187 37 c 0,12,13
 187 134 187 134 92 198 c 1,14,-1
 279 278 l 1,0,-1
EndSplineSet
Validated: 1
EndChar

StartChar: quotereversed
Encoding: 8219 8219 134
Width: 389
GlyphClass: 2
Flags: W
HStem: 1053 547
VStem: 331 143<1149.75 1394.36>
LayerCount: 2
Fore
SplineSet
509 1600 m 1,0,-1
 662 1520 l 1,1,2
 512 1441 512 1441 484 1312 c 0,3,4
 474 1266 474 1266 474 1220 c 0,5,6
 474 1137 474 1137 506 1053 c 1,7,-1
 497 1046 l 1,8,9
 331 1139 331 1139 331 1290 c 0,10,11
 331 1322 331 1322 338 1356 c 0,12,13
 367 1493 367 1493 499 1600 c 1,14,-1
 509 1600 l 1,0,-1
EndSplineSet
Validated: 1
EndChar

StartChar: quotedblleft
Encoding: 8220 8220 135
Width: 688
GlyphClass: 2
Flags: W
HStem: 1046 554
VStem: 317 166<1169.5 1389.61> 616 166<1169.5 1389.61>
LayerCount: 2
Fore
SplineSet
615 1600 m 1,0,-1
 621 1593 l 1,1,2
 516 1463 516 1463 488 1334 c 0,3,4
 483 1309 483 1309 483 1287 c 0,5,6
 483 1190 483 1190 578 1126 c 1,7,-1
 391 1046 l 1,8,-1
 381 1046 l 1,9,10
 317 1126 317 1126 317 1223 c 0,11,12
 317 1256 317 1256 324 1290 c 0,13,14
 366 1487 366 1487 615 1600 c 1,0,-1
914 1600 m 1,15,-1
 920 1593 l 1,16,17
 816 1463 816 1463 788 1334 c 0,18,19
 783 1309 783 1309 782 1287 c 0,20,21
 782 1190 782 1190 877 1126 c 1,22,-1
 690 1046 l 1,23,-1
 680 1046 l 1,24,25
 616 1126 616 1126 616 1223 c 0,26,27
 616 1256 616 1256 623 1290 c 0,28,29
 665 1487 665 1487 914 1600 c 1,15,-1
EndSplineSet
Validated: 1
EndChar

StartChar: quotedblright
Encoding: 8221 8221 136
Width: 688
GlyphClass: 2
Flags: W
HStem: 1046 554
VStem: 468 166<1257.27 1476.22> 767 166<1257.27 1476.22>
LayerCount: 2
Fore
SplineSet
859 1600 m 1,0,-1
 869 1600 l 1,1,2
 933 1520 933 1520 933 1423 c 0,3,4
 933 1390 933 1390 926 1356 c 0,5,6
 884 1159 884 1159 635 1046 c 1,7,-1
 630 1053 l 1,8,9
 735 1183 735 1183 762 1312 c 0,10,11
 767 1336 767 1336 767 1359 c 0,12,13
 767 1456 767 1456 672 1520 c 1,14,-1
 859 1600 l 1,0,-1
560 1600 m 1,15,-1
 570 1600 l 1,16,17
 634 1520 634 1520 634 1423 c 0,18,19
 634 1390 634 1390 627 1356 c 0,20,21
 585 1159 585 1159 336 1046 c 1,22,-1
 331 1053 l 1,23,24
 436 1183 436 1183 463 1312 c 0,25,26
 468 1336 468 1336 468 1359 c 0,27,28
 468 1456 468 1456 373 1520 c 1,29,-1
 560 1600 l 1,15,-1
EndSplineSet
Validated: 1
EndChar

StartChar: quotedblbase
Encoding: 8222 8222 137
Width: 688
GlyphClass: 2
Flags: W
HStem: -276 554
VStem: 187 166<-64.7295 154.218> 486 166<-64.7295 154.218>
LayerCount: 2
Fore
SplineSet
578 278 m 1,0,-1
 588 278 l 1,1,2
 652 198 652 198 652 101 c 0,3,4
 652 68 652 68 645 34 c 0,5,6
 603 -163 603 -163 354 -276 c 1,7,-1
 349 -269 l 1,8,9
 454 -139 454 -139 481 -10 c 0,10,11
 486 14 486 14 486 37 c 0,12,13
 486 134 486 134 391 198 c 1,14,-1
 578 278 l 1,0,-1
279 278 m 1,15,-1
 289 278 l 1,16,17
 353 198 353 198 353 101 c 0,18,19
 353 68 353 68 346 34 c 0,20,21
 304 -163 304 -163 55 -276 c 1,22,-1
 50 -269 l 1,23,24
 155 -139 155 -139 182 -10 c 0,25,26
 187 14 187 14 187 37 c 0,27,28
 187 134 187 134 92 198 c 1,29,-1
 279 278 l 1,15,-1
EndSplineSet
Validated: 1
EndChar

StartChar: dagger
Encoding: 8224 8224 138
Width: 1214
GlyphClass: 2
Flags: W
HStem: -20 21G<503 559.444> 1088 90<438 738 957 1257> 1510 20G<975.556 1032>
DStem2: 503 -20 702.87 -20 0.207912 0.978148<133.566 1132.65 1266.21 1492.55>
LayerCount: 2
Fore
SplineSet
513 -20 m 1,0,-1
 503 -20 l 1,1,-1
 738 1088 l 1,2,-1
 381 1088 l 1,3,-1
 383 1098 l 1,4,-1
 438 1178 l 1,5,-1
 757 1178 l 1,6,-1
 813 1440 l 1,7,-1
 1022 1530 l 1,8,-1
 1032 1530 l 1,9,-1
 957 1178 l 1,10,-1
 1314 1178 l 1,11,-1
 1312 1168 l 1,12,-1
 1257 1088 l 1,13,-1
 938 1088 l 1,14,-1
 722 70 l 1,15,-1
 513 -20 l 1,0,-1
EndSplineSet
Validated: 1
EndChar

StartChar: daggerdbl
Encoding: 8225 8225 139
Width: 1214
GlyphClass: 2
Flags: W
HStem: -20 21G<503 559.444> 332 90<278 578 797 1097> 1088 90<438 738 957 1257> 1510 20G<975.556 1032>
DStem2: 503 -20 702.87 -20 0.207912 0.978148<133.566 359.901 493.467 1132.65 1266.21 1492.55>
LayerCount: 2
Fore
SplineSet
513 -20 m 1,0,-1
 503 -20 l 1,1,-1
 578 332 l 1,2,-1
 221 332 l 1,3,-1
 223 342 l 1,4,-1
 278 422 l 1,5,-1
 597 422 l 1,6,-1
 738 1088 l 1,7,-1
 381 1088 l 1,8,-1
 383 1098 l 1,9,-1
 438 1178 l 1,10,-1
 757 1178 l 1,11,-1
 813 1440 l 1,12,-1
 1022 1530 l 1,13,-1
 1032 1530 l 1,14,-1
 957 1178 l 1,15,-1
 1314 1178 l 1,16,-1
 1312 1168 l 1,17,-1
 1257 1088 l 1,18,-1
 938 1088 l 1,19,-1
 797 422 l 1,20,-1
 1154 422 l 1,21,-1
 1152 412 l 1,22,-1
 1097 332 l 1,23,-1
 778 332 l 1,24,-1
 722 70 l 1,25,-1
 513 -20 l 1,0,-1
EndSplineSet
Validated: 1
EndChar

StartChar: bullet
Encoding: 8226 8226 140
Width: 904
GlyphClass: 2
Flags: W
HStem: 448 614<470.438 755.119>
VStem: 291 643<648.258 861.742>
LayerCount: 2
Fore
SplineSet
668 1062 m 128,-1,1
 793 1062 793 1062 874 1002 c 0,2,3
 934 958 934 958 934 875 c 0,4,5
 934 847 934 847 927 814 c 2,6,-1
 902 696 l 2,7,8
 873 561 873 561 784 508 c 0,9,10
 683 448 683 448 558 448 c 128,-1,11
 433 448 433 448 352 508 c 0,12,13
 291 553 291 553 291 636 c 0,14,15
 291 664 291 664 298 696 c 2,16,-1
 323 814 l 2,17,18
 351 949 351 949 441 1002 c 0,19,0
 543 1062 543 1062 668 1062 c 128,-1,1
EndSplineSet
Validated: 1
EndChar

StartChar: ellipsis
Encoding: 8230 8230 141
Width: 1012
GlyphClass: 2
Flags: W
HStem: -20 245<116.901 267.42 452.901 603.42 788.901 939.42>
VStem: 69 246<27.5918 176.764> 405 246<27.5918 176.764> 741 246<27.5918 176.764>
CounterMasks: 1 70
LayerCount: 2
Fore
SplineSet
838 -20 m 0,0,1
 786 -20 786 -20 760 16 c 0,2,3
 741 42 741 42 741 75 c 0,4,5
 741 88 741 88 744 102 c 0,6,7
 755 152 755 152 797.5 188.5 c 128,-1,8
 840 225 840 225 890 225 c 128,-1,9
 940 225 940 225 968 189 c 0,10,11
 987 165 987 165 987 130 c 0,12,13
 987 116 987 116 984 102 c 0,14,15
 973 52 973 52 930.5 16 c 128,-1,16
 888 -20 888 -20 838 -20 c 0,0,1
502 -20 m 0,17,18
 450 -20 450 -20 424 16 c 0,19,20
 405 42 405 42 405 75 c 0,21,22
 405 88 405 88 408 102 c 0,23,24
 419 152 419 152 461.5 188.5 c 128,-1,25
 504 225 504 225 554 225 c 128,-1,26
 604 225 604 225 632 189 c 0,27,28
 651 165 651 165 651 130 c 0,29,30
 651 116 651 116 648 102 c 0,31,32
 637 52 637 52 594.5 16 c 128,-1,33
 552 -20 552 -20 502 -20 c 0,17,18
166 -20 m 0,34,35
 114 -20 114 -20 88 16 c 0,36,37
 69 42 69 42 69 75 c 0,38,39
 69 88 69 88 72 102 c 0,40,41
 83 152 83 152 125.5 188.5 c 128,-1,42
 168 225 168 225 218 225 c 128,-1,43
 268 225 268 225 296 189 c 0,44,45
 315 165 315 165 315 130 c 0,46,47
 315 116 315 116 312 102 c 0,48,49
 301 52 301 52 258.5 16 c 128,-1,50
 216 -20 216 -20 166 -20 c 0,34,35
EndSplineSet
Validated: 1
EndChar

StartChar: perthousand
Encoding: 8240 8240 142
Width: 2220
GlyphClass: 2
Flags: W
HStem: -20 64<994.093 1224.48 1667.09 1897.48> 535 59<1089.54 1315.03 1762.54 1988.03> 916 64<551.338 780.478> 1471 59<645.403 871.026>
VStem: 390 135<1003.05 1295.07> 834 135<67.6133 359.111> 900 133<1154.99 1446.75> 1344 134<218.963 510.579> 1507 135<67.6133 359.111> 2017 134<218.963 510.579>
DStem2: 145.333 -20 289.661 -20 0.207912 0.978148<1151.16 1502.73> 358 47 491 -20 0.566694 0.823928<20.1671 1799.35> 606.073 -20 749.251 -20 0.207912 0.978148<1069.22 1421.12> 788.286 -20 932.614 -20 0.207912 0.978148<196.179 543.831> 1249.03 -20 1393.2 -20 0.207912 0.978148<113.862 463.44> 1461.29 -20 1605.61 -20 0.207912 0.978148<196.179 543.831> 1922.03 -20 2066.2 -20 0.207912 0.978148<113.862 463.44>
LayerCount: 2
Fore
SplineSet
1777 44 m 0,0,1
 1846 44 1846 44 1896.5 72.5 c 128,-1,2
 1947 101 1947 101 1962 170 c 2,3,-1
 2013 408 l 2,4,5
 2017 427 2017 427 2017 444 c 0,6,7
 2017 486 2017 486 1989 506 c 0,8,9
 1951 535 1951 535 1882 535 c 128,-1,10
 1813 535 1813 535 1762 506 c 128,-1,11
 1711 477 1711 477 1697 408 c 2,12,-1
 1646 170 l 2,13,14
 1642 151 1642 151 1642 134 c 0,15,16
 1642 91 1642 91 1669 72 c 0,17,18
 1707 44 1707 44 1777 44 c 0,0,1
1104 44 m 0,19,20
 1173 44 1173 44 1223.5 72.5 c 128,-1,21
 1274 101 1274 101 1289 170 c 2,22,-1
 1340 408 l 2,23,24
 1344 427 1344 427 1344 444 c 0,25,26
 1344 486 1344 486 1316 506 c 0,27,28
 1278 535 1278 535 1209 535 c 128,-1,29
 1140 535 1140 535 1089 506 c 128,-1,30
 1038 477 1038 477 1024 408 c 2,31,-1
 973 170 l 2,32,33
 969 151 969 151 969 134 c 0,34,35
 969 91 969 91 996 72 c 0,36,37
 1034 44 1034 44 1104 44 c 0,19,20
765 1471 m 128,-1,39
 696 1471 696 1471 645 1442 c 128,-1,40
 594 1413 594 1413 580 1344 c 2,41,-1
 529 1106 l 2,42,43
 525 1087 525 1087 525 1070 c 0,44,45
 525 1027 525 1027 552 1008 c 0,46,47
 590 980 590 980 659.5 980 c 128,-1,48
 729 980 729 980 779.5 1008.5 c 128,-1,49
 830 1037 830 1037 845 1106 c 2,50,-1
 896 1344 l 2,51,52
 900 1363 900 1363 900 1380 c 0,53,54
 900 1422 900 1422 872 1442 c 0,55,38
 834 1471 834 1471 765 1471 c 128,-1,39
1774 -20 m 0,56,57
 1644 -20 1644 -20 1568 40 c 0,58,59
 1507 88 1507 88 1507 170 c 0,60,61
 1507 197 1507 197 1514 228 c 2,62,-1
 1540 346 l 2,63,64
 1570 482 1570 482 1658 534 c 0,65,66
 1759 594 1759 594 1884 594 c 128,-1,67
 2009 594 2009 594 2090 534 c 0,68,69
 2151 489 2151 489 2151 406 c 0,70,71
 2151 378 2151 378 2144 346 c 2,72,-1
 2118 228 l 2,73,74
 2088 92 2088 92 2000 40 c 0,75,76
 1899 -20 1899 -20 1774 -20 c 0,56,57
481 -20 m 1,77,-1
 358 47 l 1,78,-1
 1377 1530 l 1,79,-1
 1387 1530 l 1,80,-1
 1511 1463 l 1,81,-1
 491 -20 l 1,82,-1
 481 -20 l 1,77,-1
1101 -20 m 0,83,84
 971 -20 971 -20 895 40 c 0,85,86
 834 88 834 88 834 170 c 0,87,88
 834 197 834 197 841 228 c 2,89,-1
 867 346 l 2,90,91
 897 482 897 482 985 534 c 0,92,93
 1086 594 1086 594 1211 594 c 128,-1,94
 1336 594 1336 594 1417 534 c 0,95,96
 1478 489 1478 489 1478 406 c 0,97,98
 1478 378 1478 378 1471 346 c 2,99,-1
 1445 228 l 2,100,101
 1415 92 1415 92 1327 40 c 0,102,103
 1226 -20 1226 -20 1101 -20 c 0,83,84
767 1530 m 128,-1,105
 892 1530 892 1530 973 1470 c 0,106,107
 1033 1426 1033 1426 1033 1343 c 0,108,109
 1033 1315 1033 1315 1026 1282 c 2,110,-1
 1001 1164 l 2,111,112
 972 1029 972 1029 883 976 c 0,113,114
 782 916 782 916 657 916 c 128,-1,115
 532 916 532 916 451 976 c 0,116,117
 390 1021 390 1021 390 1104 c 0,118,119
 390 1132 390 1132 397 1164 c 2,120,-1
 422 1282 l 2,121,122
 450 1417 450 1417 540 1470 c 0,123,104
 642 1530 642 1530 767 1530 c 128,-1,105
EndSplineSet
Validated: 1
EndChar

StartChar: minute
Encoding: 8242 8242 143
Width: 414
GlyphClass: 2
Flags: W
HStem: 1201 399
VStem: 315 374
LayerCount: 2
Fore
SplineSet
541 1600 m 1,0,-1
 551 1600 l 1,1,-1
 689 1527 l 1,2,-1
 409 1201 l 1,3,-1
 399 1201 l 1,4,-1
 315 1245 l 1,5,-1
 541 1600 l 1,0,-1
EndSplineSet
Validated: 1
EndChar

StartChar: second
Encoding: 8243 8243 144
Width: 667
GlyphClass: 2
Flags: W
HStem: 1201 399
VStem: 315 627
LayerCount: 2
Fore
SplineSet
794 1600 m 1,0,-1
 804 1600 l 1,1,-1
 942 1527 l 1,2,-1
 662 1201 l 1,3,-1
 652 1201 l 1,4,-1
 568 1245 l 1,5,-1
 794 1600 l 1,0,-1
541 1600 m 1,6,-1
 551 1600 l 1,7,-1
 689 1527 l 1,8,-1
 409 1201 l 1,9,-1
 399 1201 l 1,10,-1
 315 1245 l 1,11,-1
 541 1600 l 1,6,-1
EndSplineSet
Validated: 1
EndChar

StartChar: guilsinglleft
Encoding: 8249 8249 145
Width: 748
GlyphClass: 2
Flags: W
VStem: 310 467
DStem2: 310 755 458 818 0.625082 0.780559<141.687 630.317> 458 818 310 755 0.355733 -0.934588<6.23058 475.076>
LayerCount: 2
Fore
SplineSet
310 755 m 1,0,-1
 704 1247 l 1,1,-1
 714 1247 l 1,2,-1
 777 1213 l 1,3,-1
 458 818 l 1,4,-1
 627 374 l 1,5,-1
 487 313 l 1,6,-1
 477 313 l 1,7,-1
 310 755 l 1,0,-1
EndSplineSet
Validated: 1
EndChar

StartChar: guilsinglright
Encoding: 8250 8250 146
Width: 798
GlyphClass: 2
Flags: W
VStem: 291 467
DStem2: 291 297 364 263 0.625082 0.780559<19.092 507.722> 591 1197 441 1136 0.355733 -0.934588<3.64994 472.495>
LayerCount: 2
Fore
SplineSet
758 755 m 1,0,-1
 364 263 l 1,1,-1
 354 263 l 1,2,-1
 291 297 l 1,3,-1
 610 692 l 1,4,-1
 441 1136 l 1,5,-1
 581 1197 l 1,6,-1
 591 1197 l 1,7,-1
 758 755 l 1,0,-1
EndSplineSet
Validated: 1
EndChar

StartChar: fraction
Encoding: 8260 8260 147
Width: 872
GlyphClass: 2
Flags: W
HStem: -20 21G<106.284 166.756> 1510 20G<1025.26 1086.01>
DStem2: 20 47 153 -20 0.566694 0.823928<20.1671 1799.35>
LayerCount: 2
Fore
SplineSet
143 -20 m 1,0,-1
 20 47 l 1,1,-1
 1039 1530 l 1,2,-1
 1049 1530 l 1,3,-1
 1173 1463 l 1,4,-1
 153 -20 l 1,5,-1
 143 -20 l 1,0,-1
EndSplineSet
Validated: 1
EndChar

StartChar: Euro
Encoding: 8364 8364 148
Width: 1400
GlyphClass: 2
Flags: W
HStem: -20 90<568.213 968.289> 595 90<264 367 595 1058> 795 90<306 409 638 1101> 1440 90<838.852 1241.38>
VStem: 311 194<133.299 354.777> 1300 191<1141.54 1383.14>
DStem2: 236.127 -20 445.257 -20 0.207912 0.978148<316.288 628.771 764.208 833.133 968.778 1402.8>
LayerCount: 2
Fore
SplineSet
761.5 -20 m 128,-1,1
 551 -20 551 -20 414 76 c 0,2,3
 311 148 311 148 311 286 c 0,4,5
 311 332 311 332 322 384 c 2,6,-1
 367 595 l 1,7,-1
 206 595 l 1,8,-1
 209 605 l 1,9,-1
 264 685 l 1,10,-1
 386 685 l 1,11,-1
 409 795 l 1,12,-1
 249 795 l 1,13,-1
 251 805 l 1,14,-1
 306 885 l 1,15,-1
 428 885 l 1,16,-1
 479 1126 l 2,17,18
 527 1351 527 1351 672 1434 c 0,19,20
 840 1530 840 1530 1050 1530 c 0,21,22
 1268 1530 1268 1530 1398 1434 c 0,23,24
 1491 1364 1491 1364 1491 1216 c 0,25,26
 1491 1184 1491 1184 1485 1149 c 1,27,-1
 1269 1055 l 1,28,-1
 1259 1055 l 1,29,-1
 1293 1216 l 2,30,31
 1300 1249 1300 1249 1300 1280 c 0,32,33
 1300 1356 1300 1356 1249 1392 c 0,34,35
 1178 1440 1178 1440 1051.5 1440 c 128,-1,36
 925 1440 925 1440 830 1391.5 c 128,-1,37
 735 1343 735 1343 708 1216 c 2,38,-1
 638 885 l 1,39,-1
 1158 885 l 1,40,-1
 1156 875 l 1,41,-1
 1101 795 l 1,42,-1
 619 795 l 1,43,-1
 595 685 l 1,44,-1
 1116 685 l 1,45,-1
 1113 675 l 1,46,-1
 1058 595 l 1,47,-1
 576 595 l 1,48,-1
 512 294 l 2,49,50
 505 261 505 261 505 232 c 0,51,52
 506 153 506 153 560 118 c 0,53,54
 634 70 634 70 760 70 c 128,-1,55
 886 70 886 70 978 118 c 0,56,57
 1069 165 1069 165 1097 294 c 2,58,-1
 1115 377 l 1,59,-1
 1341 474 l 1,60,-1
 1351 474 l 1,61,-1
 1332 384 l 2,62,63
 1284 159 1284 159 1140 76 c 0,64,0
 972 -20 972 -20 761.5 -20 c 128,-1,1
EndSplineSet
Validated: 1
EndChar

StartChar: afii61248
Encoding: 8453 8453 149
Width: 1625
GlyphClass: 2
Flags: W
HStem: -20 65<1114.18 1324.73> 716 65<494.384 699.501 1231.67 1453.26> 1466 64<623.334 826.116>
VStem: 343 134<795.987 1067.12> 843 129<1300.71 1451.06> 966 135<54.9531 333.125> 1468 135<439.875 712.889>
DStem2: 145.371 -20 290.187 -20 0.207912 0.978148<928.026 1518.39> 397 47 530 -20 0.566694 0.823928<20.1671 1799.35> 925.025 -20 1069.63 -20 0.207912 0.978148<174.561 763.954> 1325.63 -20 1471.02 -20 0.207912 0.978148<96.3699 688.787>
LayerCount: 2
Fore
SplineSet
1213 45 m 0,0,1
 1340 45 1340 45 1359 137 c 2,2,-1
 1465 636 l 2,3,4
 1468 650 1468 650 1468 661 c 0,5,6
 1468 693 1468 693 1445 708 c 0,7,8
 1414 728 1414 728 1357 728 c 0,9,10
 1229 728 1229 728 1209 636 c 2,11,-1
 1103 137 l 2,12,13
 1101 125 1101 125 1101 115 c 0,14,15
 1101 45 1101 45 1213 45 c 0,0,1
737 1530 m 0,16,17
 853 1530 853 1530 921 1480 c 0,18,19
 972 1443 972 1443 972 1352 c 0,20,21
 972 1331 972 1331 969 1308 c 1,22,-1
 825 1253 l 1,23,-1
 815 1253 l 1,24,-1
 840 1374 l 2,25,26
 843 1389 843 1389 843 1400 c 0,27,28
 843 1433 843 1433 821 1446 c 0,29,30
 788 1466 788 1466 733 1466 c 0,31,32
 607 1466 607 1466 587 1374 c 2,33,-1
 480 873 l 2,34,35
 477 859 477 859 477 848 c 0,36,37
 477 816 477 816 500 801 c 0,38,39
 530 781 530 781 588 781 c 0,40,41
 713 781 713 781 734 873 c 2,42,-1
 751 949 l 1,43,-1
 899 1003 l 1,44,-1
 909 1003 l 1,45,-1
 895 939 l 2,46,47
 868 816 868 816 787 769 c 0,48,49
 694 716 694 716 584 716 c 0,50,51
 467 716 467 716 398 769 c 0,52,53
 343 811 343 811 343 886 c 0,54,55
 343 910 343 910 349 938 c 2,56,-1
 428 1309 l 2,57,58
 454 1432 454 1432 534 1478 c 0,59,60
 625 1530 625 1530 737 1530 c 0,16,17
520 -20 m 1,61,-1
 397 47 l 1,62,-1
 1416 1530 l 1,63,-1
 1426 1530 l 1,64,-1
 1550 1463 l 1,65,-1
 530 -20 l 1,66,-1
 520 -20 l 1,61,-1
1208 -20 m 0,67,68
 1092 -20 1092 -20 1022 32 c 0,69,70
 966 74 966 74 966 149 c 0,71,72
 966 173 966 173 972 201 c 2,73,-1
 1051 572 l 2,74,75
 1077 694 1077 694 1157 740 c 0,76,77
 1248 794 1248 794 1360 794 c 0,78,79
 1472 792 1472 792 1546 740 c 0,80,81
 1603 701 1603 701 1603 626 c 0,82,83
 1603 601 1603 601 1597 572 c 2,84,-1
 1518 201 l 2,85,86
 1492 78 1492 78 1411 32 c 0,87,88
 1319 -20 1319 -20 1208 -20 c 0,67,68
EndSplineSet
Validated: 1
EndChar

StartChar: afii61289
Encoding: 8467 8467 150
Width: 958
GlyphClass: 2
Flags: W
HStem: -20 136<493.285 609.793> 0 21G<50 267.222> 1510 20G<957 1028>
LayerCount: 2
Fore
SplineSet
486 466 m 1,0,1
 648 708 648 708 737 860 c 0,2,3
 896 1134 896 1134 944 1359 c 1,4,5
 826 1238 826 1238 730 1067 c 0,6,7
 544 740 544 740 486 466 c 1,0,1
50 0 m 1,8,9
 205 158 205 158 304 282 c 1,10,11
 310 366 310 366 326 443 c 0,12,13
 366 629 366 629 459 848 c 0,14,15
 633 1251 633 1251 822 1434 c 0,16,17
 920 1530 920 1530 994 1530 c 0,18,19
 1062 1530 1062 1530 1086 1479 c 0,20,21
 1099 1453 1099 1453 1099 1410 c 0,22,23
 1099 1371 1099 1371 1088 1318 c 0,24,25
 1068 1226 1068 1226 1006 1072 c 0,26,27
 862 722 862 722 480 271 c 1,28,29
 480 116 480 116 536 116 c 0,30,31
 560 116 560 116 593.5 145 c 128,-1,32
 627 174 627 174 664 228 c 1,33,-1
 840 228 l 1,34,35
 736 100 736 100 659 40 c 128,-1,36
 582 -20 582 -20 498 -20 c 0,37,38
 378 -20 378 -20 324 90 c 1,39,-1
 251 0 l 1,40,-1
 50 0 l 1,8,9
EndSplineSet
Validated: 1
EndChar

StartChar: trademark
Encoding: 8482 8482 151
Width: 1778
GlyphClass: 2
Flags: W
HStem: 1465 65<451 624 764 951 1136.98 1364 1542.91 1768.11>
VStem: 1785 129<1317.05 1453.5>
DStem2: 465 716 605.16 716 0.207912 0.978148<81.2802 765.691> 830 716 969.735 716 0.207912 0.978148<83.2365 776.233> 1235 716 1374.73 716 0.207912 0.978148<83.2365 705.71> 1640 716 1779.73 716 0.207912 0.978148<83.2365 696.92>
LayerCount: 2
Fore
SplineSet
1268 1540 m 0,0,1
 1372 1540 1372 1540 1447 1490 c 0,2,3
 1453 1486 1453 1486 1458 1480 c 1,4,5
 1556 1540 1556 1540 1670 1540 c 0,6,7
 1790 1540 1790 1540 1859 1487 c 0,8,9
 1914 1446 1914 1446 1914 1371 c 0,10,11
 1914 1347 1914 1347 1908 1319 c 2,12,-1
 1791 769 l 1,13,-1
 1650 716 l 1,14,-1
 1640 716 l 1,15,-1
 1782 1383 l 2,16,17
 1785 1396 1785 1396 1785 1407 c 0,18,19
 1785 1438 1785 1438 1760 1454 c 0,20,21
 1727 1475 1727 1475 1670 1475 c 0,22,23
 1537 1475 1537 1475 1517 1383 c 2,24,-1
 1386 769 l 1,25,-1
 1245 716 l 1,26,-1
 1235 716 l 1,27,-1
 1377 1383 l 2,28,29
 1380 1396 1380 1396 1380 1407 c 0,30,31
 1380 1439 1380 1439 1356 1454 c 0,32,33
 1322 1475 1322 1475 1265 1475 c 0,34,35
 1132 1475 1132 1475 1112 1383 c 2,36,-1
 981 769 l 1,37,-1
 840 716 l 1,38,-1
 830 716 l 1,39,-1
 958 1319 l 2,40,41
 984 1442 984 1442 1065 1488 c 0,42,43
 1157 1540 1157 1540 1268 1540 c 0,0,1
451 1530 m 1,44,-1
 991 1530 l 1,45,-1
 989 1520 l 1,46,-1
 951 1465 l 1,47,-1
 764 1465 l 1,48,-1
 616 767 l 1,49,-1
 475 716 l 1,50,-1
 465 716 l 1,51,-1
 624 1465 l 1,52,-1
 411 1465 l 1,53,-1
 414 1475 l 1,54,-1
 451 1530 l 1,44,-1
EndSplineSet
Validated: 1
EndChar

StartChar: uni2126
Encoding: 8486 8486 152
Width: 1410
GlyphClass: 2
Flags: W
HStem: 0 291<555.507 608 864 982.72> 0 90<257 465 983 1172> 1440 90<793.653 1208.25>
VStem: 317 184<349.855 571.74> 1275 185<1151.26 1377.15>
DStem2: 199.978 0 400.234 0 0.207912 0.978148<519.734 1382.43> 1010.23 0 1209.98 0 0.207912 0.978148<429.776 1289.39>
LayerCount: 2
Fore
SplineSet
608 0 m 1,0,-1
 200 0 l 1,1,-1
 202 10 l 1,2,-1
 257 90 l 1,3,-1
 465 90 l 1,4,-1
 499 248 l 1,5,6
 451 269 451 269 412 299 c 0,7,8
 317 370 317 370 317 505 c 0,9,10
 317 552 317 552 329 607 c 2,11,-1
 439 1126 l 2,12,13
 487 1351 487 1351 632 1434 c 0,14,15
 800 1530 800 1530 1010 1530 c 0,16,17
 1221 1530 1221 1530 1358 1434 c 0,18,19
 1460 1363 1460 1363 1460 1224 c 0,20,21
 1460 1179 1460 1179 1449 1126 c 2,22,-1
 1339 607 l 2,23,24
 1290 380 1290 380 1147 299 c 0,25,26
 1090 267 1090 267 1017 247 c 1,27,-1
 983 90 l 1,28,-1
 1229 90 l 1,29,-1
 1227 80 l 1,30,-1
 1172 0 l 1,31,-1
 802 0 l 1,32,-1
 864 291 l 1,33,34
 933 303 933 303 992 332 c 0,35,36
 1091 379 1091 379 1118 507 c 2,37,-1
 1268 1216 l 2,38,39
 1275 1249 1275 1249 1275 1276 c 0,40,41
 1275 1355 1275 1355 1216 1392 c 0,42,43
 1138 1440 1138 1440 1011.5 1440 c 128,-1,44
 885 1440 885 1440 785 1391.5 c 128,-1,45
 685 1343 685 1343 658 1216 c 2,46,-1
 508 507 l 2,47,48
 501 475 501 475 501 448 c 0,49,50
 501 368 501 368 561 332 c 0,51,52
 608 303 608 303 670 291 c 1,53,-1
 608 0 l 1,0,-1
EndSplineSet
Validated: 1
EndChar

StartChar: estimated
Encoding: 8494 8494 153
Width: 1330
GlyphClass: 2
Flags: W
HStem: -20 92<474.816 877.904> 525 80<477 1112> 1036 84<679.003 1065.2>
LayerCount: 2
Fore
SplineSet
1147 204 m 1,0,1
 1056 113 1056 113 961 61 c 0,2,3
 813 -20 813 -20 661 -20 c 0,4,5
 405 -20 405 -20 286 139 c 0,6,7
 201 252 201 252 201 407 c 0,8,9
 201 474 201 474 217 550 c 0,10,11
 268 788 268 788 451 952 c 24,12,13
 640 1120 640 1120 904 1120 c 0,14,15
 1153 1120 1153 1120 1269 964 c 272,16,17
 1359 843 1359 843 1359 677 c 0,18,19
 1359 605 1359 605 1342 525 c 1,20,-1
 460 525 l 1,21,-1
 389 192 l 1,22,23
 474 72 474 72 681 72 c 256,24,25
 804 72 804 72 908 132 c 0,26,27
 1001 186 1001 186 1068 266 c 1,28,-1
 1147 204 l 1,0,1
477 605 m 1,29,-1
 1112 605 l 1,30,-1
 1175 903 l 1,31,32
 1072 1036 1072 1036 886 1036 c 0,33,34
 695 1036 695 1036 542 914 c 1,35,-1
 477 605 l 1,29,-1
EndSplineSet
Validated: 1
EndChar

StartChar: partialdiff
Encoding: 8706 8706 154
Width: 1285
GlyphClass: 2
Flags: W
HStem: -20 153<436.608 700.456> 870 170<722.652 999.863> 1378 152<776.721 1116.12>
VStem: 215 190<165.92 478.052> 1176 187<906.621 1315.43>
LayerCount: 2
Fore
SplineSet
528 -20 m 0,0,1
 215 -20 215 -20 215 245 c 0,2,3
 215 303 215 303 230 375 c 0,4,5
 284 631 284 631 459 815 c 0,6,7
 675 1040 675 1040 893 1040 c 0,8,9
 1064 1040 1064 1040 1142 898 c 1,10,11
 1176 1073 1176 1073 1176 1170 c 0,12,13
 1176 1212 1176 1212 1170 1239 c 0,14,15
 1139 1378 1139 1378 971 1378 c 0,16,17
 840 1378 840 1378 695 1294 c 1,18,-1
 732 1468 l 1,19,20
 879 1530 879 1530 1028 1530 c 0,21,22
 1363 1530 1363 1530 1363 1174 c 0,23,24
 1363 1069 1363 1069 1334 934 c 0,25,26
 1251 545 1251 545 1032.5 262.5 c 128,-1,27
 814 -20 814 -20 528 -20 c 0,0,1
553 133 m 0,28,29
 691 133 691 133 833 286 c 128,-1,30
 975 439 975 439 1065 680 c 1,31,32
 1061 765 1061 765 1008.5 817.5 c 128,-1,33
 956 870 956 870 880 870 c 0,34,35
 720 870 720 870 587.5 710 c 128,-1,36
 455 550 455 550 416 369 c 0,37,38
 405 319 405 319 405 280 c 0,39,40
 405 133 405 133 553 133 c 0,28,29
EndSplineSet
Validated: 1
EndChar

StartChar: uni2206
Encoding: 8710 8710 155
Width: 1331
GlyphClass: 2
Flags: W
HStem: 0 90<165 1110>
DStem2: 5 0 165 90 0.509835 0.860272<158.998 1612.13> 1075 1550 906 1340 0.159853 -0.987141<180.284 1446.82>
LayerCount: 2
Fore
SplineSet
5 0 m 1,0,-1
 875 1468 l 1,1,-1
 1065 1550 l 1,2,-1
 1075 1550 l 1,3,-1
 1326 0 l 1,4,-1
 5 0 l 1,0,-1
165 90 m 1,5,-1
 1110 90 l 1,6,-1
 906 1340 l 1,7,-1
 165 90 l 1,5,-1
EndSplineSet
Validated: 1
EndChar

StartChar: product
Encoding: 8719 8719 156
Width: 1400
GlyphClass: 2
Flags: W
HStem: -430 21G<109 165.444 909 965.444> 1420 90<702 1302>
DStem2: 109 -430 308.87 -430 0.207912 0.978148<133.566 1932.07> 909 -430 1108.87 -430 0.207912 0.978148<133.566 1891.28>
LayerCount: 2
Fore
SplineSet
119 -430 m 1,0,-1
 109 -430 l 1,1,-1
 510 1460 l 1,2,-1
 627 1510 l 1,3,-1
 1521 1510 l 1,4,-1
 1128 -340 l 1,5,-1
 919 -430 l 1,6,-1
 909 -430 l 1,7,-1
 1302 1420 l 1,8,-1
 702 1420 l 1,9,-1
 328 -340 l 1,10,-1
 119 -430 l 1,0,-1
EndSplineSet
Validated: 1
EndChar

StartChar: summation
Encoding: 8721 8721 157
Width: 1203
GlyphClass: 2
Flags: W
HStem: -410 90<300 928> 1420 90<638 1297>
DStem2: 638 1420 411 1460 0.318189 -0.948027<0 807.545>
LayerCount: 2
Fore
SplineSet
13 -410 m 1,0,-1
 703 590 l 1,1,-1
 411 1460 l 1,2,-1
 528 1510 l 1,3,-1
 1354 1510 l 1,4,-1
 1352 1500 l 1,5,-1
 1297 1420 l 1,6,-1
 638 1420 l 1,7,-1
 936 574 l 1,8,-1
 300 -320 l 1,9,-1
 985 -320 l 1,10,-1
 983 -330 l 1,11,-1
 928 -410 l 1,12,-1
 13 -410 l 1,0,-1
EndSplineSet
Validated: 1
EndChar

StartChar: minus
Encoding: 8722 8722 158
Width: 1200
GlyphClass: 2
Flags: W
HStem: 680 150<392 1129>
LayerCount: 2
Fore
SplineSet
392 830 m 5,0,-1
 1226 830 l 5,1,-1
 1224 820 l 5,2,-1
 1129 680 l 5,3,-1
 295 680 l 5,4,-1
 297 690 l 5,5,-1
 392 830 l 5,0,-1
EndSplineSet
Validated: 1
EndChar

StartChar: uni2215
Encoding: 8725 8725 159
Width: 872
GlyphClass: 2
Flags: W
HStem: -20 21G<106.284 166.756> 1510 20G<1025.26 1086.01>
DStem2: 20 47 153 -20 0.566694 0.823928<20.1671 1799.35>
LayerCount: 2
Fore
SplineSet
143 -20 m 1,0,-1
 20 47 l 1,1,-1
 1039 1530 l 1,2,-1
 1049 1530 l 1,3,-1
 1173 1463 l 1,4,-1
 153 -20 l 1,5,-1
 143 -20 l 1,0,-1
EndSplineSet
Validated: 1
EndChar

StartChar: uni2219
Encoding: 8729 8729 160
Width: 340
GlyphClass: 2
Flags: W
HStem: 632 245<254.711 405.42>
VStem: 207 246<679.592 828.764>
LayerCount: 2
Fore
SplineSet
356 877 m 0,0,1
 408 877 408 877 434 841 c 0,2,3
 453 816 453 816 453 782 c 0,4,5
 453 768 453 768 450 754 c 0,6,7
 439 704 439 704 396.5 668 c 128,-1,8
 354 632 354 632 304 632 c 128,-1,9
 254 632 254 632 226 668 c 0,10,11
 207 693 207 693 207 727 c 0,12,13
 207 740 207 740 210 754 c 0,14,15
 221 804 221 804 263.5 840.5 c 128,-1,16
 306 877 306 877 356 877 c 0,0,1
EndSplineSet
Validated: 1
EndChar

StartChar: radical
Encoding: 8730 8730 161
Width: 1093
GlyphClass: 2
Flags: W
HStem: -20 21G<315.071 374.4> 1510 20G<1259.23 1318.14>
DStem2: 374 806 207 738 0.144893 -0.989447<43.0853 653.213> 464 159 502 55 0.513262 0.858232<0 1590.84>
LayerCount: 2
Fore
SplineSet
318 -20 m 1,0,-1
 207 738 l 1,1,-1
 364 806 l 1,2,-1
 374 806 l 1,3,-1
 464 159 l 1,4,-1
 1271 1530 l 1,5,-1
 1281 1530 l 1,6,-1
 1359 1488 l 1,7,-1
 502 55 l 1,8,-1
 328 -20 l 1,9,-1
 318 -20 l 1,0,-1
EndSplineSet
Validated: 1
EndChar

StartChar: infinity
Encoding: 8734 8734 162
Width: 1369
GlyphClass: 2
Flags: W
HStem: 448 64<452.338 680.87 917.098 1147.48> 1003 59<546.528 770.765 1011.78 1236.92>
VStem: 291 135<535.906 830.965> 1265 134<683.074 979.262>
DStem2: 245.286 448 389.614 448 0.207912 0.978148<194.253 543.296> 705.614 448 854.614 448 0.207912 0.978148<189.699 472.964> 1170.03 448 1314.2 448 0.207912 0.978148<114.398 463.44>
LayerCount: 2
Fore
SplineSet
1026 512 m 0,0,1
 1095 512 1095 512 1145.5 540.5 c 128,-1,2
 1196 569 1196 569 1211 638 c 2,3,-1
 1261 876 l 2,4,5
 1265 895 1265 895 1265 912 c 0,6,7
 1265 955 1265 955 1238 974 c 0,8,9
 1200 1003 1200 1003 1130.5 1003 c 128,-1,10
 1061 1003 1061 1003 1010.5 974 c 128,-1,11
 960 945 960 945 945 876 c 2,12,-1
 895 638 l 2,13,14
 891 619 891 619 891 602 c 0,15,16
 891 559 891 559 918 540 c 0,17,18
 956 512 956 512 1026 512 c 0,0,1
561 512 m 128,-1,20
 630 512 630 512 680.5 540.5 c 128,-1,21
 731 569 731 569 746 638 c 2,22,-1
 796 876 l 2,23,24
 800 895 800 895 800 912 c 0,25,26
 800 954 800 954 772 974 c 0,27,28
 734 1003 734 1003 665 1003 c 128,-1,29
 596 1003 596 1003 545.5 974 c 128,-1,30
 495 945 495 945 480 876 c 2,31,-1
 430 638 l 2,32,33
 426 619 426 619 426 602 c 0,34,35
 426 560 426 560 454 540 c 0,36,19
 492 512 492 512 561 512 c 128,-1,20
668 1062 m 128,-1,38
 792 1062 792 1062 869 1002 c 0,39,40
 878 995 878 995 884 987 c 1,41,42
 895 995 895 995 907 1002 c 0,43,44
 1010 1062 1010 1062 1133 1062 c 0,45,46
 1258 1062 1258 1062 1338 1002 c 0,47,48
 1399 956 1399 956 1399 874 c 0,49,50
 1399 846 1399 846 1392 814 c 2,51,-1
 1367 696 l 2,52,53
 1338 561 1338 561 1248 508 c 0,54,55
 1146 448 1146 448 1022 448 c 0,56,57
 908 448 908 448 822 508 c 0,58,59
 812 515 812 515 805 523 c 1,60,61
 795 515 795 515 784 508 c 0,62,63
 681 448 681 448 557 448 c 0,64,65
 432 448 432 448 351 508 c 0,66,67
 291 553 291 553 291 636 c 0,68,69
 291 664 291 664 298 696 c 2,70,-1
 323 814 l 2,71,72
 352 949 352 949 442 1002 c 0,73,37
 544 1062 544 1062 668 1062 c 128,-1,38
EndSplineSet
Validated: 1
EndChar

StartChar: approxequal
Encoding: 8776 8776 163
Width: 1138
GlyphClass: 2
Flags: W
HStem: 376 127<794.669 967.533> 610 127<407.556 580.331> 776 127<879.669 1052.53> 1010 127<492.556 665.331>
LayerCount: 2
Fore
SplineSet
563 737 m 0,0,1
 672 737 672 737 747 610 c 0,2,3
 811 503 811 503 884 503 c 0,4,5
 999 503 999 503 1042 696 c 1,6,-1
 1135 737 l 1,7,-1
 1145 737 l 1,8,9
 1068 376 1068 376 812 376 c 0,10,11
 703 376 703 376 628 503 c 0,12,13
 564 610 564 610 491 610 c 0,14,15
 376 610 376 610 334 417 c 1,16,-1
 240 376 l 1,17,-1
 230 376 l 1,18,19
 307 737 307 737 563 737 c 0,0,1
648 1137 m 0,20,21
 757 1137 757 1137 832 1010 c 0,22,23
 896 903 896 903 969 903 c 0,24,25
 1084 903 1084 903 1127 1096 c 1,26,-1
 1220 1137 l 1,27,-1
 1230 1137 l 1,28,29
 1153 776 1153 776 897 776 c 0,30,31
 788 776 788 776 713 903 c 0,32,33
 649 1010 649 1010 576 1010 c 0,34,35
 461 1010 461 1010 419 817 c 1,36,-1
 325 776 l 1,37,-1
 315 776 l 1,38,39
 392 1137 392 1137 648 1137 c 0,20,21
EndSplineSet
Validated: 1
EndChar

StartChar: notequal
Encoding: 8800 8800 164
Width: 1200
GlyphClass: 2
Flags: W
HStem: 480 150<350 519 730 1086> 880 150<435 790 1002 1171>
DStem2: 308 170 415 166 0.561828 0.827254<56.8066 374.994 617.628 858.151 1101.35 1420.36>
LayerCount: 2
Fore
SplineSet
435 1030 m 1,0,-1
 892 1030 l 1,1,-1
 1106 1345 l 1,2,-1
 1205 1345 l 1,3,-1
 1213 1341 l 1,4,-1
 1002 1030 l 1,5,-1
 1269 1030 l 1,6,-1
 1267 1020 l 1,7,-1
 1171 880 l 1,8,-1
 900 880 l 1,9,-1
 730 630 l 1,10,-1
 1184 630 l 1,11,-1
 1182 620 l 1,12,-1
 1086 480 l 1,13,-1
 628 480 l 1,14,-1
 415 166 l 1,15,-1
 316 166 l 1,16,-1
 308 170 l 1,17,-1
 519 480 l 1,18,-1
 252 480 l 1,19,-1
 254 490 l 1,20,-1
 350 630 l 1,21,-1
 621 630 l 1,22,-1
 790 880 l 1,23,-1
 337 880 l 1,24,-1
 339 890 l 1,25,-1
 435 1030 l 1,0,-1
EndSplineSet
Validated: 1
EndChar

StartChar: lessequal
Encoding: 8804 8804 165
Width: 1315
GlyphClass: 2
Flags: W
HStem: 275 150<306 1107>
DStem2: 513 912 324 818 0.933865 -0.357626<0 749.109> 421 968 513 912 0.945706 0.325023<68.8037 977.047>
LayerCount: 2
Fore
SplineSet
421 968 m 1,0,-1
 1355 1289 l 1,1,-1
 1374 1217 l 1,2,-1
 1372 1207 l 1,3,-1
 513 912 l 1,4,-1
 1251 643 l 1,5,-1
 1249 633 l 1,6,-1
 1157 499 l 1,7,-1
 324 818 l 1,8,-1
 326 828 l 1,9,-1
 421 968 l 1,0,-1
306 425 m 1,10,-1
 1205 425 l 1,11,-1
 1203 415 l 1,12,-1
 1107 275 l 1,13,-1
 208 275 l 1,14,-1
 211 285 l 1,15,-1
 306 425 l 1,10,-1
EndSplineSet
Validated: 1
EndChar

StartChar: greaterequal
Encoding: 8805 8805 166
Width: 1315
GlyphClass: 2
Flags: W
HStem: 275 150<356 1157>
DStem2: 321 571 338 489 0.945706 0.325023<0 908.243> 536 1279 442 1135 0.933865 -0.357626<0 749.109>
LayerCount: 2
Fore
SplineSet
1272 810 m 1,0,-1
 338 489 l 1,1,-1
 319 561 l 1,2,-1
 321 571 l 1,3,-1
 1180 866 l 1,4,-1
 442 1135 l 1,5,-1
 444 1145 l 1,6,-1
 536 1279 l 1,7,-1
 1369 960 l 1,8,-1
 1367 950 l 1,9,-1
 1272 810 l 1,0,-1
356 425 m 1,10,-1
 1255 425 l 1,11,-1
 1253 415 l 1,12,-1
 1157 275 l 1,13,-1
 258 275 l 1,14,-1
 261 285 l 1,15,-1
 356 425 l 1,10,-1
EndSplineSet
Validated: 1
EndChar

StartChar: lozenge
Encoding: 9674 9674 167
Width: 1134
GlyphClass: 2
Flags: W
HStem: -20 21G<554.926 579.531> 1510 20G<875.965 899.605>
DStem2: 257 738 426 806 0.625536 0.780196<158.769 744.264> 426 806 257 738 0.374342 -0.927291<0 628.938> 657 221 563 -20 0.637091 0.770789<0 576.711> 892 1530 792 1263 0.355404 -0.934713<214.028 844.11>
LayerCount: 2
Fore
SplineSet
657 221 m 1,0,-1
 1019 670 l 1,1,-1
 792 1263 l 1,2,-1
 426 806 l 1,3,-1
 657 221 l 1,0,-1
563 -20 m 1,4,-1
 257 738 l 1,5,-1
 892 1530 l 1,6,-1
 1192 741 l 1,7,-1
 563 -20 l 1,4,-1
EndSplineSet
Validated: 1
EndChar

StartChar: Oslash
Encoding: 216 216 168
Width: 1330
Flags: W
HStem: -40 21G<233 353.6> -20 90<481.377 896.024> 1440 90<755.197 1170.53>
VStem: 230 185<235.344 359.112> 1236 185<1151.21 1274.66>
DStem2: 151.876 -40 351.006 -40 0.207912 0.978148<331.668 1421.73> 233 -36 340 -40 0.562139 0.827043<56.8407 152.84 323.957 1650.56 1821.68 1917.11> 961.006 -40 1161.88 -40 0.207912 0.978148<248.885 1335.47>
LayerCount: 2
Fore
SplineSet
682 -20 m 0,0,1
 503 -20 503 -20 391 35 c 1,2,-1
 340 -40 l 1,3,-1
 241 -40 l 1,4,-1
 233 -36 l 1,5,-1
 315 83 l 1,6,7
 230 154 230 154 230 281 c 0,8,9
 230 328 230 328 242 384 c 2,10,-1
 399 1126 l 2,11,12
 446 1348 446 1348 592 1434 c 0,13,14
 754 1530 754 1530 971 1530 c 0,15,16
 1149 1530 1149 1530 1260 1476 c 1,17,-1
 1310 1550 l 1,18,-1
 1409 1550 l 1,19,-1
 1418 1546 l 1,20,-1
 1336 1427 l 1,21,22
 1421 1356 1421 1356 1421 1229 c 0,23,24
 1421 1182 1421 1182 1409 1126 c 2,25,-1
 1252 384 l 2,26,27
 1206 169 1206 169 1060 76 c 0,28,29
 908 -20 908 -20 682 -20 c 0,0,1
681 70 m 128,-1,31
 807 70 807 70 906 118.5 c 128,-1,32
 1005 167 1005 167 1032 294 c 2,33,-1
 1228 1216 l 2,34,35
 1235 1250 1235 1250 1236 1278 c 1,36,-1
 457 131 l 1,37,38
 466 123 466 123 475 118 c 0,39,30
 555 70 555 70 681 70 c 128,-1,31
415 232 m 1,40,-1
 1194 1379 l 1,41,42
 1186 1386 1186 1386 1177 1392 c 0,43,44
 1098 1440 1098 1440 971.5 1440 c 128,-1,45
 845 1440 845 1440 745 1391.5 c 128,-1,46
 645 1343 645 1343 618 1216 c 2,47,-1
 422 294 l 2,48,49
 415 260 415 260 415 232 c 1,40,-1
EndSplineSet
Validated: 1
EndChar

StartChar: oslash
Encoding: 248 248 169
Width: 1150
Flags: W
HStem: -40 21G<239 359.846> -20 80<440.034 758.884> 1040 80<624.881 943.481>
VStem: 219 167<183.875 306.934> 997 168<675.125 916.125>
DStem2: 151.905 -40 331.059 -40 0.207912 0.978148<287.038 1052.23> 302 56 346 -40 0.561501 0.827476<-54.7316 8.2794 150.601 1104.36 1248.1 1309.69> 801.059 -40 981.905 -40 0.207912 0.978148<191.694 956.794>
LayerCount: 2
Fore
SplineSet
588 60 m 0,0,1
 686 60 686 60 763 101.5 c 128,-1,2
 840 143 840 143 861 242 c 2,3,-1
 992 858 l 2,4,5
 997 884 997 884 997 907 c 0,6,7
 997 913 997 913 997 919 c 1,8,-1
 438 96 l 1,9,10
 497 60 497 60 588 60 c 0,0,1
591 -20 m 0,11,12
 463 -20 463 -20 382 12 c 1,13,-1
 346 -40 l 1,14,-1
 247 -40 l 1,15,-1
 239 -36 l 1,16,-1
 302 56 l 1,17,18
 219 124 219 124 219 238 c 0,19,20
 219 276 219 276 228 318 c 2,21,-1
 326 782 l 2,22,23
 366 969 366 969 482 1038 c 0,24,25
 621 1120 621 1120 793 1120 c 0,26,27
 921 1120 921 1120 1002 1088 c 1,28,-1
 1037 1140 l 1,29,-1
 1136 1140 l 1,30,-1
 1144 1136 l 1,31,-1
 1082 1044 l 1,32,33
 1165 976 1165 976 1165 862 c 0,34,35
 1165 824 1165 824 1156 782 c 2,36,-1
 1058 318 l 2,37,38
 1019 131 1019 131 902 62 c 0,39,40
 763 -20 763 -20 591 -20 c 0,11,12
386 181 m 1,41,-1
 945 1004 l 1,42,43
 887 1040 887 1040 796 1040 c 0,44,45
 698 1040 698 1040 620.5 998.5 c 128,-1,46
 543 957 543 957 522 858 c 2,47,-1
 391 242 l 2,48,49
 386 216 386 216 386 193 c 0,50,51
 386 187 386 187 386 181 c 1,41,-1
EndSplineSet
Validated: 1
EndChar

StartChar: multiply
Encoding: 215 215 170
Width: 1142
Flags: W
HStem: 430 650
DStem2: 304 490 444 430 0.771307 0.636463<69.7952 413.577 583.216 926.998> 583 1080 417 1020 0.61735 -0.786688<0 277.852 416.849 694.7>
LayerCount: 2
Fore
SplineSet
1019 1080 m 1,0,-1
 1153 1027 l 1,1,-1
 1159 1020 l 1,2,-1
 837 755 l 1,3,-1
 1046 490 l 1,4,-1
 1038 483 l 1,5,-1
 880 430 l 1,6,-1
 709 649 l 1,7,-1
 444 430 l 1,8,-1
 310 483 l 1,9,-1
 304 490 l 1,10,-1
 625 755 l 1,11,-1
 417 1020 l 1,12,-1
 425 1027 l 1,13,-1
 583 1080 l 1,14,-1
 754 861 l 1,15,-1
 1019 1080 l 1,0,-1
EndSplineSet
Validated: 1
EndChar

StartChar: divide
Encoding: 247 247 171
Width: 1200
Flags: W
HStem: 306 245<615.58 766.42> 680 150<392 1129> 959 245<754.58 905.42>
VStem: 568 246<353.592 502.764> 707 246<1006.59 1155.76>
CounterMasks: 1 e0
LayerCount: 2
Fore
SplineSet
856 1204 m 0,0,1
 905 1204 905 1204 933 1168 c 0,2,3
 953 1142 953 1142 953 1109 c 0,4,5
 953 1095 953 1095 950 1081 c 0,6,7
 939 1031 939 1031 896.5 995 c 128,-1,8
 854 959 854 959 804 959 c 0,9,10
 755 959 755 959 727 995 c 0,11,12
 707 1021 707 1021 707 1054 c 0,13,14
 707 1067 707 1067 710 1081 c 0,15,16
 721 1131 721 1131 763.5 1167.5 c 128,-1,17
 806 1204 806 1204 856 1204 c 0,0,1
392 830 m 1,18,-1
 1226 830 l 1,19,-1
 1224 820 l 1,20,-1
 1129 680 l 1,21,-1
 295 680 l 1,22,-1
 297 690 l 1,23,-1
 392 830 l 1,18,-1
665 306 m 0,24,25
 616 306 616 306 588 342 c 0,26,27
 568 368 568 368 568 401 c 0,28,29
 568 414 568 414 571 428 c 0,30,31
 582 478 582 478 624.5 514.5 c 128,-1,32
 667 551 667 551 717 551 c 0,33,34
 766 551 766 551 794 515 c 0,35,36
 814 489 814 489 814 456 c 0,37,38
 814 442 814 442 811 428 c 0,39,40
 800 378 800 378 757.5 342 c 128,-1,41
 715 306 715 306 665 306 c 0,24,25
EndSplineSet
Validated: 1
EndChar

StartChar: uni1E02
Encoding: 7682 7682 172
Width: 1250
Flags: W
HStem: 0 90<419 874.25> 791 90<587 1005.58> 1420 90<702 1098.12> 1630 245<902.711 1053.42>
VStem: 855 246<1677.59 1826.76> 1073 208<389.623 730.512> 1143 184<1052.21 1377.46>
DStem2: 200 0 399.87 0 0.207912 0.978148<133.566 850.226 942.21 1472.15> 875.052 0 1069.59 0 0.207912 0.978148<976.511 1305.92> 945.257 0 1160.13 0 0.207912 0.978148<228.308 638.053>
LayerCount: 2
Fore
SplineSet
419 90 m 1,0,-1
 659 90 l 2,1,2
 783 90 783 90 884 138 c 0,3,4
 984 186 984 186 1012 314 c 2,5,-1
 1066 567 l 2,6,7
 1073 599 1073 599 1073 626 c 0,8,9
 1073 706 1073 706 1013 743 c 0,10,11
 935 791 935 791 808 791 c 2,12,-1
 568 791 l 1,13,-1
 419 90 l 1,0,-1
587 881 m 1,14,-1
 827 881 l 2,15,16
 925 881 925 881 1002.5 922.5 c 128,-1,17
 1080 964 1080 964 1101 1063 c 2,18,-1
 1138 1238 l 2,19,20
 1143 1264 1143 1264 1143 1286 c 0,21,22
 1143 1349 1143 1349 1100 1378 c 0,23,24
 1040 1420 1040 1420 942 1420 c 2,25,-1
 702 1420 l 1,26,-1
 587 881 l 1,14,-1
200 0 m 1,27,-1
 506 1440 l 1,28,-1
 669 1510 l 1,29,-1
 956 1510 l 2,30,31
 1127 1510 1127 1510 1232 1428 c 0,32,33
 1327 1354 1327 1354 1327 1240 c 0,34,35
 1327 1209 1327 1209 1319 1172 c 2,36,-1
 1300 1084 l 2,37,38
 1264 917 1264 917 1118 851 c 1,39,40
 1281 793 1281 793 1281 609 c 0,41,42
 1281 569 1281 569 1271 522 c 2,43,-1
 1246 404 l 2,44,45
 1198 180 1198 180 1052 96 c 0,46,47
 885 0 885 0 675 0 c 2,48,-1
 200 0 l 1,27,-1
1004 1875 m 0,49,50
 1056 1875 1056 1875 1082 1839 c 0,51,52
 1101 1814 1101 1814 1101 1780 c 0,53,54
 1101 1766 1101 1766 1098 1752 c 0,55,56
 1087 1702 1087 1702 1044.5 1666 c 128,-1,57
 1002 1630 1002 1630 952 1630 c 128,-1,58
 902 1630 902 1630 874 1666 c 0,59,60
 855 1691 855 1691 855 1725 c 0,61,62
 855 1738 855 1738 858 1752 c 0,63,64
 869 1802 869 1802 911.5 1838.5 c 128,-1,65
 954 1875 954 1875 1004 1875 c 0,49,50
EndSplineSet
Validated: 1
EndChar

StartChar: uni1E03
Encoding: 7683 7683 173
Width: 1170
Flags: W
HStem: -20 80<453.644 774.112> 1040 80<644.797 964.748> 1220 245<805.711 956.42> 1510 20G<628.827 685>
VStem: 239 167<103.201 424.453> 758 246<1267.59 1416.76> 1008 176<677.812 996.623>
DStem2: 176.156 -20 355.31 -20 0.207912 0.978148<266.561 1069.96 1132.18 1501.73> 815.375 -20 1005.53 -20 0.207912 0.978148<173.221 933.405>
LayerCount: 2
Fore
SplineSet
608 60 m 128,-1,1
 706 60 706 60 778 101.5 c 128,-1,2
 850 143 850 143 871 242 c 2,3,-1
 1002 858 l 2,4,5
 1008 886 1008 886 1008 909 c 0,6,7
 1008 968 1008 968 968 998 c 0,8,9
 914 1040 914 1040 816 1040 c 128,-1,10
 718 1040 718 1040 640.5 998.5 c 128,-1,11
 563 957 563 957 542 858 c 2,12,-1
 411 242 l 2,13,14
 406 216 406 216 406 195 c 0,15,16
 406 134 406 134 450 102 c 0,17,0
 510 60 510 60 608 60 c 128,-1,1
611 -20 m 128,-1,19
 439 -20 439 -20 325 62 c 0,20,21
 239 124 239 124 239 238 c 0,22,23
 239 275 239 275 248 318 c 2,24,-1
 488 1449 l 1,25,-1
 675 1530 l 1,26,-1
 685 1530 l 1,27,-1
 583 1051 l 1,28,29
 679 1120 679 1120 823 1120 c 0,30,31
 995 1120 995 1120 1099 1038 c 0,32,33
 1184 970 1184 970 1184 857 c 0,34,35
 1184 822 1184 822 1176 782 c 2,36,-1
 1078 318 l 2,37,38
 1038 131 1038 131 922 62 c 0,39,18
 783 -20 783 -20 611 -20 c 128,-1,19
907 1465 m 0,40,41
 959 1465 959 1465 985 1429 c 0,42,43
 1004 1404 1004 1404 1004 1370 c 0,44,45
 1004 1356 1004 1356 1001 1342 c 0,46,47
 990 1292 990 1292 947.5 1256 c 128,-1,48
 905 1220 905 1220 855 1220 c 128,-1,49
 805 1220 805 1220 777 1256 c 0,50,51
 758 1281 758 1281 758 1315 c 0,52,53
 758 1328 758 1328 761 1342 c 0,54,55
 772 1392 772 1392 814.5 1428.5 c 128,-1,56
 857 1465 857 1465 907 1465 c 0,40,41
EndSplineSet
Validated: 1
EndChar

StartChar: uni1E0A
Encoding: 7690 7690 174
Width: 1350
Flags: W
HStem: 0 90<419 909.749> 1420 90<702 1174> 1630 245<932.711 1083.42>
VStem: 885 246<1677.59 1826.76> 1241 194<1017.55 1343.22>
DStem2: 200 0 399.87 0 0.207912 0.978148<133.566 1472.15> 980.257 0 1190.13 0 0.207912 0.978148<225.816 1258.3>
LayerCount: 2
Fore
SplineSet
419 90 m 1,0,-1
 694 90 l 2,1,2
 821 90 821 90 919 138 c 0,3,4
 1019 186 1019 186 1047 314 c 2,5,-1
 1234 1196 l 2,6,7
 1241 1229 1241 1229 1241 1256 c 0,8,9
 1241 1336 1241 1336 1182 1372 c 0,10,11
 1104 1420 1104 1420 977 1420 c 2,12,-1
 702 1420 l 1,13,-1
 419 90 l 1,0,-1
200 0 m 1,14,-1
 506 1440 l 1,15,-1
 669 1510 l 1,16,-1
 986 1510 l 2,17,18
 1194 1510 1194 1510 1322 1414 c 0,19,20
 1435 1329 1435 1329 1435 1191 c 0,21,22
 1435 1151 1435 1151 1425 1106 c 2,23,-1
 1276 404 l 2,24,25
 1229 180 1229 180 1082 96 c 0,26,27
 915 0 915 0 705 0 c 2,28,-1
 200 0 l 1,14,-1
1034 1875 m 0,29,30
 1086 1875 1086 1875 1112 1839 c 0,31,32
 1131 1814 1131 1814 1131 1780 c 0,33,34
 1131 1766 1131 1766 1128 1752 c 0,35,36
 1117 1702 1117 1702 1074.5 1666 c 128,-1,37
 1032 1630 1032 1630 982 1630 c 128,-1,38
 932 1630 932 1630 904 1666 c 0,39,40
 885 1691 885 1691 885 1725 c 0,41,42
 885 1738 885 1738 888 1752 c 0,43,44
 899 1802 899 1802 941.5 1838.5 c 128,-1,45
 984 1875 984 1875 1034 1875 c 0,29,30
EndSplineSet
Validated: 1
EndChar

StartChar: uni1E0B
Encoding: 7691 7691 175
Width: 1170
Flags: W
HStem: -20 80<440.279 758.884> 1040 80<629.653 950.613> 1220 245<783.711 934.42> 1510 20G<1258.83 1315>
VStem: 220 175<103.377 422.188> 736 246<1267.59 1416.76>
DStem2: 156.156 -20 345.31 -20 0.207912 0.978148<271.598 1031.63> 805.31 -20 986.156 -20 0.207912 0.978148<172.913 944.946 1094.94 1501.91>
LayerCount: 2
Fore
SplineSet
588 60 m 128,-1,1
 686 60 686 60 763 101.5 c 128,-1,2
 840 143 840 143 861 242 c 2,3,-1
 992 858 l 2,4,5
 997 884 997 884 997 906 c 0,6,7
 997 969 997 969 954 998 c 0,8,9
 894 1040 894 1040 796 1040 c 128,-1,10
 698 1040 698 1040 625.5 998.5 c 128,-1,11
 553 957 553 957 532 858 c 2,12,-1
 401 242 l 2,13,14
 395 215 395 215 395 192 c 0,15,16
 395 132 395 132 435 102 c 0,17,0
 490 60 490 60 588 60 c 128,-1,1
591 -20 m 0,18,19
 409 -20 409 -20 305 62 c 0,20,21
 220 130 220 130 220 243 c 0,22,23
 220 278 220 278 228 318 c 2,24,-1
 326 782 l 2,25,26
 366 969 366 969 482 1038 c 0,27,28
 621 1120 621 1120 793 1120 c 0,29,30
 967 1120 967 1120 1033 1051 c 1,31,-1
 1118 1449 l 1,32,-1
 1305 1530 l 1,33,-1
 1315 1530 l 1,34,-1
 1058 318 l 2,35,36
 1018 131 1018 131 902 62 c 0,37,38
 763 -20 763 -20 591 -20 c 0,18,19
885 1465 m 0,39,40
 937 1465 937 1465 963 1429 c 0,41,42
 982 1404 982 1404 982 1370 c 0,43,44
 982 1356 982 1356 979 1342 c 0,45,46
 968 1292 968 1292 925.5 1256 c 128,-1,47
 883 1220 883 1220 833 1220 c 128,-1,48
 783 1220 783 1220 755 1256 c 0,49,50
 736 1281 736 1281 736 1315 c 0,51,52
 736 1328 736 1328 739 1342 c 0,53,54
 750 1392 750 1392 792.5 1428.5 c 128,-1,55
 835 1465 835 1465 885 1465 c 0,39,40
EndSplineSet
Validated: 1
EndChar

StartChar: uni1E1E
Encoding: 7710 7710 176
Width: 1010
Flags: W
HStem: -20 21G<196 252.444> 710 90<570 1073> 1420 90<702 1224> 1630 245<892.027 1043.61>
VStem: 845 245<1676.4 1827.97>
DStem2: 196 -20 395.87 -20 0.207912 0.978148<133.566 787.856 879.84 1492.55>
LayerCount: 2
Fore
SplineSet
196 -20 m 1,0,-1
 506 1440 l 1,1,-1
 669 1510 l 1,2,-1
 1281 1510 l 1,3,-1
 1279 1500 l 1,4,-1
 1224 1420 l 1,5,-1
 702 1420 l 1,6,-1
 570 800 l 1,7,-1
 1130 800 l 1,8,-1
 1128 790 l 1,9,-1
 1073 710 l 1,10,-1
 551 710 l 1,11,-1
 415 70 l 1,12,-1
 206 -20 l 1,13,-1
 196 -20 l 1,0,-1
993 1875 m 0,14,15
 1042 1875 1042 1875 1070 1839 c 0,16,17
 1090 1813 1090 1813 1090 1779 c 0,18,19
 1090 1763 1090 1763 1088 1752 c 0,20,21
 1078 1702 1078 1702 1034.5 1666 c 128,-1,22
 991 1630 991 1630 941 1630 c 128,-1,23
 891 1630 891 1630 864 1666 c 0,24,25
 845 1692 845 1692 845 1725 c 0,26,27
 845 1739 845 1739 848 1752 c 0,28,29
 858 1802 858 1802 900.5 1838.5 c 128,-1,30
 943 1875 943 1875 993 1875 c 0,14,15
EndSplineSet
Validated: 1
EndChar

StartChar: uni1E1F
Encoding: 7711 7711 177
Width: 780
Flags: W
HStem: -20 21G<176 232.173> 820 80<551 872> 1430 80<727.955 1041> 1630 245<737.711 888.42>
VStem: 690 246<1677.59 1826.76>
DStem2: 176 -20 355.783 -20 0.207912 0.978148<120.189 896.076 977.863 1430.55>
LayerCount: 2
Fore
SplineSet
186 -20 m 1,0,-1
 176 -20 l 1,1,-1
 429 1172 l 2,2,3
 469 1359 469 1359 585 1428 c 0,4,5
 724 1510 724 1510 896 1510 c 2,6,-1
 1091 1510 l 1,7,-1
 1089 1500 l 1,8,-1
 1041 1430 l 1,9,-1
 899 1430 l 2,10,11
 802 1430 802 1430 723 1388 c 0,12,13
 646 1347 646 1347 625 1248 c 2,14,-1
 551 900 l 1,15,-1
 922 900 l 1,16,-1
 920 890 l 1,17,-1
 872 820 l 1,18,-1
 534 820 l 1,19,-1
 373 61 l 1,20,-1
 186 -20 l 1,0,-1
839 1875 m 0,21,22
 891 1875 891 1875 917 1839 c 0,23,24
 936 1814 936 1814 936 1780 c 0,25,26
 936 1766 936 1766 933 1752 c 0,27,28
 922 1702 922 1702 879.5 1666 c 128,-1,29
 837 1630 837 1630 787 1630 c 128,-1,30
 737 1630 737 1630 709 1666 c 0,31,32
 690 1691 690 1691 690 1725 c 0,33,34
 690 1738 690 1738 693 1752 c 0,35,36
 704 1802 704 1802 746.5 1838.5 c 128,-1,37
 789 1875 789 1875 839 1875 c 0,21,22
EndSplineSet
Validated: 1
EndChar

StartChar: uni1E40
Encoding: 7744 7744 178
Width: 2180
Flags: W
HStem: -20 21G<176 232.444 986 1042.44 1796 1852.44> 1440 90<773.653 1187.42 1584.15 1998.62> 1630 245<1384.71 1535.42>
VStem: 1337 246<1677.59 1826.76> 2065 185<1150.13 1377.15>
DStem2: 176 -20 375.87 -20 0.207912 0.978148<133.566 1402.82> 986 -20 1185.87 -20 0.207912 0.978148<133.566 1322.78> 1796 -20 1995.87 -20 0.207912 0.978148<133.566 1309.83>
LayerCount: 2
Fore
SplineSet
186 -20 m 1,0,-1
 176 -20 l 1,1,-1
 419 1126 l 2,2,3
 467 1351 467 1351 612 1434 c 0,4,5
 780 1530 780 1530 990 1530 c 0,6,7
 1203 1530 1203 1530 1328 1434 c 0,8,9
 1350 1417 1350 1417 1367 1397 c 1,10,11
 1393 1417 1393 1417 1423 1434 c 0,12,13
 1591 1530 1591 1530 1801 1530 c 0,14,15
 2012 1530 2012 1530 2148 1434 c 0,16,17
 2250 1363 2250 1363 2250 1224 c 0,18,19
 2250 1179 2250 1179 2239 1126 c 2,20,-1
 2015 70 l 1,21,-1
 1806 -20 l 1,22,-1
 1796 -20 l 1,23,-1
 2058 1216 l 2,24,25
 2065 1249 2065 1249 2065 1276 c 0,26,27
 2065 1356 2065 1356 2006 1392 c 0,28,29
 1928 1440 1928 1440 1801.5 1440 c 128,-1,30
 1675 1440 1675 1440 1575 1391.5 c 128,-1,31
 1475 1343 1475 1343 1448 1216 c 2,32,-1
 1205 70 l 1,33,-1
 996 -20 l 1,34,-1
 986 -20 l 1,35,-1
 1248 1216 l 2,36,37
 1255 1249 1255 1249 1255 1276 c 0,38,39
 1255 1356 1255 1356 1196 1392 c 0,40,41
 1118 1440 1118 1440 991.5 1440 c 128,-1,42
 865 1440 865 1440 765 1391.5 c 128,-1,43
 665 1343 665 1343 638 1216 c 2,44,-1
 395 70 l 1,45,-1
 186 -20 l 1,0,-1
1486 1875 m 0,46,47
 1538 1875 1538 1875 1564 1839 c 0,48,49
 1583 1814 1583 1814 1583 1780 c 0,50,51
 1583 1766 1583 1766 1580 1752 c 0,52,53
 1569 1702 1569 1702 1526.5 1666 c 128,-1,54
 1484 1630 1484 1630 1434 1630 c 128,-1,55
 1384 1630 1384 1630 1356 1666 c 0,56,57
 1337 1691 1337 1691 1337 1725 c 0,58,59
 1337 1738 1337 1738 1340 1752 c 0,60,61
 1351 1802 1351 1802 1393.5 1838.5 c 128,-1,62
 1436 1875 1436 1875 1486 1875 c 0,46,47
EndSplineSet
Validated: 1
EndChar

StartChar: uni1E41
Encoding: 7745 7745 179
Width: 1840
Flags: W
HStem: -20 21G<176 232.173 826 882.173 1476 1532.17> 1040 80<644.881 969.756 1295.32 1620.42> 1220 245<1125.71 1276.42>
VStem: 1078 246<1267.59 1416.76> 1667 168<792.099 997.085>
DStem2: 176 -20 355.783 -20 0.207912 0.978148<120.189 1031.81> 826 -20 1005.78 -20 0.207912 0.978148<120.189 944.802> 1476 -20 1655.78 -20 0.207912 0.978148<120.189 936.234>
LayerCount: 2
Fore
SplineSet
186 -20 m 1,0,-1
 176 -20 l 1,1,-1
 346 782 l 2,2,3
 386 969 386 969 502 1038 c 0,4,5
 641 1120 641 1120 813 1120 c 0,6,7
 979 1120 979 1120 1089 1038 c 0,8,9
 1104 1027 1104 1027 1115 1013 c 1,10,11
 1134 1026 1134 1026 1153 1038 c 0,12,13
 1292 1120 1292 1120 1463.5 1120 c 128,-1,14
 1635 1120 1635 1120 1749 1038 c 0,15,16
 1835 976 1835 976 1835 862 c 0,17,18
 1835 825 1835 825 1826 782 c 2,19,-1
 1673 61 l 1,20,-1
 1486 -20 l 1,21,-1
 1476 -20 l 1,22,-1
 1662 858 l 2,23,24
 1667 884 1667 884 1667 906 c 0,25,26
 1667 969 1667 969 1624 998 c 0,27,28
 1564 1040 1564 1040 1466 1040 c 128,-1,29
 1368 1040 1368 1040 1290.5 998.5 c 128,-1,30
 1213 957 1213 957 1192 858 c 2,31,-1
 1023 61 l 1,32,-1
 836 -20 l 1,33,-1
 826 -20 l 1,34,-1
 1012 858 l 2,35,36
 1017 884 1017 884 1017 906 c 0,37,38
 1017 969 1017 969 974 998 c 0,39,40
 914 1040 914 1040 816 1040 c 128,-1,41
 718 1040 718 1040 640.5 998.5 c 128,-1,42
 563 957 563 957 542 858 c 2,43,-1
 373 61 l 1,44,-1
 186 -20 l 1,0,-1
1227 1465 m 0,45,46
 1279 1465 1279 1465 1305 1429 c 0,47,48
 1324 1404 1324 1404 1324 1370 c 0,49,50
 1324 1356 1324 1356 1321 1342 c 0,51,52
 1310 1292 1310 1292 1267.5 1256 c 128,-1,53
 1225 1220 1225 1220 1175 1220 c 128,-1,54
 1125 1220 1125 1220 1097 1256 c 0,55,56
 1078 1281 1078 1281 1078 1315 c 0,57,58
 1078 1328 1078 1328 1081 1342 c 0,59,60
 1092 1392 1092 1392 1134.5 1428.5 c 128,-1,61
 1177 1465 1177 1465 1227 1465 c 0,45,46
EndSplineSet
Validated: 1
EndChar

StartChar: uni1E56
Encoding: 7766 7766 180
Width: 1210
Flags: W
HStem: -20 21G<196 252.444> 500 90<525 986.657> 1420 90<702 1144> 1630 245<885.711 1036.42>
VStem: 838 246<1677.59 1826.76> 1211 194<1017.28 1342.42>
DStem2: 196 -20 395.87 -20 0.207912 0.978148<133.566 573.089 665.073 1492.55> 945.728 -20 1155.6 -20 0.207912 0.978148<757.406 1278.8>
LayerCount: 2
Fore
SplineSet
525 590 m 1,0,-1
 770 590 l 2,1,2
 897 590 897 590 996 638 c 0,3,4
 1096 686 1096 686 1123 814 c 2,5,-1
 1204 1196 l 2,6,7
 1211 1229 1211 1229 1211 1256 c 0,8,9
 1211 1336 1211 1336 1152 1372 c 0,10,11
 1074 1420 1074 1420 947 1420 c 2,12,-1
 702 1420 l 1,13,-1
 525 590 l 1,0,-1
206 -20 m 1,14,-1
 196 -20 l 1,15,-1
 506 1440 l 1,16,-1
 669 1510 l 1,17,-1
 956 1510 l 2,18,19
 1164 1510 1164 1510 1292 1414 c 0,20,21
 1404 1329 1404 1329 1405 1191 c 0,22,23
 1405 1151 1405 1151 1395 1106 c 2,24,-1
 1352 904 l 2,25,26
 1304 680 1304 680 1159 596 c 0,27,28
 992 500 992 500 781 500 c 2,29,-1
 506 500 l 1,30,-1
 415 70 l 1,31,-1
 206 -20 l 1,14,-1
987 1875 m 0,32,33
 1039 1875 1039 1875 1065 1839 c 0,34,35
 1084 1814 1084 1814 1084 1780 c 0,36,37
 1084 1766 1084 1766 1081 1752 c 0,38,39
 1070 1702 1070 1702 1027.5 1666 c 128,-1,40
 985 1630 985 1630 935 1630 c 128,-1,41
 885 1630 885 1630 857 1666 c 0,42,43
 838 1691 838 1691 838 1725 c 0,44,45
 838 1738 838 1738 841 1752 c 0,46,47
 852 1802 852 1802 894.5 1838.5 c 128,-1,48
 937 1875 937 1875 987 1875 c 0,32,33
EndSplineSet
Validated: 1
EndChar

StartChar: uni1E57
Encoding: 7767 7767 181
Width: 1170
Flags: W
HStem: -430 21G<89 145.173> -20 80<455.055 774.112> 1040 80<644.881 963.044> 1220 245<807.711 958.42>
VStem: 760 246<1267.59 1416.76> 1008 177<677.812 998.034>
DStem2: 89 -430 268.783 -430 0.207912 0.978148<120.189 526.956 677.894 1450.94> 728.227 -430 918.381 -430 0.207912 0.978148<592.381 1357.6>
LayerCount: 2
Fore
SplineSet
608 60 m 128,-1,1
 706 60 706 60 778 101.5 c 128,-1,2
 850 143 850 143 871 242 c 2,3,-1
 1002 858 l 2,4,5
 1008 886 1008 886 1008 909 c 0,6,7
 1008 968 1008 968 968 998 c 0,8,9
 914 1040 914 1040 816 1040 c 128,-1,10
 718 1040 718 1040 640.5 998.5 c 128,-1,11
 563 957 563 957 542 858 c 2,12,-1
 411 242 l 2,13,14
 406 216 406 216 406 195 c 0,15,16
 406 134 406 134 450 102 c 0,17,0
 510 60 510 60 608 60 c 128,-1,1
99 -430 m 1,18,-1
 89 -430 l 1,19,-1
 346 782 l 2,20,21
 386 969 386 969 502 1038 c 0,22,23
 641 1120 641 1120 813 1120 c 128,-1,24
 985 1120 985 1120 1099 1038 c 0,25,26
 1185 976 1185 976 1185 862 c 0,27,28
 1185 825 1185 825 1176 782 c 2,29,-1
 1078 318 l 2,30,31
 1038 131 1038 131 922 62 c 0,32,33
 783 -20 783 -20 611 -20 c 0,34,35
 437 -20 437 -20 370 49 c 1,36,-1
 286 -349 l 1,37,-1
 99 -430 l 1,18,-1
909 1465 m 0,38,39
 961 1465 961 1465 987 1429 c 0,40,41
 1006 1404 1006 1404 1006 1370 c 0,42,43
 1006 1356 1006 1356 1003 1342 c 0,44,45
 992 1292 992 1292 949.5 1256 c 128,-1,46
 907 1220 907 1220 857 1220 c 128,-1,47
 807 1220 807 1220 779 1256 c 0,48,49
 760 1281 760 1281 760 1315 c 0,50,51
 760 1328 760 1328 763 1342 c 0,52,53
 774 1392 774 1392 816.5 1428.5 c 128,-1,54
 859 1465 859 1465 909 1465 c 0,38,39
EndSplineSet
Validated: 1
EndChar

StartChar: uni1E6A
Encoding: 7786 7786 182
Width: 1070
Flags: W
HStem: -20 21G<431 487.444> 1420 90<369 737 937 1324> 1630 245<827.027 978.615>
VStem: 780 245<1676.4 1827.97>
DStem2: 431 -20 630.87 -20 0.207912 0.978148<133.566 1472.15>
LayerCount: 2
Fore
SplineSet
431 -20 m 1,0,-1
 737 1420 l 1,1,-1
 312 1420 l 1,2,-1
 314 1430 l 1,3,-1
 369 1510 l 1,4,-1
 1381 1510 l 1,5,-1
 1379 1500 l 1,6,-1
 1324 1420 l 1,7,-1
 937 1420 l 1,8,-1
 650 70 l 1,9,-1
 441 -20 l 1,10,-1
 431 -20 l 1,0,-1
928 1875 m 0,11,12
 977 1875 977 1875 1005 1839 c 0,13,14
 1025 1813 1025 1813 1025 1779 c 0,15,16
 1025 1763 1025 1763 1023 1752 c 0,17,18
 1013 1702 1013 1702 969.5 1666 c 128,-1,19
 926 1630 926 1630 876 1630 c 128,-1,20
 826 1630 826 1630 799 1666 c 0,21,22
 780 1692 780 1692 780 1725 c 0,23,24
 780 1739 780 1739 783 1752 c 0,25,26
 793 1802 793 1802 835.5 1838.5 c 128,-1,27
 878 1875 878 1875 928 1875 c 0,11,12
EndSplineSet
Validated: 1
EndChar

StartChar: uni1E6B
Encoding: 7787 7787 183
Width: 780
Flags: W
HStem: -20 21G<296 352.076> 1020 80<277 517 709 954> 1510 20G<743.924 800> 1630 245<688.027 839.615>
VStem: 641 245<1676.4 1827.97>
DStem2: 296 -20 471.208 -20 0.207912 0.978148<117.193 1063.22 1181.39 1503.72>
LayerCount: 2
Fore
SplineSet
296 -20 m 1,0,-1
 517 1020 l 1,1,-1
 227 1020 l 1,2,-1
 229 1030 l 1,3,-1
 277 1100 l 1,4,-1
 534 1100 l 1,5,-1
 608 1451 l 1,6,-1
 790 1530 l 1,7,-1
 800 1530 l 1,8,-1
 709 1100 l 1,9,-1
 1004 1100 l 1,10,-1
 1002 1090 l 1,11,-1
 954 1020 l 1,12,-1
 692 1020 l 1,13,-1
 488 59 l 1,14,-1
 306 -20 l 1,15,-1
 296 -20 l 1,0,-1
789 1875 m 0,16,17
 838 1875 838 1875 866 1839 c 0,18,19
 886 1813 886 1813 886 1779 c 0,20,21
 886 1763 886 1763 884 1752 c 0,22,23
 874 1702 874 1702 830.5 1666 c 128,-1,24
 787 1630 787 1630 737 1630 c 128,-1,25
 687 1630 687 1630 660 1666 c 0,26,27
 641 1692 641 1692 641 1725 c 0,28,29
 641 1739 641 1739 644 1752 c 0,30,31
 654 1802 654 1802 696.5 1838.5 c 128,-1,32
 739 1875 739 1875 789 1875 c 0,16,17
EndSplineSet
Validated: 1
EndChar

StartChar: uni1E60
Encoding: 7776 7776 184
Width: 1130
Flags: W
HStem: -20 90<387.941 768.786> 796 110<616.634 910.711> 1440 90<707.426 1013.96> 1630 245<864.711 1015.42>
VStem: 141 188<125.679 368.961> 380 198<948.944 1146.03> 817 246<1677.59 1826.76> 965 204<401.906 745.797> 1046 184<1217 1402.39>
DStem2: 143.71 -20 348.487 -20 0.207912 0.978148<1123.95 1454.35> 830.257 -20 1045.93 -20 0.207912 0.978148<224.09 671.695>
LayerCount: 2
Fore
SplineSet
570 -20 m 0,0,1
 362 -20 362 -20 233 76 c 0,2,3
 141 144 141 144 141 295 c 0,4,5
 141 327 141 327 147 362 c 1,6,-1
 362 455 l 1,7,-1
 372 455 l 1,8,-1
 337 294 l 2,9,10
 329 257 329 257 329 229 c 0,11,12
 329 152 329 152 382 118 c 0,13,14
 454 70 454 70 570 70 c 128,-1,15
 686 70 686 70 778 118 c 0,16,17
 869 166 869 166 897 294 c 2,18,-1
 957 572 l 2,19,20
 965 609 965 609 965 639 c 0,21,22
 965 715 965 715 918 748 c 0,23,24
 852 796 852 796 732 796 c 8,25,26
 560 796 560 796 456 878 c 0,27,28
 380 938 380 938 380 1050 c 0,29,30
 380 1089 380 1089 389 1134 c 2,31,-1
 408 1229 l 2,32,33
 438 1378 438 1378 557 1448 c 0,34,35
 696 1530 696 1530 868 1530 c 24,36,37
 1047 1530 1047 1530 1154 1448 c 0,38,39
 1230 1390 1230 1390 1230 1265 c 0,40,41
 1230 1246 1230 1246 1228 1226 c 1,42,-1
 1025 1138 l 1,43,-1
 1015 1138 l 1,44,-1
 1040 1258 l 2,45,46
 1046 1287 1046 1287 1046 1313 c 0,47,48
 1046 1370 1046 1370 1014 1398 c 0,49,50
 966 1440 966 1440 873 1440 c 152,-1,51
 780 1440 780 1440 710 1398 c 0,52,53
 641 1357 641 1357 620 1258 c 2,54,-1
 584 1088 l 2,55,56
 578 1060 578 1060 578 1036 c 0,57,58
 578 978 578 978 615 948 c 0,59,60
 667 906 667 906 755 906 c 16,61,62
 956 906 956 906 1079 810 c 0,63,64
 1169 740 1169 740 1169 607 c 0,65,66
 1169 558 1169 558 1157 502 c 2,67,-1
 1125 352 l 2,68,69
 1085 165 1085 165 939 76 c 0,70,71
 782 -20 782 -20 570 -20 c 0,0,1
966 1875 m 0,72,73
 1018 1875 1018 1875 1044 1839 c 0,74,75
 1063 1814 1063 1814 1063 1780 c 0,76,77
 1063 1766 1063 1766 1060 1752 c 0,78,79
 1049 1702 1049 1702 1006.5 1666 c 128,-1,80
 964 1630 964 1630 914 1630 c 128,-1,81
 864 1630 864 1630 836 1666 c 0,82,83
 817 1691 817 1691 817 1725 c 0,84,85
 817 1738 817 1738 820 1752 c 0,86,87
 831 1802 831 1802 873.5 1838.5 c 128,-1,88
 916 1875 916 1875 966 1875 c 0,72,73
EndSplineSet
Validated: 1
EndChar

StartChar: uni1E61
Encoding: 7777 7777 185
Width: 930
Flags: W
HStem: -20 80<333.96 624.448> 559 80<492.861 718.77> 1041 79<560.36 788.708> 1220 245<662.711 813.42>
VStem: 128 171<99.5997 296.914> 295 179<674.753 828.733> 615 246<1267.59 1416.76> 749 182<216.398 524.607> 811 167<856.656 1017.44>
DStem2: 126.279 -20 310.293 -20 0.207912 0.978148<810.309 1073.52> 655.789 -20 846.871 -20 0.207912 0.978148<164.571 468.655>
LayerCount: 2
Fore
SplineSet
470 -20 m 0,0,1
 297 -20 297 -20 204 62 c 0,2,3
 128 129 128 129 128 249 c 0,4,5
 128 269 128 269 131 289 c 1,6,-1
 323 373 l 1,7,-1
 333 373 l 1,8,-1
 305 242 l 2,9,10
 299 214 299 214 299 186 c 0,11,12
 299 130 299 130 331 102 c 0,13,14
 378 60 378 60 472 60 c 128,-1,15
 566 60 566 60 628 102 c 0,16,17
 690 143 690 143 711 242 c 2,18,-1
 744 395 l 2,19,20
 749 418 749 418 749 440 c 0,21,22
 749 490 749 490 721 518 c 0,23,24
 681 559 681 559 592 559 c 0,25,26
 433 559 433 559 356 627 c 0,27,28
 295 681 295 681 295 755 c 0,29,30
 295 776 295 776 301 802 c 2,31,-1
 322 892 l 2,32,33
 347 999 347 999 430 1050 c 0,34,35
 542 1120 542 1120 684 1120 c 0,36,37
 820 1120 820 1120 912 1050 c 0,38,39
 978 1000 978 1000 978 895 c 0,40,41
 978 881 978 881 976 865 c 1,42,-1
 790 785 l 1,43,-1
 780 785 l 1,44,-1
 808 919 l 2,45,46
 811 933 811 933 811 950 c 0,47,48
 811 991 811 991 784 1012 c 0,49,50
 747 1041 747 1041 685 1041 c 0,51,52
 625 1041 625 1041 576 1013 c 0,53,54
 524 984 524 984 510 919 c 2,55,-1
 478 769 l 2,56,57
 474 750 474 750 474 734 c 0,58,59
 474 698 474 698 492 674 c 0,60,61
 519 639 519 639 615 639 c 0,62,63
 779 639 779 639 867 559 c 0,64,65
 931 501 931 501 931 411 c 0,66,67
 931 385 931 385 925 354 c 2,68,-1
 910 277 l 2,69,70
 882 133 882 133 770 62 c 0,71,72
 639 -20 639 -20 470 -20 c 0,0,1
764 1465 m 0,73,74
 816 1465 816 1465 842 1429 c 0,75,76
 861 1404 861 1404 861 1370 c 0,77,78
 861 1356 861 1356 858 1342 c 0,79,80
 847 1292 847 1292 804.5 1256 c 128,-1,81
 762 1220 762 1220 712 1220 c 128,-1,82
 662 1220 662 1220 634 1256 c 0,83,84
 615 1281 615 1281 615 1315 c 0,85,86
 615 1328 615 1328 618 1342 c 0,87,88
 629 1392 629 1392 671.5 1428.5 c 128,-1,89
 714 1465 714 1465 764 1465 c 0,73,74
EndSplineSet
Validated: 1
EndChar

StartChar: Wgrave
Encoding: 7808 7808 186
Width: 2180
Flags: W
HStem: -20 90<502.311 916.62 1312.76 1726.77> 1510 20G<648.556 705 1458.56 1515 2268.56 2325>
VStem: 251 184<133.299 359.627>
DStem2: 176.127 -20 375.257 -20 0.207912 0.978148<316.258 1492.52> 985.257 -20 1185.26 -20 0.207912 0.978148<303.31 1492.7> 1442 1937 1300 1880 0.252042 -0.967716<19.3699 321.375> 1795.26 -20 1996.13 -20 0.207912 0.978148<223.446 1492.7>
LayerCount: 2
Fore
SplineSet
700 -20 m 128,-1,1
 490 -20 490 -20 354 76 c 0,2,3
 251 148 251 148 251 286 c 0,4,5
 251 331 251 331 262 384 c 2,6,-1
 486 1440 l 1,7,-1
 695 1530 l 1,8,-1
 705 1530 l 1,9,-1
 442 294 l 2,10,11
 435 262 435 262 435 234 c 0,12,13
 435 154 435 154 494 118 c 0,14,15
 573 70 573 70 699.5 70 c 128,-1,16
 826 70 826 70 925.5 118.5 c 128,-1,17
 1025 167 1025 167 1052 294 c 2,18,-1
 1296 1440 l 1,19,-1
 1505 1530 l 1,20,-1
 1515 1530 l 1,21,-1
 1252 294 l 2,22,23
 1245 262 1245 262 1245 234 c 0,24,25
 1245 154 1245 154 1304 118 c 0,26,27
 1383 70 1383 70 1509.5 70 c 128,-1,28
 1636 70 1636 70 1735.5 118.5 c 128,-1,29
 1835 167 1835 167 1862 294 c 2,30,-1
 2106 1440 l 1,31,-1
 2315 1530 l 1,32,-1
 2325 1530 l 1,33,-1
 2082 384 l 2,34,35
 2034 159 2034 159 1889 76 c 0,36,37
 1720 -20 1720 -20 1510 -20 c 0,38,39
 1297 -20 1297 -20 1173 76 c 0,40,41
 1151 93 1151 93 1134 113 c 1,42,43
 1108 93 1108 93 1078 76 c 0,44,0
 910 -20 910 -20 700 -20 c 128,-1,1
1432 1937 m 1,45,-1
 1442 1937 l 1,46,-1
 1523 1626 l 1,47,-1
 1393 1570 l 1,48,-1
 1383 1570 l 1,49,-1
 1300 1880 l 1,50,-1
 1432 1937 l 1,45,-1
EndSplineSet
Validated: 1
EndChar

StartChar: wgrave
Encoding: 7809 7809 187
Width: 1840
Flags: W
HStem: -20 80<453.581 778.443 1104.24 1428.88> 1100 20G<541.827 598 1191.83 1248 1841.83 1898>
VStem: 239 167<103.396 307.557>
DStem2: 176.156 -20 355.31 -20 0.207912 0.978148<266.561 1082.61> 825.31 -20 1005.31 -20 0.207912 0.978148<258.908 1082.78> 1187 1527 1044 1470 0.261536 -0.965194<17.6163 321.098> 1475.31 -20 1656.16 -20 0.207912 0.978148<172.913 1082.78>
LayerCount: 2
Fore
SplineSet
610.5 -20 m 128,-1,1
 439 -20 439 -20 325 62 c 0,2,3
 239 124 239 124 239 238 c 0,4,5
 239 275 239 275 248 318 c 2,6,-1
 401 1039 l 1,7,-1
 588 1120 l 1,8,-1
 598 1120 l 1,9,-1
 411 242 l 2,10,11
 406 216 406 216 406 195 c 0,12,13
 406 134 406 134 450 102 c 0,14,15
 510 60 510 60 608 60 c 128,-1,16
 706 60 706 60 783 101.5 c 128,-1,17
 860 143 860 143 881 242 c 2,18,-1
 1051 1039 l 1,19,-1
 1238 1120 l 1,20,-1
 1248 1120 l 1,21,-1
 1061 242 l 2,22,23
 1056 216 1056 216 1056 195 c 0,24,25
 1056 134 1056 134 1100 102 c 0,26,27
 1160 60 1160 60 1258 60 c 128,-1,28
 1356 60 1356 60 1433 101.5 c 128,-1,29
 1510 143 1510 143 1531 242 c 2,30,-1
 1701 1039 l 1,31,-1
 1888 1120 l 1,32,-1
 1898 1120 l 1,33,-1
 1728 318 l 2,34,35
 1688 131 1688 131 1572 62 c 0,36,37
 1433 -20 1433 -20 1261 -20 c 0,38,39
 1095 -20 1095 -20 985 62 c 0,40,41
 970 73 970 73 958 87 c 1,42,43
 939 73 939 73 921 62 c 0,44,0
 782 -20 782 -20 610.5 -20 c 128,-1,1
1177 1527 m 1,45,-1
 1187 1527 l 1,46,-1
 1267 1216 l 1,47,-1
 1138 1160 l 1,48,-1
 1128 1160 l 1,49,-1
 1044 1470 l 1,50,-1
 1177 1527 l 1,45,-1
EndSplineSet
Validated: 1
EndChar

StartChar: Wacute
Encoding: 7810 7810 188
Width: 2180
Flags: W
HStem: -20 90<502.311 916.62 1312.76 1726.77> 1510 20G<648.556 705 1458.56 1515 2268.56 2325>
VStem: 251 184<133.299 359.627>
DStem2: 176.127 -20 375.257 -20 0.207912 0.978148<316.258 1492.52> 985.257 -20 1185.26 -20 0.207912 0.978148<303.31 1492.7> 1319 1634 1442 1570 0.550881 0.834584<14.3449 363.055> 1795.26 -20 1996.13 -20 0.207912 0.978148<223.446 1492.7>
LayerCount: 2
Fore
SplineSet
700 -20 m 128,-1,1
 490 -20 490 -20 354 76 c 0,2,3
 251 148 251 148 251 286 c 0,4,5
 251 331 251 331 262 384 c 2,6,-1
 486 1440 l 1,7,-1
 695 1530 l 1,8,-1
 705 1530 l 1,9,-1
 442 294 l 2,10,11
 435 262 435 262 435 234 c 0,12,13
 435 154 435 154 494 118 c 0,14,15
 573 70 573 70 699.5 70 c 128,-1,16
 826 70 826 70 925.5 118.5 c 128,-1,17
 1025 167 1025 167 1052 294 c 2,18,-1
 1296 1440 l 1,19,-1
 1505 1530 l 1,20,-1
 1515 1530 l 1,21,-1
 1252 294 l 2,22,23
 1245 262 1245 262 1245 234 c 0,24,25
 1245 154 1245 154 1304 118 c 0,26,27
 1383 70 1383 70 1509.5 70 c 128,-1,28
 1636 70 1636 70 1735.5 118.5 c 128,-1,29
 1835 167 1835 167 1862 294 c 2,30,-1
 2106 1440 l 1,31,-1
 2315 1530 l 1,32,-1
 2325 1530 l 1,33,-1
 2082 384 l 2,34,35
 2034 159 2034 159 1889 76 c 0,36,37
 1720 -20 1720 -20 1510 -20 c 0,38,39
 1297 -20 1297 -20 1173 76 c 0,40,41
 1151 93 1151 93 1134 113 c 1,42,43
 1108 93 1108 93 1078 76 c 0,44,0
 910 -20 910 -20 700 -20 c 128,-1,1
1529 1937 m 1,45,-1
 1642 1873 l 1,46,-1
 1442 1570 l 1,47,-1
 1432 1570 l 1,48,-1
 1319 1634 l 1,49,-1
 1519 1937 l 1,50,-1
 1529 1937 l 1,45,-1
EndSplineSet
Validated: 1
EndChar

StartChar: wacute
Encoding: 7811 7811 189
Width: 1840
Flags: W
HStem: -20 80<453.581 778.443 1104.24 1428.88> 1100 20G<541.827 598 1191.83 1248 1841.83 1898>
VStem: 239 167<103.396 307.557>
DStem2: 176.156 -20 355.31 -20 0.207912 0.978148<266.561 1082.61> 825.31 -20 1005.31 -20 0.207912 0.978148<258.908 1082.78> 1054 1224 1177 1160 0.550881 0.834584<14.3449 363.055> 1475.31 -20 1656.16 -20 0.207912 0.978148<172.913 1082.78>
LayerCount: 2
Fore
SplineSet
610.5 -20 m 128,-1,1
 439 -20 439 -20 325 62 c 0,2,3
 239 124 239 124 239 238 c 0,4,5
 239 275 239 275 248 318 c 2,6,-1
 401 1039 l 1,7,-1
 588 1120 l 1,8,-1
 598 1120 l 1,9,-1
 411 242 l 2,10,11
 406 216 406 216 406 195 c 0,12,13
 406 134 406 134 450 102 c 0,14,15
 510 60 510 60 608 60 c 128,-1,16
 706 60 706 60 783 101.5 c 128,-1,17
 860 143 860 143 881 242 c 2,18,-1
 1051 1039 l 1,19,-1
 1238 1120 l 1,20,-1
 1248 1120 l 1,21,-1
 1061 242 l 2,22,23
 1056 216 1056 216 1056 195 c 0,24,25
 1056 134 1056 134 1100 102 c 0,26,27
 1160 60 1160 60 1258 60 c 128,-1,28
 1356 60 1356 60 1433 101.5 c 128,-1,29
 1510 143 1510 143 1531 242 c 2,30,-1
 1701 1039 l 1,31,-1
 1888 1120 l 1,32,-1
 1898 1120 l 1,33,-1
 1728 318 l 2,34,35
 1688 131 1688 131 1572 62 c 0,36,37
 1433 -20 1433 -20 1261 -20 c 0,38,39
 1095 -20 1095 -20 985 62 c 0,40,41
 970 73 970 73 958 87 c 1,42,43
 939 73 939 73 921 62 c 0,44,0
 782 -20 782 -20 610.5 -20 c 128,-1,1
1264 1527 m 1,45,-1
 1377 1463 l 1,46,-1
 1177 1160 l 1,47,-1
 1167 1160 l 1,48,-1
 1054 1224 l 1,49,-1
 1254 1527 l 1,50,-1
 1264 1527 l 1,45,-1
EndSplineSet
Validated: 1
EndChar

StartChar: Wdieresis
Encoding: 7812 7812 190
Width: 2180
Flags: W
HStem: -20 90<502.311 916.62 1312.76 1726.77> 1510 20G<648.556 705 1458.56 1515 2268.56 2325> 1640 227<1243.23 1389.64 1519.14 1665.57>
VStem: 251 184<133.299 359.627> 1202 229<1681.58 1825.8> 1479 229<1682.58 1826.8>
DStem2: 176.127 -20 375.257 -20 0.207912 0.978148<316.258 1492.52> 985.257 -20 1185.26 -20 0.207912 0.978148<303.31 1492.7> 1795.26 -20 1996.13 -20 0.207912 0.978148<223.446 1492.7>
LayerCount: 2
Fore
SplineSet
700 -20 m 128,-1,1
 490 -20 490 -20 354 76 c 0,2,3
 251 148 251 148 251 286 c 0,4,5
 251 331 251 331 262 384 c 2,6,-1
 486 1440 l 1,7,-1
 695 1530 l 1,8,-1
 705 1530 l 1,9,-1
 442 294 l 2,10,11
 435 262 435 262 435 234 c 0,12,13
 435 154 435 154 494 118 c 0,14,15
 573 70 573 70 699.5 70 c 128,-1,16
 826 70 826 70 925.5 118.5 c 128,-1,17
 1025 167 1025 167 1052 294 c 2,18,-1
 1296 1440 l 1,19,-1
 1505 1530 l 1,20,-1
 1515 1530 l 1,21,-1
 1252 294 l 2,22,23
 1245 262 1245 262 1245 234 c 0,24,25
 1245 154 1245 154 1304 118 c 0,26,27
 1383 70 1383 70 1509.5 70 c 128,-1,28
 1636 70 1636 70 1735.5 118.5 c 128,-1,29
 1835 167 1835 167 1862 294 c 2,30,-1
 2106 1440 l 1,31,-1
 2315 1530 l 1,32,-1
 2325 1530 l 1,33,-1
 2082 384 l 2,34,35
 2034 159 2034 159 1889 76 c 0,36,37
 1720 -20 1720 -20 1510 -20 c 0,38,39
 1297 -20 1297 -20 1173 76 c 0,40,41
 1151 93 1151 93 1134 113 c 1,42,43
 1108 93 1108 93 1078 76 c 0,44,0
 910 -20 910 -20 700 -20 c 128,-1,1
1618 1868 m 128,-1,46
 1664 1868 1664 1868 1690 1835 c 0,47,48
 1708 1812 1708 1812 1708 1779 c 0,49,50
 1708 1767 1708 1767 1706 1755 c 0,51,52
 1696 1709 1696 1709 1655.5 1675 c 128,-1,53
 1615 1641 1615 1641 1569 1641 c 0,54,55
 1524 1641 1524 1641 1498 1675 c 0,56,57
 1479 1699 1479 1699 1479 1730 c 0,58,59
 1480 1743 1480 1743 1482 1755 c 0,60,61
 1492 1801 1492 1801 1532 1834.5 c 128,-1,45
 1572 1868 1572 1868 1618 1868 c 128,-1,46
1341 1867 m 128,-1,63
 1387 1867 1387 1867 1413 1834 c 0,64,65
 1431 1811 1431 1811 1431 1778 c 0,66,67
 1431 1766 1431 1766 1429 1754 c 0,68,69
 1419 1708 1419 1708 1378.5 1674 c 128,-1,70
 1338 1640 1338 1640 1292 1640 c 0,71,72
 1247 1640 1247 1640 1221 1674 c 0,73,74
 1202 1698 1202 1698 1202 1729 c 0,75,76
 1203 1742 1203 1742 1205 1754 c 0,77,78
 1215 1800 1215 1800 1255 1833.5 c 128,-1,62
 1295 1867 1295 1867 1341 1867 c 128,-1,63
EndSplineSet
Validated: 1
EndChar

StartChar: wdieresis
Encoding: 7813 7813 191
Width: 1840
Flags: W
HStem: -20 80<453.581 778.443 1104.24 1428.88> 1100 20G<541.827 598 1191.83 1248 1841.83 1898> 1230 227<993.232 1139.64 1269.14 1415.57>
VStem: 239 167<103.396 307.557> 952 229<1271.58 1415.8> 1229 229<1272.58 1416.8>
DStem2: 176.156 -20 355.31 -20 0.207912 0.978148<266.561 1082.61> 825.31 -20 1005.31 -20 0.207912 0.978148<258.908 1082.78> 1475.31 -20 1656.16 -20 0.207912 0.978148<172.913 1082.78>
LayerCount: 2
Fore
SplineSet
610.5 -20 m 128,-1,1
 439 -20 439 -20 325 62 c 0,2,3
 239 124 239 124 239 238 c 0,4,5
 239 275 239 275 248 318 c 2,6,-1
 401 1039 l 1,7,-1
 588 1120 l 1,8,-1
 598 1120 l 1,9,-1
 411 242 l 2,10,11
 406 216 406 216 406 195 c 0,12,13
 406 134 406 134 450 102 c 0,14,15
 510 60 510 60 608 60 c 128,-1,16
 706 60 706 60 783 101.5 c 128,-1,17
 860 143 860 143 881 242 c 2,18,-1
 1051 1039 l 1,19,-1
 1238 1120 l 1,20,-1
 1248 1120 l 1,21,-1
 1061 242 l 2,22,23
 1056 216 1056 216 1056 195 c 0,24,25
 1056 134 1056 134 1100 102 c 0,26,27
 1160 60 1160 60 1258 60 c 128,-1,28
 1356 60 1356 60 1433 101.5 c 128,-1,29
 1510 143 1510 143 1531 242 c 2,30,-1
 1701 1039 l 1,31,-1
 1888 1120 l 1,32,-1
 1898 1120 l 1,33,-1
 1728 318 l 2,34,35
 1688 131 1688 131 1572 62 c 0,36,37
 1433 -20 1433 -20 1261 -20 c 0,38,39
 1095 -20 1095 -20 985 62 c 0,40,41
 970 73 970 73 958 87 c 1,42,43
 939 73 939 73 921 62 c 0,44,0
 782 -20 782 -20 610.5 -20 c 128,-1,1
1368 1458 m 128,-1,46
 1414 1458 1414 1458 1440 1425 c 0,47,48
 1458 1402 1458 1402 1458 1369 c 0,49,50
 1458 1357 1458 1357 1456 1345 c 0,51,52
 1446 1299 1446 1299 1405.5 1265 c 128,-1,53
 1365 1231 1365 1231 1319 1231 c 0,54,55
 1274 1231 1274 1231 1248 1265 c 0,56,57
 1229 1289 1229 1289 1229 1320 c 0,58,59
 1230 1333 1230 1333 1232 1345 c 0,60,61
 1242 1391 1242 1391 1282 1424.5 c 128,-1,45
 1322 1458 1322 1458 1368 1458 c 128,-1,46
1091 1457 m 128,-1,63
 1137 1457 1137 1457 1163 1424 c 0,64,65
 1181 1401 1181 1401 1181 1368 c 0,66,67
 1181 1356 1181 1356 1179 1344 c 0,68,69
 1169 1298 1169 1298 1128.5 1264 c 128,-1,70
 1088 1230 1088 1230 1042 1230 c 0,71,72
 997 1230 997 1230 971 1264 c 0,73,74
 952 1288 952 1288 952 1319 c 0,75,76
 953 1332 953 1332 955 1344 c 0,77,78
 965 1390 965 1390 1005 1423.5 c 128,-1,62
 1045 1457 1045 1457 1091 1457 c 128,-1,63
EndSplineSet
Validated: 1
EndChar

StartChar: Ygrave
Encoding: 7922 7922 192
Width: 1230
Flags: W
HStem: -20 21G<511 567.444> 1510 20G<588.556 645 1378.56 1435>
VStem: 287 185<587.909 810.968>
DStem2: 116.052 -20 316.182 -20 0.207912 0.978148<781.23 1492.54> 511 -20 710.87 -20 0.207912 0.978148<133.566 468.159> 1014 1937 872 1880 0.252042 -0.967716<19.3699 321.375> 906.182 -20 1106.05 -20 0.207912 0.978148<686.307 1492.51>
LayerCount: 2
Fore
SplineSet
521 -20 m 1,0,-1
 511 -20 l 1,1,-1
 608 438 l 1,2,3
 488 454 488 454 389 528 c 0,4,5
 287 605 287 605 287 741 c 0,6,7
 287 784 287 784 298 836 c 2,8,-1
 426 1440 l 1,9,-1
 635 1530 l 1,10,-1
 645 1530 l 1,11,-1
 479 746 l 2,12,13
 472 713 472 713 472 686 c 0,14,15
 472 606 472 606 530 570 c 0,16,17
 608 522 608 522 725 522 c 128,-1,18
 842 522 842 522 942 571 c 0,19,20
 1042 619 1042 619 1069 746 c 2,21,-1
 1216 1440 l 1,22,-1
 1425 1530 l 1,23,-1
 1435 1530 l 1,24,-1
 1288 836 l 2,25,26
 1241 613 1241 613 1094 528 c 0,27,28
 964 453 964 453 808 438 c 1,29,-1
 730 70 l 1,30,-1
 521 -20 l 1,0,-1
1004 1937 m 1,31,-1
 1014 1937 l 1,32,-1
 1095 1626 l 1,33,-1
 965 1570 l 1,34,-1
 955 1570 l 1,35,-1
 872 1880 l 1,36,-1
 1004 1937 l 1,31,-1
EndSplineSet
Validated: 1
EndChar

StartChar: ygrave
Encoding: 7923 7923 193
Width: 1210
Flags: W
HStem: -410 80<283 694> -20 80<453.644 778.327> 1100 20G<541.827 598 1191.83 1248>
VStem: 239 167<103.396 307.557>
DStem2: 93.2588 -410 272.413 -410 0.207912 0.978148<665.274 1481.32> 870 1527 727 1470 0.261536 -0.965194<17.6163 321.098> 743.31 -410 923.156 -410 0.207912 0.978148<176.185 469.073 531.368 1481.31>
LayerCount: 2
Fore
SplineSet
233 -410 m 1,0,-1
 235 -400 l 1,1,-1
 283 -330 l 1,2,-1
 525 -330 l 2,3,4
 623 -330 623 -330 700 -288 c 0,5,6
 779 -246 779 -246 799 -148 c 2,7,-1
 840 49 l 1,8,9
 741 -20 741 -20 611 -20 c 0,10,11
 439 -20 439 -20 325 62 c 0,12,13
 239 124 239 124 239 238 c 0,14,15
 239 275 239 275 248 318 c 2,16,-1
 401 1039 l 1,17,-1
 588 1120 l 1,18,-1
 598 1120 l 1,19,-1
 411 242 l 2,20,21
 406 216 406 216 406 195 c 0,22,23
 406 134 406 134 450 102 c 0,24,25
 510 60 510 60 608 60 c 128,-1,26
 706 60 706 60 783 101.5 c 128,-1,27
 860 143 860 143 881 242 c 2,28,-1
 1051 1039 l 1,29,-1
 1238 1120 l 1,30,-1
 1248 1120 l 1,31,-1
 995 -72 l 2,32,33
 956 -256 956 -256 838 -328 c 0,34,35
 705 -410 705 -410 528 -410 c 2,36,-1
 233 -410 l 1,0,-1
860 1527 m 1,37,-1
 870 1527 l 1,38,-1
 950 1216 l 1,39,-1
 821 1160 l 1,40,-1
 811 1160 l 1,41,-1
 727 1470 l 1,42,-1
 860 1527 l 1,37,-1
EndSplineSet
Validated: 1
EndChar

StartChar: AE
Encoding: 198 198 194
Width: 1688
Flags: W
HStem: -20 21G<176 232.444> 0 90<1047 1600> 710 90<550 979 1198 1701> 1420 90<1330 1852> 1440 90<775.89 1128.77>
DStem2: 176 -20 375.87 -20 0.207912 0.978148<133.566 787.856 879.84 1398.38> 823.749 -20 1023.62 -20 0.207912 0.978148<154.013 746.326 879.892 1474.7>
LayerCount: 2
Fore
SplineSet
1130 1421 m 1,0,1
 1069 1440 1069 1440 992 1440 c 0,2,3
 865 1440 865 1440 765 1391.5 c 128,-1,4
 665 1343 665 1343 638 1216 c 2,5,-1
 550 800 l 1,6,-1
 998 800 l 1,7,-1
 1130 1421 l 1,0,1
1600 0 m 1,8,-1
 828 0 l 1,9,-1
 979 710 l 1,10,-1
 531 710 l 1,11,-1
 395 70 l 1,12,-1
 186 -20 l 1,13,-1
 176 -20 l 1,14,-1
 419 1126 l 2,15,16
 465 1342 465 1342 612 1434 c 0,17,18
 765 1530 765 1530 991 1530 c 0,19,20
 1102 1530 1102 1530 1183 1510 c 1,21,-1
 1909 1510 l 1,22,-1
 1907 1500 l 1,23,-1
 1852 1420 l 1,24,-1
 1330 1420 l 1,25,-1
 1198 800 l 1,26,-1
 1758 800 l 1,27,-1
 1756 790 l 1,28,-1
 1701 710 l 1,29,-1
 1179 710 l 1,30,-1
 1047 90 l 1,31,-1
 1657 90 l 1,32,-1
 1655 80 l 1,33,-1
 1600 0 l 1,8,-1
EndSplineSet
Validated: 1
EndChar

StartChar: Eth
Encoding: 208 208 195
Width: 1350
Flags: W
HStem: 0 90<419 909.749> 710 90<248 351 570 843> 1420 90<702 1174>
VStem: 1241 194<1017.55 1343.22>
DStem2: 200 0 399.87 0 0.207912 0.978148<133.566 725.879 859.445 1472.15> 980.257 0 1190.13 0 0.207912 0.978148<225.816 1258.3>
CounterMasks: 1 e0
LayerCount: 2
Fore
SplineSet
900 800 m 1,0,-1
 898 790 l 1,1,-1
 843 710 l 1,2,-1
 551 710 l 1,3,-1
 419 90 l 1,4,-1
 694 90 l 2,5,6
 821 90 821 90 919 138 c 0,7,8
 1019 186 1019 186 1047 314 c 2,9,-1
 1234 1196 l 2,10,11
 1241 1229 1241 1229 1241 1256 c 0,12,13
 1241 1336 1241 1336 1182 1372 c 0,14,15
 1104 1420 1104 1420 977 1420 c 2,16,-1
 702 1420 l 1,17,-1
 570 800 l 1,18,-1
 900 800 l 1,0,-1
200 0 m 1,19,-1
 351 710 l 1,20,-1
 191 710 l 1,21,-1
 193 720 l 1,22,-1
 248 800 l 1,23,-1
 370 800 l 1,24,-1
 506 1440 l 1,25,-1
 669 1510 l 1,26,-1
 986 1510 l 2,27,28
 1194 1510 1194 1510 1322 1414 c 0,29,30
 1435 1329 1435 1329 1435 1191 c 0,31,32
 1435 1151 1435 1151 1425 1106 c 2,33,-1
 1276 404 l 2,34,35
 1229 180 1229 180 1082 96 c 0,36,37
 915 0 915 0 705 0 c 2,38,-1
 200 0 l 1,19,-1
EndSplineSet
Validated: 1
EndChar

StartChar: Dcroat
Encoding: 272 272 196
Width: 1350
Flags: W
HStem: 0 90<419 909.749> 710 90<248 351 570 843> 1420 90<702 1174>
VStem: 1241 194<1017.55 1343.22>
DStem2: 200 0 399.87 0 0.207912 0.978148<133.566 725.879 859.445 1472.15> 980.257 0 1190.13 0 0.207912 0.978148<225.816 1258.3>
CounterMasks: 1 e0
LayerCount: 2
Fore
SplineSet
900 800 m 1,0,-1
 898 790 l 1,1,-1
 843 710 l 1,2,-1
 551 710 l 1,3,-1
 419 90 l 1,4,-1
 694 90 l 2,5,6
 821 90 821 90 919 138 c 0,7,8
 1019 186 1019 186 1047 314 c 2,9,-1
 1234 1196 l 2,10,11
 1241 1229 1241 1229 1241 1256 c 0,12,13
 1241 1336 1241 1336 1182 1372 c 0,14,15
 1104 1420 1104 1420 977 1420 c 2,16,-1
 702 1420 l 1,17,-1
 570 800 l 1,18,-1
 900 800 l 1,0,-1
200 0 m 1,19,-1
 351 710 l 1,20,-1
 191 710 l 1,21,-1
 193 720 l 1,22,-1
 248 800 l 1,23,-1
 370 800 l 1,24,-1
 506 1440 l 1,25,-1
 669 1510 l 1,26,-1
 986 1510 l 2,27,28
 1194 1510 1194 1510 1322 1414 c 0,29,30
 1435 1329 1435 1329 1435 1191 c 0,31,32
 1435 1151 1435 1151 1425 1106 c 2,33,-1
 1276 404 l 2,34,35
 1229 180 1229 180 1082 96 c 0,36,37
 915 0 915 0 705 0 c 2,38,-1
 200 0 l 1,19,-1
EndSplineSet
Validated: 1
EndChar

